<?xml version="1.0" standalone="no"?>
<!DOCTYPE svg PUBLIC "-//W3C//DTD SVG 1.1//EN" "http://www.w3.org/Graphics/SVG/1.1/DTD/svg11.dtd" >
<svg>
<metadata>
Created by FontForge 20090622 at Sun Jun 14 22:33:31 2015
 By deploy user
Copyright (c) 2014 by Misti's Fonts (Misti Hammers). All rights reserved.
</metadata>
<defs>
<font id="MfReallyAwesome" horiz-adv-x="364" >
  <font-face 
    font-family="Mf Really Awesome"
    font-weight="400"
    font-stretch="normal"
    units-per-em="1000"
    panose-1="0 0 0 0 0 0 0 0 0 0"
    ascent="750"
    descent="-250"
    x-height="498"
    cap-height="699"
    bbox="-56.7368 -285 852 928.444"
    underline-thickness="50"
    underline-position="-50"
    unicode-range="U+000D-U+20AC"
  />
<missing-glyph horiz-adv-x="273" 
 />
    <glyph glyph-name=".notdef" horiz-adv-x="273" 
 />
    <glyph glyph-name=".null" horiz-adv-x="0" 
 />
    <glyph glyph-name=".null" horiz-adv-x="0" 
 />
    <glyph glyph-name="nonmarkingreturn" unicode="&#xd;" horiz-adv-x="273" 
 />
    <glyph glyph-name="space" unicode=" " horiz-adv-x="273" 
 />
    <glyph glyph-name="t" unicode="t" horiz-adv-x="359" 
d="M331 211q12 -4 18 -15t2 -22q-21 -68 -52 -109q-31 -43 -70 -58q-10 -3 -19.5 -5t-19.5 -2q-29 0 -54 16q-24 14 -37.5 43.5t-19.5 74.5t-5.5 106.5t4.5 139.5l-17.5 -2l-16.5 -2q-1 -1 -4 -1q-11 0 -19.5 7.5t-10.5 18.5q-2 13 5.5 22.5t20.5 11.5q4 1 16 2.5l29 3.5
q1 16 1.5 32t2.5 33q2 42 4.5 85.5t4.5 91.5q1 12 10 20.5t21 7.5q13 -1 21.5 -10t7.5 -21q-2 -48 -4.5 -91.5t-4.5 -86.5q-1 -14 -1.5 -27t-1.5 -26q19 3 38 5t35.5 4t29 3t18.5 1q12 0 21 -8.5t9 -21.5q0 -12 -9 -21t-21 -9q-9 0 -45 -4t-80 -10q-3 -60 -4 -109t1 -89
q1 -33 4.5 -55t8 -36.5t9 -21.5t9.5 -10q20 -12 41 -3q26 9 48 42.5t39 85.5q4 11 15 17t22 2z" />
    <glyph glyph-name="n" unicode="n" horiz-adv-x="362" 
d="M337 218q3 -37 5 -70.5t3 -59.5t1 -42.5v-17.5q-1 -12 -9.5 -20.5t-20.5 -8.5h-1q-12 0 -20.5 8.5t-8.5 21.5v15.5t-1 41t-2.5 58.5t-4.5 69q-6 62 -13.5 102.5t-15 65t-14 35.5t-10.5 15t-5 3q-7 0 -18 -12q-21 -24 -43 -79t-42 -132q-10 -37 -16 -69l-11 -57v-23
t-1 -18q0 -6 -0.5 -10t-1.5 -8q-3 -17 -11.5 -22.5t-14.5 -6.5q-2 -1 -6 -1q-15 0 -24 12q-6 8 -7 20.5t3 42.5q1 5 1.5 10t1.5 10q1 25 0 67t-3 108q-1 39 -2.5 75t-2.5 64.5t-1.5 46l-0.5 17.5q-1 12 7.5 21t21.5 10q12 0 21 -8t10 -21l0.5 -12.5t1.5 -33.5t2 -48.5
t2 -58.5l12 35t14 34q20 44 42 70q28 35 62 37q10 1 23 -2.5t27 -16.5q33 -31 50 -111q13 -58 21 -146z" />
    <glyph glyph-name="f" unicode="f" horiz-adv-x="428" 
d="M426 311q0 -12 -8 -21t-21 -10q-24 -1 -54.5 -3.5t-63.5 -4.5q-34 -3 -69 -5.5t-69 -4.5q2 -41 4 -77.5t4 -65.5q2 -36 3 -59.5t1 -34.5q0 -12 -9 -20.5t-21 -8.5h-1q-12 0 -20.5 9t-8.5 22q0 8 -1 32t-3 56t-4 68.5l-4 76.5h-43q-12 0 -20.5 9t-8.5 22q1 12 10 20.5
t21 8.5q18 -2 39 0q-3 83 -2 162.5t10 135.5q9 60 34 92q27 38 70 38q28 0 54.5 -18.5t49.5 -53.5q22 -34 37 -80t23 -102q2 -12 -5.5 -22t-19.5 -12t-22 5.5t-12 20.5q-9 62 -24 99.5t-28 57.5q-16 25 -30 35t-24 10q-14 0 -26.5 -22t-17.5 -57q-4 -26 -6 -59t-3 -70.5
t-0.5 -77.5t2.5 -80q33 2 67.5 4.5t67.5 5.5q34 2 64.5 4.5t55.5 3.5q13 1 22 -7.5t10 -21.5z" />
    <glyph glyph-name="y" unicode="y" 
d="M280 -257q-9 0 -17 5q-11 8 -13 19.5t5 22.5q2 2 5.5 14t8.5 47q3 23 5 55t3 71q2 38 2 80.5t-1 84.5q-14 -38 -32 -69q-45 -76 -103 -76h-2q-38 0 -68 33q-34 39 -49 119q-12 61 -15 147q-1 36 -0.5 68.5t2 57.5t2.5 40t1 16q1 13 10.5 21t21.5 7q13 -2 21 -11t7 -22
l-1.5 -14.5t-2.5 -39t-1.5 -56t0.5 -66.5q2 -58 7.5 -98.5t13 -66.5t15 -40.5t13.5 -21.5q8 -9 14 -11t11 -2q15 -1 33 20q23 26 44.5 81t38.5 130l9.5 45t6.5 41v44q0 14 0.5 24t1.5 18q0 7 2 15q3 14 12 20t18 7q18 0 28 -16q4 -6 6 -19t-2 -50q-1 -21 -6 -47
q1 -20 1 -42.5t1 -43.5q1 -71 1.5 -153t-1.5 -156q-2 -59 -5 -98t-7.5 -63.5t-9.5 -37.5t-10 -20q-10 -13 -25 -13z" />
    <glyph glyph-name="g" unicode="g" horiz-adv-x="371" 
d="M200 -252q-8 0 -15 1t-15 3q-26 6 -49 22t-40 39q-17 25 -24 54.5t-2 59.5q2 12 12.5 19.5t22.5 5.5t19.5 -12.5t5.5 -22.5q-4 -20 0.5 -37.5t14.5 -32t24.5 -24t29.5 -13.5q8 -2 18.5 -2t21.5 5t21 17t17 35q4 13 7 39t4.5 59.5t2.5 73t1 78.5q-19 -36 -39 -59
q-44 -53 -96 -53h-1q-33 0 -59.5 16.5t-43.5 48.5q-16 31 -21 71.5t2 86.5q6 46 22.5 89t42.5 78q44 62 105 89t133 16q13 -2 20.5 -12t5.5 -22t-12 -19.5t-23 -5.5q-35 5 -63 -0.5t-50 -18t-39 -29t-29 -33.5q-21 -29 -35 -65.5t-19 -74.5q-5 -37 -1.5 -68.5t15.5 -53.5
q16 -33 49 -33h1q23 0 50 31q21 26 41 68.5t37 96.5q2 8 4.5 15.5t4.5 15.5v19.5t1 18.5q1 33 3 52q2 10 6 24t20 20q20 8 35 -8q8 -8 10 -20t0 -28q-2 -25 -9 -56q-2 -8 -3.5 -15t-3.5 -15v-52t-1 -56q-1 -122 -3.5 -207t-13.5 -120q-20 -59 -62 -84q-27 -15 -58 -15z" />
    <glyph glyph-name="s" unicode="s" horiz-adv-x="313" 
d="M164 -2q-5 0 -11 0.5t-11 1.5q-56 9 -92 56q-37 51 -34 130q0 12 9 20.5t22 8.5q12 -1 20.5 -10t8.5 -21q-2 -31 4.5 -53.5t17 -37.5t24.5 -23.5t29 -10.5q23 -4 48 7.5t34 42.5q9 33 -20.5 65.5t-79.5 73.5q-36 29 -66 57.5t-39 62.5q-15 64 26 104q22 22 58 28
q35 6 67 -4q39 -11 67 -40q31 -32 42 -78q3 -12 -3.5 -22.5t-18.5 -13.5t-22.5 3.5t-13.5 18.5q-5 20 -14 33.5t-19 22t-19.5 13t-15.5 6.5q-20 5 -38 2.5t-29 -12.5q-17 -17 -8 -46q4 -20 29.5 -43t54.5 -46l48 -40t42 -43q45 -60 29 -118q-12 -44 -46.5 -69.5t-79.5 -25.5
z" />
    <glyph glyph-name="r" unicode="r" horiz-adv-x="320" 
d="M65 4q-11 0 -19.5 7.5t-10.5 19.5q-5 60 -4 120t9 116q-1 51 -5 101t-15 101q-3 12 3.5 22.5t18.5 12.5q13 3 23.5 -3.5t12.5 -18.5q6 -27 9 -50q2 3 3.5 6t3.5 6q30 49 69 58q16 3 39 -3.5t48 -38.5q34 -43 63 -136q4 -12 -2 -23t-18 -14q-11 -4 -22 1.5t-15 17.5
q-16 51 -30 78t-23 39q-4 5 -12 13.5t-16 6.5q-5 -1 -12.5 -7t-16 -20t-18 -37t-17.5 -56l-6 -29t-5 -31q0 -69 -3 -138q-1 -24 -1.5 -46.5t-0.5 -45.5q0 -12 -8.5 -20.5t-19.5 -8.5h-2z" />
    <glyph glyph-name="e" unicode="e" horiz-adv-x="363" 
d="M225 1q-27 0 -54 6q-68 17 -109 69q-49 63 -48 159q0 111 55 186q25 33 57 53t67 25q46 6 84 -18q39 -27 51 -77q1 -1 1 -2q9 -59 -10 -106q-18 -46 -55 -75q-35 -27 -76 -35q-43 -9 -82 7q-12 5 -17 16t0 23q5 11 16.5 16.5t22.5 0.5q23 -10 49.5 -4.5t48.5 23.5
q27 21 38 53t6 70q-8 26 -25.5 39t-43.5 9q-23 -2 -45 -16.5t-39 -37.5q-15 -20 -29 -56.5t-15 -93.5q0 -46 11.5 -77t29 -50t37 -28.5t35.5 -13.5q37 -10 71 -2q17 4 23.5 8.5t7.5 6.5q6 11 17.5 14.5t22.5 -1.5q11 -6 15 -18t-2 -23q-17 -33 -70 -45q-11 -3 -22.5 -4
t-23.5 -1z" />
    <glyph glyph-name="m" unicode="m" horiz-adv-x="531" 
d="M70 1q-2 0 -7 0.5t-10 4t-10 10t-7 18.5q-2 5 -2 12.5v16.5q0 20 2 49t7 62q-1 9 -1 19t-2 21q-2 31 -4.5 63l-5 61.5t-5 55t-3.5 43.5l-2.5 31.5t-0.5 8.5q0 12 8.5 21t20.5 9q13 0 21.5 -8.5t8.5 -20.5q1 -2 1.5 -12t2.5 -24q1 -14 2.5 -32.5t3.5 -40.5q10 28 21 48
q33 63 78 63q9 0 21.5 -4t25.5 -17q28 -29 44 -106l4 -23t4 -26q8 35 17 63t18 51q6 14 14 29.5t18 28t23 21t29 8.5q8 0 19 -3.5t22 -14.5q7 -8 15.5 -22.5t16.5 -43t15.5 -74.5t12.5 -116q3 -37 4 -71.5t1.5 -61t0.5 -43v-17.5q-1 -12 -9.5 -20.5t-20.5 -8.5h-1
q-12 0 -21 8.5t-8 21.5v17t-0.5 44.5t-1.5 62.5t-4 73q-4 44 -8.5 79.5t-10.5 63.5q-7 32 -13 46t-10 18q-4 -4 -12.5 -17t-20.5 -46q-19 -53 -39 -143q-8 -38 -14.5 -74.5t-11 -64.5t-7 -45.5l-2.5 -17.5q-2 -12 -11 -20t-21 -6q-12 1 -20 10t-7 20v17v44.5t-1 62.5t-4 71
q-6 82 -20 134q-10 33 -18 44q-4 6 -8 8q-1 0 -4 -2t-9 -10q-17 -23 -34 -74.5t-30 -121.5q-2 -11 -3.5 -21t-3.5 -20q3 -50 3 -82q1 -40 -2 -55t-11 -23q-10 -10 -23 -10z" />
    <glyph glyph-name="p" unicode="p" horiz-adv-x="401" 
d="M364 405q17 -32 24.5 -72.5t5.5 -84.5q-2 -45 -14.5 -85.5t-35.5 -72.5q-31 -47 -81 -72q-56 -26 -121 -19q-12 2 -20 11t-7 22q2 12 11.5 20t21.5 7q96 -10 147 65q17 25 27 57.5t12 67t-3.5 68.5t-19.5 61q-10 19 -29 37.5t-50 18.5q-5 0 -17 -3t-29 -24
q-31 -40 -52.5 -127t-31.5 -212q3 -55 4.5 -99.5t2.5 -79.5q1 -26 1 -46.5v-34.5q-1 -15 -3 -25q0 -6 -2 -12q-5 -13 -13 -17t-12 -5h-6q-15 0 -24 12q-2 3 -4 6.5t-3.5 13.5t-3 28t-2.5 48q-2 39 -1 83t4 88q0 10 0.5 20t1.5 21q-1 18 -1.5 37.5t-2.5 40.5
q-3 61 -6.5 118.5l-6.5 102.5t-5 72t-2 28q-1 12 7.5 21.5t20.5 10.5q13 1 22 -7t10 -21q0 -1 2.5 -38.5l6.5 -97.5q6 19 13 36.5t15 32.5q10 20 22 36t25 27q34 27 71 26q42 -1 75.5 -23.5t55.5 -65.5z" />
    <glyph glyph-name="i" unicode="i" horiz-adv-x="116" 
d="M70 4q-10 0 -18 5.5t-10 16.5q-10 36 -16 75t-8.5 76t-3 70t-0.5 57q0 29 1.5 57.5t4.5 52.5q1 11 2 19.5t3 15.5q2 10 5 18.5t12 14.5q11 6 23 3.5t19 -13.5q8 -16 0 -30q-2 -11 -6 -51.5t-5 -101.5q0 -73 6.5 -136.5t19.5 -110.5q4 -12 -2.5 -23t-18.5 -14q-2 -1 -8 -1
zM52 641q5 4 9.5 6t10.5 2q12 0 20 -8t8 -20q0 -5 -1.5 -10.5t-6.5 -8.5q-1 -1 -2 -1.5t-2 -2.5q0 1 -1.5 -1t-1.5 -3l-2 -4v-2v3q-1 -2 -1 -6q0 1 0.5 1t0.5 1q0 -1 -1 -2q0 -7 1 -11v-1v1q0 -3 1 -5l-1 1q2 -12 -3 -19q-5 -10 -16 -13q-11 -2 -22 3.5t-13 16.5
q-2 12 -2.5 24t3.5 23q7 23 22 36zM83 570v3v-3zM85 595q0 1 0.5 1t0.5 1q0 -1 -1 -2z" />
    <glyph glyph-name="l" unicode="l" horiz-adv-x="122" 
d="M79 0q-7 0 -13 3q-17 8 -25 26t-12 33q-4 17 -6.5 38.5t-4.5 48.5q-3 45 -3 104.5t2 134.5q2 63 5.5 122.5t7 106t6 75t2.5 29.5q1 13 10.5 21t22.5 6q12 -1 20 -10.5t7 -21.5q0 -1 -2.5 -27.5t-5.5 -70t-6.5 -100t-5.5 -116.5q-3 -70 -3.5 -127t1.5 -102q2 -34 4.5 -56
t5.5 -35t5.5 -19t3.5 -8q10 -6 13 -16.5t-2 -21.5q-8 -17 -27 -17z" />
    <glyph glyph-name="z" unicode="z" horiz-adv-x="337" 
d="M174 -1q-67 0 -103 11.5t-47 37.5q-8 19 0.5 42.5t26.5 52.5q15 25 35 53l42 59l42 58.5t37 55.5q17 28 23 42t7 19q-6 4 -26.5 9t-67.5 2q-34 -2 -59.5 -6.5t-26.5 -4.5q-12 -2 -22.5 4.5t-12.5 18.5q-3 12 4 22.5t19 13.5q2 0 29.5 5t64.5 7q110 6 146 -33
q19 -21 9 -60q-7 -20 -27 -56q-17 -30 -41 -64l-49 -68l-37.5 -52t-31.5 -47q-14 -21 -19.5 -33t-7.5 -17q6 -3 29.5 -8t78.5 -4q20 0 38 1t32 3q17 2 31 3q13 2 22.5 -5.5t11.5 -20.5q2 -12 -6 -21.5t-20 -11.5q-1 0 -11 -1.5t-26.5 -2.5t-37 -2.5t-42.5 -1.5h-7z" />
    <glyph glyph-name="x" unicode="x" horiz-adv-x="383" 
d="M348 441l-66 -97.5l-71 -106.5l32 -59.5t31.5 -52.5t31 -41.5t29.5 -26.5q11 -7 13.5 -19t-4.5 -23q-9 -14 -25 -14q-8 0 -16 5q-23 14 -47 43t-52 76q-15 25 -30 54l-54.5 -87.5t-42.5 -73.5q-4 -8 -11 -12t-15 -4t-14 3q-11 6 -15 18t2 23q21 39 52 89.5l66 105.5
l-14 28l-14 28l-43 86.5t-41 73.5q-6 11 -3.5 22.5t13.5 18.5t23 4t19 -14q20 -34 41.5 -76l44.5 -88q3 -7 6 -13l6 -12l61 90.5l57 85.5l11 15q7 11 19 13.5t23 -5.5q10 -7 12.5 -18.5t-4.5 -22.5z" />
    <glyph glyph-name="w" unicode="w" horiz-adv-x="482" 
d="M358 -2q-9 0 -20 5.5t-22 22.5q-9 13 -19 44q-8 25 -15.5 56t-14.5 63l-12 51.5t-12 46.5l-5.5 16t-4.5 12q-2 -5 -4.5 -13.5l-5.5 -19.5q-5 -23 -10 -50.5l-10 -55.5q-5 -29 -10.5 -56t-10.5 -49l-7 -22.5t-7 -17.5q-15 -27 -38 -30q-6 0 -15 2t-18 13q-7 7 -13 21
q-5 10 -8.5 23.5l-8.5 31.5q-6 28 -12.5 66.5t-13.5 87.5l-9.5 81t-7.5 71l-5 50.5l-2 19.5q-1 13 7 22t21 11q12 1 21.5 -7t10.5 -21l1.5 -17l4 -44t6.5 -62.5t9 -72.5q5 -45 11 -81l11 -64l3.5 -17.5t3.5 -14.5q5 18 8.5 40.5t8.5 46.5q5 34 11.5 67.5t14.5 60.5
q5 16 9.5 28t10.5 20q13 21 27 25.5t22 3.5q23 -2 35.5 -24.5t21.5 -49.5q8 -24 15 -54.5l14 -61.5l12 -51.5t13 -47.5q2 -6 3 -10.5t3 -9.5q6 22 14 66.5t17 125.5l7.5 73.5l6 63t3.5 44.5l1 17q2 13 11 21t21 7q13 -1 21 -10t7 -22l-1.5 -19.5l-4 -50.5l-6 -71t-8.5 -81
q-6 -49 -12.5 -87.5t-12.5 -67.5l-8.5 -31.5t-8.5 -24.5q-3 -7 -12.5 -21.5t-29.5 -16.5h-3z" />
    <glyph glyph-name="u" unicode="u" 
d="M142 -2q-36 0 -62 28q-57 61 -61 265q-1 36 0 69t2.5 58.5t2.5 41t1 16.5q2 13 11.5 21t21.5 6q13 -1 21 -10.5t6 -21.5l-1 -15t-2.5 -40t-2.5 -57t0 -67q1 -59 6 -99t12 -66t14 -40t13 -20t10.5 -7.5t8.5 -1.5q15 0 35 23q23 28 43 83t35 132q5 21 8 41t5 38v30
q-1 18 -0.5 31t0.5 23q1 14 3.5 26t13.5 20q14 9 31 1q14 -7 16.5 -21.5t2.5 -25.5q1 -10 0 -23t-3 -29q-1 -9 -1.5 -17.5t-2.5 -17.5q1 -25 2.5 -57.5l3.5 -76.5q1 -39 3 -75.5l3.5 -65l2.5 -46l1 -17.5q1 -13 -7 -22t-21 -10q-12 -1 -21 7t-10 21q0 1 -2.5 34.5t-4.5 84.5
q-6 -17 -12.5 -32t-13.5 -29q-45 -88 -109 -90h-2z" />
    <glyph glyph-name="v" unicode="v" 
d="M166 2q-31 0 -58 25q-35 33 -57 114q-8 30 -14 67t-11 80q-4 36 -6.5 69t-3.5 58.5t-1 41v16.5q0 13 8.5 21.5t21.5 8.5t21.5 -8.5t8.5 -21.5q0 -26 1 -55q1 -25 3 -57t6 -67q6 -59 14.5 -99t17.5 -66t17.5 -39.5t14.5 -19.5q6 -5 10.5 -6.5t7.5 -1.5q18 1 32.5 18.5
t23.5 35.5q13 25 23.5 60.5t19.5 80.5q8 39 13 76.5t7.5 67.5t3.5 48.5l1 18.5q0 12 9 20.5t22 7.5q12 0 20.5 -9t8.5 -22q0 -2 -1 -21t-4 -49.5t-8 -69t-13 -79.5q-20 -100 -49 -157q-42 -84 -106 -87h-4z" />
    <glyph glyph-name="q" unicode="q" horiz-adv-x="390" 
d="M323 -250h-7q-4 1 -11.5 5.5t-12.5 17.5q-1 2 -1 4.5t-1 6.5q-1 5 -1.5 11t-0.5 14q-1 28 0 80q0 43 2 102t5 134q0 11 0.5 22t0.5 22q-9 89 -26.5 151t-41.5 94q-14 18 -25.5 22.5t-19.5 3.5q-19 -1 -34 -9t-26 -19.5t-19 -24.5t-12 -23q-15 -31 -21 -67t-3.5 -71.5
t12.5 -67t28 -53.5q47 -59 133 -41q12 2 22.5 -4.5t12.5 -19.5q3 -12 -4 -22.5t-19 -12.5q-64 -12 -112 5q-47 16 -80 57q-48 62 -53 157q-3 44 4.5 86.5t24.5 78.5q11 24 25 43t31 33q40 34 87 35q38 1 70 -23q25 -20 47 -60q4 -10 10 -20q1 16 1 28.5t1 21.5q0 11 1 19
q1 13 10 21.5t21 7.5q13 -1 21.5 -10t7.5 -22l-1 -24.5t-3 -65l-4.5 -93t-5.5 -109.5q4 -35 6 -69.5t3 -65.5q2 -45 1 -90.5t-3 -85.5q-2 -31 -3.5 -49.5t-4 -28.5t-4.5 -14t-4 -6q-9 -12 -24 -12z" />
    <glyph glyph-name="c" unicode="c" horiz-adv-x="378" 
d="M238 5q-34 0 -62 7q-71 19 -113 68q-50 61 -50 155q0 110 55 182q25 32 56.5 52t66.5 25q47 6 83 -18q39 -25 51 -75q3 -12 -3 -22.5t-18 -14.5q-12 -3 -23 3.5t-14 18.5q-7 26 -25 39t-44 9q-22 -2 -43.5 -16t-38.5 -37q-15 -20 -29 -55t-14 -91q0 -40 10 -68.5
t26 -47.5t35.5 -30t38.5 -16q42 -12 83 -6q20 4 29 9t11 7q5 11 17 14.5t23 -2.5t14.5 -18t-1.5 -23q-19 -33 -76 -45q-20 -4 -45 -4z" />
    <glyph glyph-name="o" unicode="o" horiz-adv-x="400" 
d="M188 5q-77 0 -123 54q-33 41 -45 103q-5 27 -4.5 57t5.5 61q7 42 22 80t37 67q52 71 125 71h4q69 -3 117 -66q20 -26 33.5 -60t19.5 -73q5 -31 4.5 -62t-5.5 -60q-12 -65 -49 -108q-25 -30 -59 -46.5t-76 -17.5h-6zM205 438q-26 0 -45.5 -15.5t-31.5 -31.5
q-36 -48 -48 -121q-8 -53 0 -99t31 -73q28 -33 77 -33h4q58 2 91 42q26 31 35.5 80t1.5 103q-5 27 -14.5 53t-23.5 47t-33 34t-42 14h-2z" />
    <glyph glyph-name="j" unicode="j" horiz-adv-x="128" 
d="M106 384q3 -63 5.5 -149.5t-5.5 -176.5q-9 -103 -33 -171q-29 -87 -81 -126q-8 -6 -18 -6q-15 0 -24 12q-8 10 -6.5 22t12.5 20q37 28 60 97q11 32 18 71t12 86q4 43 5 86.5t0.5 85t-2.5 79t-3 67.5q-2 35 -2.5 54.5t0.5 29.5q2 12 11.5 20t22.5 6q12 -2 20 -11.5
t6 -22.5q-1 -6 -0.5 -27t2.5 -46zM43 547q-10 14 -13 27q-1 7 -1.5 13t0.5 13q2 11 3.5 21t6.5 20q3 11 12 17q11 6 22 3q10 -3 17 -13.5t3 -21.5q-3 -7 -4.5 -13.5t-3.5 -13.5q0 -3 -0.5 -6.5t0.5 -6.5v-2q1 -1 1.5 -2t-1.5 1q6 -8 6 -16q0 -10 -8 -20q-10 -8 -20 -8
q-5 0 -11 2t-9 6zM83 585l1 -1v1h-1z" />
    <glyph glyph-name="k" unicode="k" horiz-adv-x="421" 
d="M412 54q6 -11 3 -23t-14 -18q-23 -13 -51 -13h-8t-8 1q-30 4 -65 24q-24 14 -47.5 34t-44.5 41t-38 41.5l-29 35.5q-7 8 -13 16.5l-12 16.5q-2 -51 -3.5 -96t-3.5 -82q0 -12 -9 -20.5t-21 -8.5h-1q-12 1 -20.5 10t-8.5 22l4.5 106t4.5 126t3.5 133.5t2 128t-1 109.5
t-5.5 78q-2 13 6 22.5t20 11.5q13 2 22.5 -6t11.5 -20q3 -24 4.5 -60.5t2 -81.5t-0.5 -96l-2 -104l48 37l66 50l50.5 38l37.5 29q9 8 21.5 7t20.5 -10q8 -10 7 -22.5t-11 -20.5q-14 -12 -38 -30.5l-52 -38.5l-51 -38.5l-47 -36.5q-20 -16 -30.5 -25.5t-15.5 -14.5
q7 -14 26.5 -43.5t49.5 -67.5q41 -50 78.5 -83t69.5 -45q30 -13 51 -2q11 6 23 3t18 -14z" />
    <glyph glyph-name="d" unicode="d" horiz-adv-x="427" 
d="M228 -1q-49 0 -91 17q-61 24 -94 83q-22 38 -29.5 85.5t-0.5 99.5q6 49 23.5 91.5t43.5 72.5q30 35 67 45.5t74 -4.5q70 -28 117 -109v1q1 64 3 125.5t3 110t2 78.5l1 30q1 13 10 21.5t22 7.5q12 0 20.5 -9t7.5 -22l-1 -28t-2 -73t-3 -103.5t-3 -119.5q-2 -60 -2.5 -106
t-0.5 -82q3 -18 5 -34.5t3 -30.5q5 -46 3 -83q-1 -27 -5 -39.5t-14 -19.5q-17 -10 -33 -1q-11 7 -13.5 16.5t-3.5 15.5q0 5 -0.5 11t-1.5 14q0 14 -0.5 35t-0.5 47v30t1 34q-2 6 -3 12t-3 13q-6 28 -16.5 59t-26 58.5t-37 50t-50.5 34.5q-39 15 -74 -25q-20 -23 -34 -57.5
t-19 -73t0 -78t23 -70.5q51 -89 188 -65q12 2 22.5 -4.5t12.5 -19.5q2 -12 -5 -22.5t-19 -12.5q-35 -6 -66 -6z" />
    <glyph glyph-name="grave" unicode="`" horiz-adv-x="160" 
d="M122 540q-10 0 -19 7q-26 21 -46.5 43.5t-40.5 49.5q-8 10 -6 22t12 20q11 7 23 5t19 -12q17 -23 35.5 -43t41.5 -38q10 -8 11 -20.5t-7 -22.5q-9 -11 -23 -11z" />
    <glyph glyph-name="acute" unicode="&#xb4;" horiz-adv-x="160" 
d="M38 540q-14 0 -23 11q-8 10 -7 22.5t11 20.5q23 18 41.5 38t35.5 43q7 10 19 12t23 -5q10 -8 12 -20t-6 -22q-20 -27 -40.5 -49.5t-46.5 -43.5q-9 -7 -19 -7z" />
    <glyph glyph-name="ae" unicode="&#xe6;" horiz-adv-x="639" 
d="M604 89q11 -6 14.5 -18t-1.5 -23q-19 -33 -71 -45q-11 -3 -22.5 -4t-22.5 -1q-29 0 -54 6q-67 16 -109 69q-17 21 -28 48q-17 -38 -37 -62t-41 -37.5t-42 -18.5t-39 -5h-1q-36 0 -64 19t-45 54q-16 32 -20.5 74.5t2.5 90.5q8 48 26 91.5t44 78.5q43 56 101 79t124 10
q12 -3 19 -13t4 -23q-2 -12 -12.5 -19t-22.5 -4q-31 6 -56.5 2t-45.5 -14.5t-36 -24.5t-27 -29q-23 -29 -37.5 -65.5t-20.5 -77.5q-6 -38 -2.5 -72t14.5 -58q19 -39 55 -39h1q45 0 76 41q21 26 36.5 68t24.5 96q6 42 7 73.5t-1 42.5v1q-7 11 -4 23t14 18q8 5 18 4.5t18 -6.5
l3 -3l2 2q25 33 57 53t67 25q23 3 44.5 -2t38.5 -16q38 -25 52 -77v-2q9 -59 -10 -106q-17 -46 -55 -75q-34 -27 -76 -35q-41 -9 -82 7q-11 5 -16 16t0 23q5 11 16 16t23 0q23 -9 49 -3.5t49 23.5q26 21 37.5 53t5.5 70q-7 26 -25 39t-44 9q-23 -2 -44.5 -16.5t-38.5 -37.5
q-15 -20 -29.5 -56.5t-14.5 -93.5q0 -46 11.5 -77t28.5 -50t36.5 -28.5t35.5 -13.5q38 -10 72 -2q16 4 22.5 8.5t7.5 6.5q6 11 18 14.5t23 -1.5z" />
    <glyph glyph-name="oe" unicode="&#x153;" horiz-adv-x="599" 
d="M563 90q11 -6 14.5 -17.5t-2.5 -22.5q-17 -33 -70 -46q-23 -5 -46 -5q-13 0 -26.5 1.5t-26.5 5.5q-49 12 -86 44q-48 -48 -123 -51h-6q-46 0 -82 21q-34 19 -58 58q-19 32 -27 73t-4 87q3 44 15.5 85t32.5 76q28 47 65 71t79 22q62 -2 107 -54q48 51 109 59q47 6 83 -18
q38 -26 52 -76v-3q9 -58 -10 -106q-17 -45 -55 -75q-34 -27 -76 -35q-21 -4 -42 -2.5t-40 9.5q-11 5 -16 16.5t0 22.5q5 12 16 17t23 0q23 -9 49 -4t49 23q26 21 37.5 53t5.5 70q-14 55 -69 49q-23 -3 -44.5 -17t-38.5 -37q-15 -20 -29.5 -56.5t-14.5 -93.5
q0 -47 11.5 -77.5t28.5 -50t36.5 -29t35.5 -13.5q18 -5 36.5 -5t35.5 4q16 4 22.5 8.5t7.5 6.5q6 11 18 14.5t23 -2.5zM195 59q53 1 87 37q-34 56 -34 138q0 88 35 153q-11 15 -29 29.5t-44 15.5q-17 1 -31 -5.5t-25.5 -16.5t-20 -21.5t-13.5 -20.5q-17 -28 -27.5 -63
t-12.5 -71q-6 -77 23 -125q29 -51 92 -50z" />
    <glyph glyph-name="circumflex" unicode="&#x2c6;" horiz-adv-x="266" 
d="M222 529q-15 0 -25 13l-3 4l-18 25.5t-21 27.5t-17 19t-10 9q-2 -2 -4.5 -5t-7.5 -8l-25 -36l-11.5 -17l-10.5 -15q-8 -10 -20 -11.5t-22 6.5t-12 20t6 22t20 28q20 30 39.5 53.5t45.5 24.5q25 2 52 -25.5t65 -82.5l3 -4q8 -11 6 -23t-13 -19q-8 -6 -17 -6z" />
    <glyph glyph-name="tilde" unicode="&#x2dc;" horiz-adv-x="287" 
d="M219 542q-20 0 -40.5 10.5t-40.5 24.5q-9 6 -18.5 11.5t-18.5 9.5q-12 6 -16 6q-2 -2 -3 -9.5t-2 -22.5q0 -13 -8.5 -21.5t-20.5 -8.5h-1q-12 0 -21 9t-8 21q0 22 6 47.5t29 38.5q19 10 37.5 5.5t26.5 -7.5q12 -5 25 -13l25 -16q9 -5 17 -10t16 -9q3 -2 5.5 -3t4.5 -2
q1 4 1.5 10.5t-0.5 16.5q-1 13 7 22t21 10t22 -7.5t10 -20.5q1 -21 -3 -46.5t-26 -38.5q-11 -7 -26 -7z" />
    <glyph glyph-name="dieresis" unicode="&#xa8;" horiz-adv-x="201" 
d="M125 615q11 13 28 13q13 0 21.5 -8.5t8.5 -21.5q0 -11 -6 -18q0 -3 2 -7q3 -12 -3.5 -23t-18.5 -14q-2 0 -4 -0.5t-4 -0.5q-22 0 -29 23q0 1 -1 5.5t-2 11.5q-1 8 0 19t8 21zM27 615q11 13 28 13q13 0 21.5 -8.5t8.5 -21.5q0 -11 -6 -18q0 -3 2 -7q3 -12 -3.5 -23
t-18.5 -14q-2 0 -4 -0.5t-4 -0.5q-22 0 -29 23q0 1 -1 5.5t-2 11.5q-1 8 0 19t8 21z" />
    <glyph glyph-name="macron" unicode="&#xaf;" horiz-adv-x="339" 
d="M178 564q-29 0 -62 2t-71 7q-13 2 -20.5 11.5t-5.5 21.5q2 13 11.5 20.5t21.5 5.5q81 -10 136.5 -8t98.5 7q12 1 21.5 -6.5t11.5 -20.5q2 -12 -6 -21.5t-20 -11.5q-26 -3 -54 -5t-62 -2z" />
    <glyph glyph-name="cedilla" unicode="&#xb8;" horiz-adv-x="176" 
d="M69 -224h-11t-12 1q-12 2 -20 11.5t-6 21.5q2 13 11.5 21t21.5 6q25 -3 36.5 1.5t14.5 7.5q5 5 4 11q0 4 -5 9q-15 11 -48 5q-13 -3 -25 7t-10 25l2 23q1 10 1.5 22t1.5 25q1 12 9.5 20.5t21.5 7.5q12 -1 21 -10t8 -21q0 -10 -1 -19.5t-2 -17.5q35 -2 58 -20
q26 -20 28 -52q3 -33 -23 -59q-10 -9 -28.5 -17.5t-47.5 -8.5z" />
    <glyph glyph-name="quotesinglbase" unicode="&#x201a;" horiz-adv-x="137" 
d="M122 46q2 -18 1 -35.5t-5 -34.5q-11 -41 -39 -69q-9 -9 -21 -9q-11 0 -21 8q-9 9 -9 21.5t8 21.5q18 18 23 38.5t4 37.5v4q-38 13 -47 50q-4 17 0.5 32t16.5 23q10 8 22.5 8t23.5 -7q20 -12 30 -39t13 -50z" />
    <glyph glyph-name="quotedblbase" unicode="&#x201e;" horiz-adv-x="276" 
d="M127 46q2 -18 1 -35.5t-5 -34.5q-11 -41 -39 -69q-9 -9 -21 -9q-11 0 -21 8q-9 9 -9 21.5t8 21.5q18 18 23 38.5t4 37.5v4q-38 13 -47 50q-4 17 0.5 32t16.5 23q10 8 22.5 8t23.5 -7q20 -12 30 -39t13 -50zM257 46q2 -18 1 -35.5t-5 -34.5q-11 -41 -39 -69q-9 -9 -21 -9
q-11 0 -21 8q-9 9 -9 21.5t8 21.5q18 18 23 38.5t4 37.5v4q-38 13 -47 50q-4 17 0.5 32t16.5 23q10 8 22.5 8t23.5 -7q20 -12 30 -39t13 -50z" />
    <glyph glyph-name="quotedblright" unicode="&#x201d;" horiz-adv-x="276" 
d="M127 542q2 -18 1 -35.5t-5 -34.5q-11 -41 -39 -69q-9 -9 -21 -9q-11 0 -21 8q-9 9 -9 21.5t8 21.5q18 18 23 38.5t4 37.5v4q-38 13 -47 50q-4 17 0.5 32t16.5 23q10 8 22.5 8t23.5 -7q20 -12 30 -39t13 -50zM257 542q2 -18 1 -35.5t-5 -34.5q-11 -41 -39 -69
q-9 -9 -21 -9q-11 0 -21 8q-9 9 -9 21.5t8 21.5q18 18 23 38.5t4 37.5v4q-38 13 -47 50q-4 17 0.5 32t16.5 23q10 8 22.5 8t23.5 -7q20 -12 30 -39t13 -50z" />
    <glyph glyph-name="quotedblleft" unicode="&#x201c;" horiz-adv-x="275" 
d="M149 492q-2 18 -1 35.5t5 34.5q10 40 39 69q9 9 21 9q11 0 21 -8q9 -9 9 -21.5t-8 -21.5q-18 -18 -23 -38.5t-4 -37.5v-4q38 -13 47 -50q4 -17 -0.5 -32t-16.5 -23q-10 -8 -22.5 -8t-23.5 7q-20 12 -30 39t-13 50zM19 492q-2 18 -1 35.5t5 34.5q10 40 39 69q9 9 21 9
q11 0 21 -8q9 -9 9 -21.5t-8 -21.5q-18 -18 -23 -38.5t-4 -37.5v-4q38 -13 47 -50q4 -17 -0.5 -32t-16.5 -23q-10 -8 -22.5 -8t-23.5 7q-20 12 -30 39t-13 50z" />
    <glyph glyph-name="quoteright" unicode="&#x2019;" horiz-adv-x="137" 
d="M122 542q2 -18 1 -35.5t-5 -34.5q-11 -41 -39 -69q-9 -9 -21 -9q-11 0 -21 8q-9 9 -9 21.5t8 21.5q18 18 23 38.5t4 37.5v4q-38 13 -47 50q-4 17 0.5 32t16.5 23q10 8 22.5 8t23.5 -7q20 -12 30 -39t13 -50z" />
    <glyph glyph-name="quoteleft" unicode="&#x2018;" horiz-adv-x="136" 
d="M14 492q-2 18 -1 35.5t5 34.5q10 40 39 69q9 9 21 9q11 0 21 -8q9 -9 9 -21.5t-8 -21.5q-18 -18 -23 -38.5t-4 -37.5v-4q38 -13 47 -50q4 -17 -0.5 -32t-16.5 -23q-10 -8 -22.5 -8t-23.5 7q-20 12 -30 39t-13 50z" />
    <glyph glyph-name="oslash" unicode="&#xf8;" horiz-adv-x="400" 
d="M188 5q-28 0 -49 7q-9 -14 -26 -14q-7 0 -14 3q-11 5 -15 16.5t1 21.5q-11 9 -20 20q-33 41 -45 103q-5 27 -4.5 57t5.5 61q7 42 22 80t37 67q52 71 125 71h4l18.5 -2t18.5 -4q11 13 31 8q11 -4 16.5 -15t2.5 -22q8 -7 15 -14.5l15 -16.5q20 -26 33.5 -60t19.5 -73
q5 -31 4.5 -62t-5.5 -60q-12 -65 -49 -108q-25 -30 -59 -46.5t-76 -17.5h-6zM164 67q6 -2 11.5 -2h12.5h4q58 2 91 42q26 31 35.5 80t1.5 103q-5 29 -16 58t-28 50l-26.5 -86.5t-28 -87.5l-29 -83t-28.5 -74zM205 438q-26 0 -45.5 -15.5t-31.5 -31.5q-36 -48 -48 -121
q-8 -53 0 -99t31 -73q0 -1 1 -1q14 34 28.5 75.5l29 85.5l28.5 89l27 88q-9 3 -18 3h-2z" />
    <glyph glyph-name="comma" unicode="," horiz-adv-x="137" 
d="M122 46q2 -18 1 -35.5t-5 -34.5q-11 -41 -39 -69q-9 -9 -21 -9q-11 0 -21 8q-9 9 -9 21.5t8 21.5q18 18 23 38.5t4 37.5v4q-38 13 -47 50q-4 17 0.5 32t16.5 23q10 8 22.5 8t23.5 -7q20 -12 30 -39t13 -50z" />
    <glyph glyph-name="period" unicode="." horiz-adv-x="97" 
d="M24 80q11 13 28 13t24.5 -13.5t6.5 -30t-8 -31t-19 -17.5q-2 0 -4 -0.5t-4 -0.5q-22 0 -29 23q0 1 -1 5.5t-2 11.5q-1 8 0 19t8 21z" />
    <glyph glyph-name="periodcentered" unicode="&#xb7;" horiz-adv-x="104" 
d="M24 330q11 13 28 13t24.5 -13.5t6.5 -30t-8 -31t-19 -17.5q-2 0 -4 -0.5t-4 -0.5q-22 0 -29 23q0 1 -1 5.5t-2 11.5q-1 8 0 19t8 21z" />
    <glyph glyph-name="agrave" unicode="&#xe0;" horiz-adv-x="402" 
d="M386 46l-2 13.5l-5.5 35.5t-7.5 50l-8 58q-5 32 -7.5 56l-4.5 42q0 6 1 9q1 17 1.5 32.5t-0.5 28.5q-1 17 -4 28.5t-11 18.5q-8 6 -18 7t-18 -4q-13 -8 -15 -21t-2 -23q0 -8 0.5 -19t1.5 -25q1 -7 1.5 -15t2.5 -17q-2 -9 -2.5 -18.5t-2.5 -19.5q-9 -54 -24.5 -96.5
t-36.5 -68.5q-32 -41 -77 -41q-36 0 -55 39q-11 24 -14.5 58t2.5 72q6 41 20.5 77.5t37.5 65.5q11 15 27 29t36 24.5t45.5 14.5t56.5 -2q13 -2 23 5t12 19q3 12 -4 22.5t-19 12.5q-66 13 -124 -9.5t-101 -78.5q-26 -35 -44 -79t-26 -92q-7 -48 -2.5 -90.5t20.5 -74.5
q36 -71 109 -73h1q19 0 40.5 5.5t43 20.5t42 41t37.5 68q6 -41 10.5 -68t4.5 -28q2 -12 12 -19.5t22 -5.5t19.5 12t5.5 23zM242 540q-10 0 -19 7q-26 21 -46.5 43.5t-40.5 49.5q-8 10 -6 22t12 20q11 7 23 5t19 -12q17 -23 35.5 -43t41.5 -38q10 -8 11 -20.5t-7 -22.5
q-9 -11 -23 -11z" />
    <glyph glyph-name="aacute" unicode="&#xe1;" horiz-adv-x="402" 
d="M386 46q2 -13 -5.5 -23t-19.5 -12t-22 5.5t-12 19.5q0 1 -4.5 28t-10.5 68q-17 -42 -37.5 -68t-42 -41t-43 -20.5t-40.5 -5.5h-1q-73 2 -109 73q-16 32 -20.5 74.5t2.5 90.5q8 48 26 92t44 79q43 56 101 78.5t124 9.5q12 -2 19 -12.5t4 -22.5q-2 -12 -12 -19t-23 -5
q-31 6 -56.5 2t-45.5 -14.5t-36 -24.5t-27 -29q-23 -29 -37.5 -65.5t-20.5 -77.5q-6 -38 -2.5 -72t14.5 -58q19 -39 55 -39q45 0 77 41q21 26 36.5 68.5t24.5 96.5q2 10 2.5 19.5t2.5 18.5q-2 9 -2.5 17t-1.5 15q-1 14 -1.5 25t-0.5 19q0 10 2 23t15 21q8 5 18 4t18 -7
q8 -7 11 -18.5t4 -28.5q1 -13 0.5 -28.5t-1.5 -32.5q-1 -3 -1 -9l4.5 -42t7.5 -56l8 -58t7.5 -50l5.5 -35.5zM159 540q-14 0 -23 11q-8 10 -7 22.5t11 20.5q23 18 41.5 38t35.5 43q7 10 19 12t23 -5q10 -8 12 -20t-6 -22q-20 -27 -40.5 -49.5t-46.5 -43.5q-9 -7 -19 -7z" />
    <glyph glyph-name="acircumflex" unicode="&#xe2;" horiz-adv-x="402" 
d="M386 46l-2 13.5l-5.5 35.5t-7.5 50l-8 58q-5 32 -7.5 56l-4.5 42q0 6 1 9q1 17 1.5 32.5t-0.5 28.5q-1 17 -4 28.5t-11 18.5q-8 6 -18 7t-18 -4q-13 -8 -15 -21t-2 -23q0 -8 0.5 -19t1.5 -25q1 -7 1.5 -15t2.5 -17q-2 -9 -2.5 -18.5t-2.5 -19.5q-9 -54 -24.5 -96.5
t-36.5 -68.5q-32 -41 -77 -41q-36 0 -55 39q-11 24 -14.5 58t2.5 72q6 41 20.5 77.5t37.5 65.5q11 15 27 29t36 24.5t45.5 14.5t56.5 -2q13 -2 23 5t12 19q3 12 -4 22.5t-19 12.5q-66 13 -124 -9.5t-101 -78.5q-26 -35 -44 -79t-26 -92q-7 -48 -2.5 -90.5t20.5 -74.5
q36 -71 109 -73h1q19 0 40.5 5.5t43 20.5t42 41t37.5 68q6 -41 10.5 -68t4.5 -28q2 -12 12 -19.5t22 -5.5t19.5 12t5.5 23zM289 529q-15 0 -25 13l-3 4l-18 25.5t-21 27.5t-17 19t-10 9q-2 -2 -4.5 -5t-7.5 -8l-25 -36l-11.5 -17l-10.5 -15q-8 -10 -20 -11.5t-22 6.5t-12 20
t6 22t20 28q20 30 39.5 53.5t45.5 24.5q25 2 52 -25.5t65 -82.5l3 -4q8 -11 6 -23t-13 -19q-8 -6 -17 -6z" />
    <glyph glyph-name="atilde" unicode="&#xe3;" horiz-adv-x="402" 
d="M386 46l-2 13.5l-5.5 35.5t-7.5 50l-8 58q-5 32 -7.5 56l-4.5 42q0 6 1 9q1 17 1.5 32.5t-0.5 28.5q-1 17 -4 28.5t-11 18.5q-8 6 -18 7t-18 -4q-13 -8 -15 -21t-2 -23q0 -8 0.5 -19t1.5 -25q1 -7 1.5 -15t2.5 -17q-2 -9 -2.5 -18.5t-2.5 -19.5q-9 -54 -24.5 -96.5
t-36.5 -68.5q-32 -41 -77 -41q-36 0 -55 39q-11 24 -14.5 58t2.5 72q6 41 20.5 77.5t37.5 65.5q11 15 27 29t36 24.5t45.5 14.5t56.5 -2q13 -2 23 5t12 19q3 12 -4 22.5t-19 12.5q-66 13 -124 -9.5t-101 -78.5q-26 -35 -44 -79t-26 -92q-7 -48 -2.5 -90.5t20.5 -74.5
q36 -71 109 -73h1q19 0 40.5 5.5t43 20.5t42 41t37.5 68q6 -41 10.5 -68t4.5 -28q2 -12 12 -19.5t22 -5.5t19.5 12t5.5 23zM272 542q-20 0 -40.5 10.5t-40.5 24.5q-9 6 -18.5 11.5t-18.5 9.5q-12 6 -16 6q-2 -2 -3 -9.5t-2 -22.5q0 -13 -8.5 -21.5t-20.5 -8.5h-1
q-12 0 -21 9t-8 21q0 22 6 47.5t29 38.5q19 10 37.5 5.5t26.5 -7.5q12 -5 25 -13l25 -16q9 -5 17 -10t16 -9q3 -2 5.5 -3t4.5 -2q1 4 1.5 10.5t-0.5 16.5q-1 13 7 22t21 10t22 -7.5t10 -20.5q1 -21 -3 -46.5t-26 -38.5q-11 -7 -26 -7z" />
    <glyph glyph-name="adieresis" unicode="&#xe4;" horiz-adv-x="402" 
d="M386 46l-2 13.5l-5.5 35.5t-7.5 50l-8 58q-5 32 -7.5 56l-4.5 42q0 6 1 9q1 17 1.5 32.5t-0.5 28.5q-1 17 -4 28.5t-11 18.5q-8 6 -18 7t-18 -4q-13 -8 -15 -21t-2 -23q0 -8 0.5 -19t1.5 -25q1 -7 1.5 -15t2.5 -17q-2 -9 -2.5 -18.5t-2.5 -19.5q-9 -54 -24.5 -96.5
t-36.5 -68.5q-32 -41 -77 -41q-36 0 -55 39q-11 24 -14.5 58t2.5 72q6 41 20.5 77.5t37.5 65.5q11 15 27 29t36 24.5t45.5 14.5t56.5 -2q13 -2 23 5t12 19q3 12 -4 22.5t-19 12.5q-66 13 -124 -9.5t-101 -78.5q-26 -35 -44 -79t-26 -92q-7 -48 -2.5 -90.5t20.5 -74.5
q36 -71 109 -73h1q19 0 40.5 5.5t43 20.5t42 41t37.5 68q6 -41 10.5 -68t4.5 -28q2 -12 12 -19.5t22 -5.5t19.5 12t5.5 23zM127 615q11 13 28 13q13 0 21.5 -8.5t8.5 -21.5q0 -11 -6 -18q0 -3 2 -7q3 -12 -3.5 -23t-18.5 -14q-2 0 -4 -0.5t-4 -0.5q-22 0 -29 23q0 1 -1 5.5
t-2 11.5q-1 8 0 19t8 21zM225 615q11 13 28 13q13 0 21.5 -8.5t8.5 -21.5q0 -11 -6 -18q0 -3 2 -7q3 -12 -3.5 -23t-18.5 -14q-2 0 -4 -0.5t-4 -0.5q-22 0 -29 23q0 1 -1 5.5t-2 11.5q-1 8 0 19t8 21z" />
    <glyph glyph-name="aring" unicode="&#xe5;" horiz-adv-x="402" 
d="M386 46l-2 13.5l-5.5 35.5t-7.5 50l-8 58q-5 32 -7.5 56l-4.5 42q0 6 1 9q1 17 1.5 32.5t-0.5 28.5q-1 17 -4 28.5t-11 18.5q-8 6 -18 7t-18 -4q-13 -8 -15 -21t-2 -23q0 -8 0.5 -19t1.5 -25q1 -7 1.5 -15t2.5 -17q-2 -9 -2.5 -18.5t-2.5 -19.5q-9 -54 -24.5 -96.5
t-36.5 -68.5q-32 -41 -77 -41q-36 0 -55 39q-11 24 -14.5 58t2.5 72q6 41 20.5 77.5t37.5 65.5q11 15 27 29t36 24.5t45.5 14.5t56.5 -2q13 -2 23 5t12 19q3 12 -4 22.5t-19 12.5q-66 13 -124 -9.5t-101 -78.5q-26 -35 -44 -79t-26 -92q-7 -48 -2.5 -90.5t20.5 -74.5
q36 -71 109 -73h1q19 0 40.5 5.5t43 20.5t42 41t37.5 68q6 -41 10.5 -68t4.5 -28q2 -12 12 -19.5t22 -5.5t19.5 12t5.5 23zM202 503q-27 0 -46 17t-24 46t10 56q15 29 49 39q5 2 10 3t10 1q27 0 47 -20.5t23 -51.5q3 -28 -12 -54q-17 -28 -50 -34q-5 -1 -9 -1.5t-8 -0.5z
M211 615q-2 0 -3 -0.5t-3 -0.5q-16 -5 -20.5 -18t-2.5 -23q1 -7 5 -13.5t15 -6.5q2 0 3.5 0.5t3.5 0.5q17 4 20 16.5t2 17.5q-1 10 -6.5 18.5t-13.5 8.5z" />
    <glyph glyph-name="egrave" unicode="&#xe8;" horiz-adv-x="363" 
d="M225 1q-27 0 -54 6q-68 17 -109 69q-49 63 -48 159q0 111 55 186q25 33 57 53t67 25q46 6 84 -18q39 -27 51 -77q1 -1 1 -2q9 -59 -10 -106q-18 -46 -55 -75q-35 -27 -76 -35q-43 -9 -82 7q-12 5 -17 16t0 23q5 11 16.5 16.5t22.5 0.5q23 -10 49.5 -4.5t48.5 23.5
q27 21 38 53t6 70q-8 26 -25.5 39t-43.5 9q-23 -2 -45 -16.5t-39 -37.5q-15 -20 -29 -56.5t-15 -93.5q0 -46 11.5 -77t29 -50t37 -28.5t35.5 -13.5q37 -10 71 -2q17 4 23.5 8.5t7.5 6.5q6 11 17.5 14.5t22.5 -1.5q11 -6 15 -18t-2 -23q-17 -33 -70 -45q-11 -3 -22.5 -4
t-23.5 -1zM223 540q-10 0 -19 7q-26 21 -46.5 43.5t-40.5 49.5q-8 10 -6 22t12 20q11 7 23 5t19 -12q17 -23 35.5 -43t41.5 -38q10 -8 11 -20.5t-7 -22.5q-9 -11 -23 -11z" />
    <glyph glyph-name="eacute" unicode="&#xe9;" horiz-adv-x="363" 
d="M225 1q-27 0 -54 6q-68 17 -109 69q-49 63 -48 159q0 111 55 186q25 33 57 53t67 25q46 6 84 -18q39 -27 51 -77q1 -1 1 -2q9 -59 -10 -106q-18 -46 -55 -75q-35 -27 -76 -35q-43 -9 -82 7q-12 5 -17 16t0 23q5 11 16.5 16.5t22.5 0.5q23 -10 49.5 -4.5t48.5 23.5
q27 21 38 53t6 70q-8 26 -25.5 39t-43.5 9q-23 -2 -45 -16.5t-39 -37.5q-15 -20 -29 -56.5t-15 -93.5q0 -46 11.5 -77t29 -50t37 -28.5t35.5 -13.5q37 -10 71 -2q17 4 23.5 8.5t7.5 6.5q6 11 17.5 14.5t22.5 -1.5q11 -6 15 -18t-2 -23q-17 -33 -70 -45q-11 -3 -22.5 -4
t-23.5 -1zM140 540q-14 0 -23 11q-8 10 -7 22.5t11 20.5q23 18 41.5 38t35.5 43q7 10 19 12t23 -5q10 -8 12 -20t-6 -22q-20 -27 -40.5 -49.5t-46.5 -43.5q-9 -7 -19 -7z" />
    <glyph glyph-name="edieresis" unicode="&#xeb;" horiz-adv-x="363" 
d="M225 1q-27 0 -54 6q-68 17 -109 69q-49 63 -48 159q0 111 55 186q25 33 57 53t67 25q46 6 84 -18q39 -27 51 -77q1 -1 1 -2q9 -59 -10 -106q-18 -46 -55 -75q-35 -27 -76 -35q-43 -9 -82 7q-12 5 -17 16t0 23q5 11 16.5 16.5t22.5 0.5q23 -10 49.5 -4.5t48.5 23.5
q27 21 38 53t6 70q-8 26 -25.5 39t-43.5 9q-23 -2 -45 -16.5t-39 -37.5q-15 -20 -29 -56.5t-15 -93.5q0 -46 11.5 -77t29 -50t37 -28.5t35.5 -13.5q37 -10 71 -2q17 4 23.5 8.5t7.5 6.5q6 11 17.5 14.5t22.5 -1.5q11 -6 15 -18t-2 -23q-17 -33 -70 -45q-11 -3 -22.5 -4
t-23.5 -1zM206 615q11 13 28 13q13 0 21.5 -8.5t8.5 -21.5q0 -11 -6 -18q0 -3 2 -7q3 -12 -3.5 -23t-18.5 -14q-2 0 -4 -0.5t-4 -0.5q-22 0 -29 23q0 1 -1 5.5t-2 11.5q-1 8 0 19t8 21zM108 615q11 13 28 13q13 0 21.5 -8.5t8.5 -21.5q0 -11 -6 -18q0 -3 2 -7
q3 -12 -3.5 -23t-18.5 -14q-2 0 -4 -0.5t-4 -0.5q-22 0 -29 23q0 1 -1 5.5t-2 11.5q-1 8 0 19t8 21z" />
    <glyph glyph-name="ecircumflex" unicode="&#xea;" horiz-adv-x="363" 
d="M225 1q-27 0 -54 6q-68 17 -109 69q-49 63 -48 159q0 111 55 186q25 33 57 53t67 25q46 6 84 -18q39 -27 51 -77q1 -1 1 -2q9 -59 -10 -106q-18 -46 -55 -75q-35 -27 -76 -35q-43 -9 -82 7q-12 5 -17 16t0 23q5 11 16.5 16.5t22.5 0.5q23 -10 49.5 -4.5t48.5 23.5
q27 21 38 53t6 70q-8 26 -25.5 39t-43.5 9q-23 -2 -45 -16.5t-39 -37.5q-15 -20 -29 -56.5t-15 -93.5q0 -46 11.5 -77t29 -50t37 -28.5t35.5 -13.5q37 -10 71 -2q17 4 23.5 8.5t7.5 6.5q6 11 17.5 14.5t22.5 -1.5q11 -6 15 -18t-2 -23q-17 -33 -70 -45q-11 -3 -22.5 -4
t-23.5 -1zM270 529q-15 0 -25 13l-3 4l-18 25.5t-21 27.5t-17 19t-10 9q-2 -2 -4.5 -5t-7.5 -8l-25 -36l-11.5 -17l-10.5 -15q-8 -10 -20 -11.5t-22 6.5t-12 20t6 22t20 28q20 30 39.5 53.5t45.5 24.5q25 2 52 -25.5t65 -82.5l3 -4q8 -11 6 -23t-13 -19q-8 -6 -17 -6z" />
    <glyph glyph-name="scaron" unicode="&#x161;" horiz-adv-x="313" 
d="M245 691q9 0 17 -6q11 -7 13 -19t-6 -23l-3 -4q-38 -55 -65 -82.5t-52 -25.5q-26 1 -45.5 24.5t-39.5 53.5q-12 18 -20 28t-6 22t12 20t22 6.5t20 -11.5l10.5 -15l11.5 -17q13 -20 25 -36q5 -5 7.5 -8t4.5 -5q4 3 10 9t17 19t21 27.5l18 25.5l3 4q10 13 25 13zM164 -2
q-5 0 -11 0.5t-11 1.5q-56 9 -92 56q-37 51 -34 130q0 12 9 20.5t22 8.5q12 -1 20.5 -10t8.5 -21q-2 -31 4.5 -53.5t17 -37.5t24.5 -23.5t29 -10.5q23 -4 48 7.5t34 42.5q9 33 -20.5 65.5t-79.5 73.5q-36 29 -66 57.5t-39 62.5q-15 64 26 104q22 22 58 28q35 6 67 -4
q39 -11 67 -40q31 -32 42 -78q3 -12 -3.5 -22.5t-18.5 -13.5t-22.5 3.5t-13.5 18.5q-5 20 -14 33.5t-19 22t-19.5 13t-15.5 6.5q-20 5 -38 2.5t-29 -12.5q-17 -17 -8 -46q4 -20 29.5 -43t54.5 -46l48 -40t42 -43q45 -60 29 -118q-12 -44 -46.5 -69.5t-79.5 -25.5z" />
    <glyph glyph-name="zcaron" unicode="&#x17e;" horiz-adv-x="337" 
d="M174 -1q-67 0 -103 11.5t-47 37.5q-8 19 0.5 42.5t26.5 52.5q15 25 35 53l42 59l42 58.5t37 55.5q17 28 23 42t7 19q-6 4 -26.5 9t-67.5 2q-34 -2 -59.5 -6.5t-26.5 -4.5q-12 -2 -22.5 4.5t-12.5 18.5q-3 12 4 22.5t19 13.5q2 0 29.5 5t64.5 7q110 6 146 -33
q19 -21 9 -60q-7 -20 -27 -56q-17 -30 -41 -64l-49 -68l-37.5 -52t-31.5 -47q-14 -21 -19.5 -33t-7.5 -17q6 -3 29.5 -8t78.5 -4q20 0 38 1t32 3q17 2 31 3q13 2 22.5 -5.5t11.5 -20.5q2 -12 -6 -21.5t-20 -11.5q-1 0 -11 -1.5t-26.5 -2.5t-37 -2.5t-42.5 -1.5h-7zM257 691
q9 0 17 -6q11 -7 13 -19t-6 -23l-3 -4q-38 -55 -65 -82.5t-52 -25.5q-26 1 -45.5 24.5t-39.5 53.5q-12 18 -20 28t-6 22t12 20t22 6.5t20 -11.5l10.5 -15l11.5 -17q13 -20 25 -36q5 -5 7.5 -8t4.5 -5q4 3 10 9t17 19t21 27.5l18 25.5l3 4q10 13 25 13z" />
    <glyph glyph-name="ntilde" unicode="&#xf1;" horiz-adv-x="362" 
d="M337 218q-8 88 -21 146q-17 80 -50 111q-14 13 -27 16.5t-23 2.5q-34 -2 -62 -37q-22 -26 -42 -70q-8 -17 -14 -34l-12 -35q-1 31 -2 58.5t-2 48.5t-1.5 33.5l-0.5 12.5q-1 13 -10 21t-21 8q-13 -1 -21.5 -10t-7.5 -21l0.5 -17.5t1.5 -46t2.5 -64.5t2.5 -75q2 -66 3 -108
t0 -67q-1 -5 -1.5 -10t-1.5 -10q-4 -30 -3 -42.5t7 -20.5q9 -12 24 -12q4 0 6 1q6 1 14.5 6.5t11.5 22.5q1 4 1.5 8t0.5 10q1 8 1 18v23l11 57t16 69q20 77 42 132t43 79q11 12 18 12q1 1 5 -3t10.5 -15t14 -35.5t15 -65t13.5 -102.5q3 -36 4.5 -69t2.5 -58.5t1 -41v-15.5
q0 -13 8.5 -21.5t20.5 -8.5h1q12 0 20.5 8.5t9.5 20.5v17.5t-1 42.5t-3 59.5t-5 70.5zM252 542q-20 0 -40.5 10.5t-40.5 24.5q-9 6 -18.5 11.5t-18.5 9.5q-12 6 -16 6q-2 -2 -3 -9.5t-2 -22.5q0 -13 -8.5 -21.5t-20.5 -8.5h-1q-12 0 -21 9t-8 21q0 22 6 47.5t29 38.5
q19 10 37.5 5.5t26.5 -7.5q12 -5 25 -13l25 -16q9 -5 17 -10t16 -9q3 -2 5.5 -3t4.5 -2q1 4 1.5 10.5t-0.5 16.5q-1 13 7 22t21 10t22 -7.5t10 -20.5q1 -21 -3 -46.5t-26 -38.5q-11 -7 -26 -7z" />
    <glyph glyph-name="ograve" unicode="&#xf2;" horiz-adv-x="400" 
d="M188 5q-77 0 -123 54q-33 41 -45 103q-5 27 -4.5 57t5.5 61q7 42 22 80t37 67q52 71 125 71h4q69 -3 117 -66q20 -26 33.5 -60t19.5 -73q5 -31 4.5 -62t-5.5 -60q-12 -65 -49 -108q-25 -30 -59 -46.5t-76 -17.5h-6zM205 438q-26 0 -45.5 -15.5t-31.5 -31.5
q-36 -48 -48 -121q-8 -53 0 -99t31 -73q28 -33 77 -33h4q58 2 91 42q26 31 35.5 80t1.5 103q-5 27 -14.5 53t-23.5 47t-33 34t-42 14h-2zM241 540q-10 0 -19 7q-26 21 -46.5 43.5t-40.5 49.5q-8 10 -6 22t12 20q11 7 23 5t19 -12q17 -23 35.5 -43t41.5 -38q10 -8 11 -20.5
t-7 -22.5q-9 -11 -23 -11z" />
    <glyph glyph-name="oacute" unicode="&#xf3;" horiz-adv-x="400" 
d="M188 5q-77 0 -123 54q-33 41 -45 103q-5 27 -4.5 57t5.5 61q7 42 22 80t37 67q52 71 125 71h4q69 -3 117 -66q20 -26 33.5 -60t19.5 -73q5 -31 4.5 -62t-5.5 -60q-12 -65 -49 -108q-25 -30 -59 -46.5t-76 -17.5h-6zM205 438q-26 0 -45.5 -15.5t-31.5 -31.5
q-36 -48 -48 -121q-8 -53 0 -99t31 -73q28 -33 77 -33h4q58 2 91 42q26 31 35.5 80t1.5 103q-5 27 -14.5 53t-23.5 47t-33 34t-42 14h-2zM158 540q-14 0 -23 11q-8 10 -7 22.5t11 20.5q23 18 41.5 38t35.5 43q7 10 19 12t23 -5q10 -8 12 -20t-6 -22q-20 -27 -40.5 -49.5
t-46.5 -43.5q-9 -7 -19 -7z" />
    <glyph glyph-name="ocircumflex" unicode="&#xf4;" horiz-adv-x="400" 
d="M188 5q-77 0 -123 54q-33 41 -45 103q-5 27 -4.5 57t5.5 61q7 42 22 80t37 67q52 71 125 71h4q69 -3 117 -66q20 -26 33.5 -60t19.5 -73q5 -31 4.5 -62t-5.5 -60q-12 -65 -49 -108q-25 -30 -59 -46.5t-76 -17.5h-6zM205 438q-26 0 -45.5 -15.5t-31.5 -31.5
q-36 -48 -48 -121q-8 -53 0 -99t31 -73q28 -33 77 -33h4q58 2 91 42q26 31 35.5 80t1.5 103q-5 27 -14.5 53t-23.5 47t-33 34t-42 14h-2zM288 529q-15 0 -25 13l-3 4l-18 25.5t-21 27.5t-17 19t-10 9q-2 -2 -4.5 -5t-7.5 -8l-25 -36l-11.5 -17l-10.5 -15q-8 -10 -20 -11.5
t-22 6.5t-12 20t6 22t20 28q20 30 39.5 53.5t45.5 24.5q25 2 52 -25.5t65 -82.5l3 -4q8 -11 6 -23t-13 -19q-8 -6 -17 -6z" />
    <glyph glyph-name="otilde" unicode="&#xf5;" horiz-adv-x="400" 
d="M188 5q-77 0 -123 54q-33 41 -45 103q-5 27 -4.5 57t5.5 61q7 42 22 80t37 67q52 71 125 71h4q69 -3 117 -66q20 -26 33.5 -60t19.5 -73q5 -31 4.5 -62t-5.5 -60q-12 -65 -49 -108q-25 -30 -59 -46.5t-76 -17.5h-6zM205 438q-26 0 -45.5 -15.5t-31.5 -31.5
q-36 -48 -48 -121q-8 -53 0 -99t31 -73q28 -33 77 -33h4q58 2 91 42q26 31 35.5 80t1.5 103q-5 27 -14.5 53t-23.5 47t-33 34t-42 14h-2zM271 542q-20 0 -40.5 10.5t-40.5 24.5q-9 6 -18.5 11.5t-18.5 9.5q-12 6 -16 6q-2 -2 -3 -9.5t-2 -22.5q0 -13 -8.5 -21.5t-20.5 -8.5
h-1q-12 0 -21 9t-8 21q0 22 6 47.5t29 38.5q19 10 37.5 5.5t26.5 -7.5q12 -5 25 -13l25 -16q9 -5 17 -10t16 -9q3 -2 5.5 -3t4.5 -2q1 4 1.5 10.5t-0.5 16.5q-1 13 7 22t21 10t22 -7.5t10 -20.5q1 -21 -3 -46.5t-26 -38.5q-11 -7 -26 -7z" />
    <glyph glyph-name="odieresis" unicode="&#xf6;" horiz-adv-x="400" 
d="M188 5q-77 0 -123 54q-33 41 -45 103q-5 27 -4.5 57t5.5 61q7 42 22 80t37 67q52 71 125 71h4q69 -3 117 -66q20 -26 33.5 -60t19.5 -73q5 -31 4.5 -62t-5.5 -60q-12 -65 -49 -108q-25 -30 -59 -46.5t-76 -17.5h-6zM205 438q-26 0 -45.5 -15.5t-31.5 -31.5
q-36 -48 -48 -121q-8 -53 0 -99t31 -73q28 -33 77 -33h4q58 2 91 42q26 31 35.5 80t1.5 103q-5 27 -14.5 53t-23.5 47t-33 34t-42 14h-2zM224 615q11 13 28 13q13 0 21.5 -8.5t8.5 -21.5q0 -11 -6 -18q0 -3 2 -7q3 -12 -3.5 -23t-18.5 -14q-2 0 -4 -0.5t-4 -0.5
q-22 0 -29 23q0 1 -1 5.5t-2 11.5q-1 8 0 19t8 21zM126 615q11 13 28 13q13 0 21.5 -8.5t8.5 -21.5q0 -11 -6 -18q0 -3 2 -7q3 -12 -3.5 -23t-18.5 -14q-2 0 -4 -0.5t-4 -0.5q-22 0 -29 23q0 1 -1 5.5t-2 11.5q-1 8 0 19t8 21z" />
    <glyph glyph-name="ugrave" unicode="&#xf9;" 
d="M142 -2q-36 0 -62 28q-57 61 -61 265q-1 36 0 69t2.5 58.5t2.5 41t1 16.5q2 13 11.5 21t21.5 6q13 -1 21 -10.5t6 -21.5l-1 -15t-2.5 -40t-2.5 -57t0 -67q1 -59 6 -99t12 -66t14 -40t13 -20t10.5 -7.5t8.5 -1.5q15 0 35 23q23 28 43 83t35 132q5 21 8 41t5 38v30
q-1 18 -0.5 31t0.5 23q1 14 3.5 26t13.5 20q14 9 31 1q14 -7 16.5 -21.5t2.5 -25.5q1 -10 0 -23t-3 -29q-1 -9 -1.5 -17.5t-2.5 -17.5q1 -25 2.5 -57.5l3.5 -76.5q1 -39 3 -75.5l3.5 -65l2.5 -46l1 -17.5q1 -13 -7 -22t-21 -10q-12 -1 -21 7t-10 21q0 1 -2.5 34.5t-4.5 84.5
q-6 -17 -12.5 -32t-13.5 -29q-45 -88 -109 -90h-2zM223 540q-10 0 -19 7q-26 21 -46.5 43.5t-40.5 49.5q-8 10 -6 22t12 20q11 7 23 5t19 -12q17 -23 35.5 -43t41.5 -38q10 -8 11 -20.5t-7 -22.5q-9 -11 -23 -11z" />
    <glyph glyph-name="uacute" unicode="&#xfa;" 
d="M142 -2q-36 0 -62 28q-57 61 -61 265q-1 36 0 69t2.5 58.5t2.5 41t1 16.5q2 13 11.5 21t21.5 6q13 -1 21 -10.5t6 -21.5l-1 -15t-2.5 -40t-2.5 -57t0 -67q1 -59 6 -99t12 -66t14 -40t13 -20t10.5 -7.5t8.5 -1.5q15 0 35 23q23 28 43 83t35 132q5 21 8 41t5 38v30
q-1 18 -0.5 31t0.5 23q1 14 3.5 26t13.5 20q14 9 31 1q14 -7 16.5 -21.5t2.5 -25.5q1 -10 0 -23t-3 -29q-1 -9 -1.5 -17.5t-2.5 -17.5q1 -25 2.5 -57.5l3.5 -76.5q1 -39 3 -75.5l3.5 -65l2.5 -46l1 -17.5q1 -13 -7 -22t-21 -10q-12 -1 -21 7t-10 21q0 1 -2.5 34.5t-4.5 84.5
q-6 -17 -12.5 -32t-13.5 -29q-45 -88 -109 -90h-2zM140 540q-14 0 -23 11q-8 10 -7 22.5t11 20.5q23 18 41.5 38t35.5 43q7 10 19 12t23 -5q10 -8 12 -20t-6 -22q-20 -27 -40.5 -49.5t-46.5 -43.5q-9 -7 -19 -7z" />
    <glyph glyph-name="ucircumflex" unicode="&#xfb;" 
d="M142 -2q-36 0 -62 28q-57 61 -61 265q-1 36 0 69t2.5 58.5t2.5 41t1 16.5q2 13 11.5 21t21.5 6q13 -1 21 -10.5t6 -21.5l-1 -15t-2.5 -40t-2.5 -57t0 -67q1 -59 6 -99t12 -66t14 -40t13 -20t10.5 -7.5t8.5 -1.5q15 0 35 23q23 28 43 83t35 132q5 21 8 41t5 38v30
q-1 18 -0.5 31t0.5 23q1 14 3.5 26t13.5 20q14 9 31 1q14 -7 16.5 -21.5t2.5 -25.5q1 -10 0 -23t-3 -29q-1 -9 -1.5 -17.5t-2.5 -17.5q1 -25 2.5 -57.5l3.5 -76.5q1 -39 3 -75.5l3.5 -65l2.5 -46l1 -17.5q1 -13 -7 -22t-21 -10q-12 -1 -21 7t-10 21q0 1 -2.5 34.5t-4.5 84.5
q-6 -17 -12.5 -32t-13.5 -29q-45 -88 -109 -90h-2zM270 529q-15 0 -25 13l-3 4l-18 25.5t-21 27.5t-17 19t-10 9q-2 -2 -4.5 -5t-7.5 -8l-25 -36l-11.5 -17l-10.5 -15q-8 -10 -20 -11.5t-22 6.5t-12 20t6 22t20 28q20 30 39.5 53.5t45.5 24.5q25 2 52 -25.5t65 -82.5l3 -4
q8 -11 6 -23t-13 -19q-8 -6 -17 -6z" />
    <glyph glyph-name="udieresis" unicode="&#xfc;" 
d="M142 -2q-36 0 -62 28q-57 61 -61 265q-1 36 0 69t2.5 58.5t2.5 41t1 16.5q2 13 11.5 21t21.5 6q13 -1 21 -10.5t6 -21.5l-1 -15t-2.5 -40t-2.5 -57t0 -67q1 -59 6 -99t12 -66t14 -40t13 -20t10.5 -7.5t8.5 -1.5q15 0 35 23q23 28 43 83t35 132q5 21 8 41t5 38v30
q-1 18 -0.5 31t0.5 23q1 14 3.5 26t13.5 20q14 9 31 1q14 -7 16.5 -21.5t2.5 -25.5q1 -10 0 -23t-3 -29q-1 -9 -1.5 -17.5t-2.5 -17.5q1 -25 2.5 -57.5l3.5 -76.5q1 -39 3 -75.5l3.5 -65l2.5 -46l1 -17.5q1 -13 -7 -22t-21 -10q-12 -1 -21 7t-10 21q0 1 -2.5 34.5t-4.5 84.5
q-6 -17 -12.5 -32t-13.5 -29q-45 -88 -109 -90h-2zM108 615q11 13 28 13q13 0 21.5 -8.5t8.5 -21.5q0 -11 -6 -18q0 -3 2 -7q3 -12 -3.5 -23t-18.5 -14q-2 0 -4 -0.5t-4 -0.5q-22 0 -29 23q0 1 -1 5.5t-2 11.5q-1 8 0 19t8 21zM206 615q11 13 28 13q13 0 21.5 -8.5
t8.5 -21.5q0 -11 -6 -18q0 -3 2 -7q3 -12 -3.5 -23t-18.5 -14q-2 0 -4 -0.5t-4 -0.5q-22 0 -29 23q0 1 -1 5.5t-2 11.5q-1 8 0 19t8 21z" />
    <glyph glyph-name="yacute" unicode="&#xfd;" 
d="M280 -257q-9 0 -17 5q-11 8 -13 19.5t5 22.5q2 2 5.5 14t8.5 47q3 23 5 55t3 71q2 38 2 80.5t-1 84.5q-14 -38 -32 -69q-45 -76 -103 -76h-2q-38 0 -68 33q-34 39 -49 119q-12 61 -15 147q-1 36 -0.5 68.5t2 57.5t2.5 40t1 16q1 13 10.5 21t21.5 7q13 -2 21 -11t7 -22
l-1.5 -14.5t-2.5 -39t-1.5 -56t0.5 -66.5q2 -58 7.5 -98.5t13 -66.5t15 -40.5t13.5 -21.5q8 -9 14 -11t11 -2q15 -1 33 20q23 26 44.5 81t38.5 130l9.5 45t6.5 41v44q0 14 0.5 24t1.5 18q0 7 2 15q3 14 12 20t18 7q18 0 28 -16q4 -6 6 -19t-2 -50q-1 -21 -6 -47
q1 -20 1 -42.5t1 -43.5q1 -71 1.5 -153t-1.5 -156q-2 -59 -5 -98t-7.5 -63.5t-9.5 -37.5t-10 -20q-10 -13 -25 -13zM140 540q-14 0 -23 11q-8 10 -7 22.5t11 20.5q23 18 41.5 38t35.5 43q7 10 19 12t23 -5q10 -8 12 -20t-6 -22q-20 -27 -40.5 -49.5t-46.5 -43.5
q-9 -7 -19 -7z" />
    <glyph glyph-name="ydieresis" unicode="&#xff;" 
d="M280 -257q-9 0 -17 5q-11 8 -13 19.5t5 22.5q2 2 5.5 14t8.5 47q3 23 5 55t3 71q2 38 2 80.5t-1 84.5q-14 -38 -32 -69q-45 -76 -103 -76h-2q-38 0 -68 33q-34 39 -49 119q-12 61 -15 147q-1 36 -0.5 68.5t2 57.5t2.5 40t1 16q1 13 10.5 21t21.5 7q13 -2 21 -11t7 -22
l-1.5 -14.5t-2.5 -39t-1.5 -56t0.5 -66.5q2 -58 7.5 -98.5t13 -66.5t15 -40.5t13.5 -21.5q8 -9 14 -11t11 -2q15 -1 33 20q23 26 44.5 81t38.5 130l9.5 45t6.5 41v44q0 14 0.5 24t1.5 18q0 7 2 15q3 14 12 20t18 7q18 0 28 -16q4 -6 6 -19t-2 -50q-1 -21 -6 -47
q1 -20 1 -42.5t1 -43.5q1 -71 1.5 -153t-1.5 -156q-2 -59 -5 -98t-7.5 -63.5t-9.5 -37.5t-10 -20q-10 -13 -25 -13zM108 615q11 13 28 13q13 0 21.5 -8.5t8.5 -21.5q0 -11 -6 -18q0 -3 2 -7q3 -12 -3.5 -23t-18.5 -14q-2 0 -4 -0.5t-4 -0.5q-22 0 -29 23q0 1 -1 5.5t-2 11.5
q-1 8 0 19t8 21zM206 615q11 13 28 13q13 0 21.5 -8.5t8.5 -21.5q0 -11 -6 -18q0 -3 2 -7q3 -12 -3.5 -23t-18.5 -14q-2 0 -4 -0.5t-4 -0.5q-22 0 -29 23q0 1 -1 5.5t-2 11.5q-1 8 0 19t8 21z" />
    <glyph glyph-name="sacute" unicode="&#x15b;" horiz-adv-x="313" 
d="M164 -2q-5 0 -11 0.5t-11 1.5q-56 9 -92 56q-37 51 -34 130q0 12 9 20.5t22 8.5q12 -1 20.5 -10t8.5 -21q-2 -31 4.5 -53.5t17 -37.5t24.5 -23.5t29 -10.5q23 -4 48 7.5t34 42.5q9 33 -20.5 65.5t-79.5 73.5q-36 29 -66 57.5t-39 62.5q-15 64 26 104q22 22 58 28
q35 6 67 -4q39 -11 67 -40q31 -32 42 -78q3 -12 -3.5 -22.5t-18.5 -13.5t-22.5 3.5t-13.5 18.5q-5 20 -14 33.5t-19 22t-19.5 13t-15.5 6.5q-20 5 -38 2.5t-29 -12.5q-17 -17 -8 -46q4 -20 29.5 -43t54.5 -46l48 -40t42 -43q45 -60 29 -118q-12 -44 -46.5 -69.5t-79.5 -25.5
zM115 540q-14 0 -23 11q-8 10 -7 22.5t11 20.5q23 18 41.5 38t35.5 43q7 10 19 12t23 -5q10 -8 12 -20t-6 -22q-20 -27 -40.5 -49.5t-46.5 -43.5q-9 -7 -19 -7z" />
    <glyph glyph-name="tcaron" unicode="&#x165;" horiz-adv-x="496" 
d="M331 211q12 -4 18 -15t2 -22q-21 -68 -52 -109q-31 -43 -70 -58q-10 -3 -19.5 -5t-19.5 -2q-29 0 -54 16q-24 14 -37.5 43.5t-19.5 74.5t-5.5 106.5t4.5 139.5l-17.5 -2l-16.5 -2q-1 -1 -4 -1q-11 0 -19.5 7.5t-10.5 18.5q-2 13 5.5 22.5t20.5 11.5q4 1 16 2.5l29 3.5
q1 16 1.5 32t2.5 33q2 42 4.5 85.5t4.5 91.5q1 12 10 20.5t21 7.5q13 -1 21.5 -10t7.5 -21q-2 -48 -4.5 -91.5t-4.5 -86.5q-1 -14 -1.5 -27t-1.5 -26q19 3 38 5t35.5 4t29 3t18.5 1q12 0 21 -8.5t9 -21.5q0 -12 -9 -21t-21 -9q-9 0 -45 -4t-80 -10q-3 -60 -4 -109t1 -89
q1 -33 4.5 -55t8 -36.5t9 -21.5t9.5 -10q20 -12 41 -3q26 9 48 42.5t39 85.5q4 11 15 17t22 2zM481 542q2 -18 1 -35.5t-5 -34.5q-11 -41 -39 -69q-9 -9 -21 -9q-11 0 -21 8q-9 9 -9 21.5t8 21.5q18 18 23 38.5t4 37.5v4q-38 13 -47 50q-4 17 0.5 32t16.5 23q10 8 22.5 8
t23.5 -7q20 -12 30 -39t13 -50z" />
    <glyph glyph-name="zacute" unicode="&#x17a;" horiz-adv-x="337" 
d="M174 -1q-67 0 -103 11.5t-47 37.5q-8 19 0.5 42.5t26.5 52.5q15 25 35 53l42 59l42 58.5t37 55.5q17 28 23 42t7 19q-6 4 -26.5 9t-67.5 2q-34 -2 -59.5 -6.5t-26.5 -4.5q-12 -2 -22.5 4.5t-12.5 18.5q-3 12 4 22.5t19 13.5q2 0 29.5 5t64.5 7q110 6 146 -33
q19 -21 9 -60q-7 -20 -27 -56q-17 -30 -41 -64l-49 -68l-37.5 -52t-31.5 -47q-14 -21 -19.5 -33t-7.5 -17q6 -3 29.5 -8t78.5 -4q20 0 38 1t32 3q17 2 31 3q13 2 22.5 -5.5t11.5 -20.5q2 -12 -6 -21.5t-20 -11.5q-1 0 -11 -1.5t-26.5 -2.5t-37 -2.5t-42.5 -1.5h-7zM127 540
q-14 0 -23 11q-8 10 -7 22.5t11 20.5q23 18 41.5 38t35.5 43q7 10 19 12t23 -5q10 -8 12 -20t-6 -22q-20 -27 -40.5 -49.5t-46.5 -43.5q-9 -7 -19 -7z" />
    <glyph glyph-name="ccedilla" unicode="&#xe7;" horiz-adv-x="378" 
d="M164 -174h-11t-12 1q-12 2 -20 11.5t-6 21.5q2 13 11.5 21t21.5 6q25 -3 36.5 1.5t14.5 7.5q5 5 4 11q0 4 -5 9q-15 11 -48 5q-13 -3 -25 7t-10 25l2 23q1 10 1.5 22t1.5 25q0 3 2 9q-17 9 -32 21.5t-27 26.5q-50 61 -50 155q0 110 55 182q25 32 56.5 52t66.5 25
q47 6 83 -18q39 -25 51 -75q3 -12 -3 -22.5t-18 -14.5q-12 -3 -23 3.5t-14 18.5q-7 26 -25 39t-44 9q-22 -2 -43.5 -16t-38.5 -37q-15 -20 -29 -55t-14 -91q0 -40 10 -68.5t26 -47.5t35.5 -30t38.5 -16q42 -12 83 -6q20 4 29 9t11 7q5 11 17 14.5t23 -2.5t14.5 -18t-1.5 -23
q-19 -33 -76 -45q-20 -4 -45 -4q-15 0 -29.5 1t-28.5 5q-1 -8 -1.5 -14.5t-1.5 -13.5q35 -2 58 -20q26 -20 28 -52q3 -33 -23 -59q-10 -9 -28.5 -17.5t-47.5 -8.5z" />
    <glyph glyph-name="ring" unicode="&#x2da;" horiz-adv-x="181" 
d="M86 503q-27 0 -46 17t-24 46t10 56q15 29 49 39q5 2 10 3t10 1q27 0 47 -20.5t23 -51.5q3 -28 -12 -54q-17 -28 -50 -34q-5 -1 -9 -1.5t-8 -0.5zM95 615q-2 0 -3 -0.5t-3 -0.5q-16 -5 -20.5 -18t-2.5 -23q1 -7 5 -13.5t15 -6.5q2 0 3.5 0.5t3.5 0.5q17 4 20 16.5t2 17.5
q-1 10 -6.5 18.5t-13.5 8.5z" />
    <glyph glyph-name="hungarumlaut" unicode="&#x2dd;" horiz-adv-x="332" 
d="M44 540q-14 0 -23 11q-8 10 -7 22.5t11 20.5q23 18 41.5 38t35.5 43q7 10 19 12t23 -5q10 -8 12 -20t-6 -22q-20 -27 -40.5 -49.5t-46.5 -43.5q-9 -7 -19 -7zM204 540q-14 0 -23 11q-8 10 -7 22.5t11 20.5q23 18 41.5 38t35.5 43q7 10 19 12t23 -5q10 -8 12 -20t-6 -22
q-20 -27 -40.5 -49.5t-46.5 -43.5q-9 -7 -19 -7z" />
    <glyph glyph-name="caron" unicode="&#x2c7;" horiz-adv-x="264" 
d="M221 691q9 0 17 -6q11 -7 13 -19t-6 -23l-3 -4q-38 -55 -65 -82.5t-52 -25.5q-26 1 -45.5 24.5t-39.5 53.5q-12 18 -20 28t-6 22t12 20t22 6.5t20 -11.5l10.5 -15l11.5 -17q13 -20 25 -36q5 -5 7.5 -8t4.5 -5q4 3 10 9t17 19t21 27.5l18 25.5l3 4q10 13 25 13z" />
    <glyph glyph-name="dotaccent" unicode="&#x2d9;" horiz-adv-x="95" 
d="M23 615q11 13 28 13q13 0 21.5 -8.5t8.5 -21.5q0 -11 -6 -18q0 -3 2 -7q3 -12 -3.5 -23t-18.5 -14q-2 0 -4 -0.5t-4 -0.5q-22 0 -29 23q0 1 -1 5.5t-2 11.5q-1 8 0 19t8 21z" />
    <glyph glyph-name="breve" unicode="&#x2d8;" horiz-adv-x="264" 
d="M127 553q-8 0 -11 1q-39 5 -65 29q-30 27 -35 67q-2 12 5.5 22t19.5 12q13 2 22.5 -6t11.5 -20q3 -21 17.5 -32t29.5 -13q18 -2 38 12.5t30 44.5q4 12 15 18t22 2q12 -4 18 -15t2 -23q-16 -49 -53 -76q-31 -23 -67 -23z" />
    <glyph glyph-name="ogonek" unicode="&#x2db;" horiz-adv-x="187" 
d="M109 -214q-43 0 -67 18q-25 19 -28 50q-5 48 30 99q13 19 23.5 30l11.5 12q9 8 21.5 8t20.5 -9t8 -21.5t-9 -21.5q-5 -5 -13.5 -15t-16.5 -22.5t-13 -26.5t-4 -27q1 -5 4 -8q5 -3 13 -4.5t17 -1.5t17.5 0.5t14.5 2.5q12 2 22.5 -4.5t13.5 -18.5q2 -12 -4.5 -22.5
t-18.5 -13.5q-2 0 -12.5 -2t-25.5 -2h-5z" />
    <glyph glyph-name="dotlessi" unicode="&#x131;" horiz-adv-x="116" 
d="M70 4q-10 0 -18 5.5t-10 16.5q-10 36 -16 75t-8.5 76t-3 70t-0.5 57q0 29 1.5 57.5t4.5 52.5q1 11 2 19.5t3 15.5q2 10 5 18.5t12 14.5q11 6 23 3.5t19 -13.5q8 -16 0 -30q-2 -11 -6 -51.5t-5 -101.5q0 -73 6.5 -136.5t19.5 -110.5q4 -12 -2.5 -23t-18.5 -14q-2 -1 -8 -1
z" />
    <glyph glyph-name="aogonek" unicode="&#x105;" horiz-adv-x="402" 
d="M386 46q2 -12 -4 -21t-16 -13q-6 -6 -13.5 -16t-14.5 -21.5t-11 -24t-3 -24.5q1 -5 4 -8q5 -3 13 -4.5t17 -1.5t17.5 0.5t14.5 2.5q12 2 22.5 -4.5t13.5 -18.5q2 -12 -4.5 -22.5t-18.5 -13.5q-2 0 -12.5 -2t-25.5 -2h-5q-43 0 -67 18q-25 19 -28 50q-5 48 30 99
q8 13 16 22t13 14l-5 32.5l-7 44.5q-17 -42 -37.5 -68t-42 -41t-43 -20.5t-40.5 -5.5h-1q-73 2 -109 73q-16 32 -20.5 74.5t2.5 90.5q8 48 26 92t44 79q43 56 101 78.5t124 9.5q12 -2 19 -12.5t4 -22.5q-2 -12 -12 -19t-23 -5q-31 6 -56.5 2t-45.5 -14.5t-36 -24.5t-27 -29
q-23 -29 -37.5 -65.5t-20.5 -77.5q-6 -38 -2.5 -72t14.5 -58q19 -39 55 -39q45 0 77 41q21 26 36.5 68.5t24.5 96.5q2 10 2.5 19.5t2.5 18.5q-2 9 -2.5 17t-1.5 15q-1 14 -1.5 25t-0.5 19q0 10 2 23t15 21q8 5 18 4t18 -7q8 -7 11 -18.5t4 -28.5q1 -13 0.5 -28.5t-1.5 -32.5
q-1 -3 -1 -9l4.5 -42t7.5 -56l8 -58t7.5 -50l5.5 -35.5z" />
    <glyph glyph-name="zdotaccent" unicode="&#x17c;" horiz-adv-x="337" 
d="M174 -1q-67 0 -103 11.5t-47 37.5q-8 19 0.5 42.5t26.5 52.5q15 25 35 53l42 59l42 58.5t37 55.5q17 28 23 42t7 19q-6 4 -26.5 9t-67.5 2q-34 -2 -59.5 -6.5t-26.5 -4.5q-12 -2 -22.5 4.5t-12.5 18.5q-3 12 4 22.5t19 13.5q2 0 29.5 5t64.5 7q110 6 146 -33
q19 -21 9 -60q-7 -20 -27 -56q-17 -30 -41 -64l-49 -68l-37.5 -52t-31.5 -47q-14 -21 -19.5 -33t-7.5 -17q6 -3 29.5 -8t78.5 -4q20 0 38 1t32 3q17 2 31 3q13 2 22.5 -5.5t11.5 -20.5q2 -12 -6 -21.5t-20 -11.5q-1 0 -11 -1.5t-26.5 -2.5t-37 -2.5t-42.5 -1.5h-7zM144 615
q11 13 28 13q13 0 21.5 -8.5t8.5 -21.5q0 -11 -6 -18q0 -3 2 -7q3 -12 -3.5 -23t-18.5 -14q-2 0 -4 -0.5t-4 -0.5q-22 0 -29 23q0 1 -1 5.5t-2 11.5q-1 8 0 19t8 21z" />
    <glyph glyph-name="racute" unicode="&#x155;" horiz-adv-x="320" 
d="M65 4q-11 0 -19.5 7.5t-10.5 19.5q-5 60 -4 120t9 116q-1 51 -5 101t-15 101q-3 12 3.5 22.5t18.5 12.5q13 3 23.5 -3.5t12.5 -18.5q6 -27 9 -50q2 3 3.5 6t3.5 6q30 49 69 58q16 3 39 -3.5t48 -38.5q34 -43 63 -136q4 -12 -2 -23t-18 -14q-11 -4 -22 1.5t-15 17.5
q-16 51 -30 78t-23 39q-4 5 -12 13.5t-16 6.5q-5 -1 -12.5 -7t-16 -20t-18 -37t-17.5 -56l-6 -29t-5 -31q0 -69 -3 -138q-1 -24 -1.5 -46.5t-0.5 -45.5q0 -12 -8.5 -20.5t-19.5 -8.5h-2zM118 540q-14 0 -23 11q-8 10 -7 22.5t11 20.5q23 18 41.5 38t35.5 43q7 10 19 12
t23 -5q10 -8 12 -20t-6 -22q-20 -27 -40.5 -49.5t-46.5 -43.5q-9 -7 -19 -7z" />
    <glyph glyph-name="abreve" unicode="&#x103;" horiz-adv-x="402" 
d="M386 46l-2 13.5l-5.5 35.5t-7.5 50l-8 58q-5 32 -7.5 56l-4.5 42q0 6 1 9q1 17 1.5 32.5t-0.5 28.5q-1 17 -4 28.5t-11 18.5q-8 6 -18 7t-18 -4q-13 -8 -15 -21t-2 -23q0 -8 0.5 -19t1.5 -25q1 -7 1.5 -15t2.5 -17q-2 -9 -2.5 -18.5t-2.5 -19.5q-9 -54 -24.5 -96.5
t-36.5 -68.5q-32 -41 -77 -41q-36 0 -55 39q-11 24 -14.5 58t2.5 72q6 41 20.5 77.5t37.5 65.5q11 15 27 29t36 24.5t45.5 14.5t56.5 -2q13 -2 23 5t12 19q3 12 -4 22.5t-19 12.5q-66 13 -124 -9.5t-101 -78.5q-26 -35 -44 -79t-26 -92q-7 -48 -2.5 -90.5t20.5 -74.5
q36 -71 109 -73h1q19 0 40.5 5.5t43 20.5t42 41t37.5 68q6 -41 10.5 -68t4.5 -28q2 -12 12 -19.5t22 -5.5t19.5 12t5.5 23zM195 553q-8 0 -11 1q-39 5 -65 29q-30 27 -35 67q-2 12 5.5 22t19.5 12q13 2 22.5 -6t11.5 -20q3 -21 17.5 -32t29.5 -13q18 -2 38 12.5t30 44.5
q4 12 15 18t22 2q12 -4 18 -15t2 -23q-16 -49 -53 -76q-31 -23 -67 -23z" />
    <glyph glyph-name="lacute" unicode="&#x13a;" horiz-adv-x="122" 
d="M79 0q-7 0 -13 3q-17 8 -25 26t-12 33q-4 17 -6.5 38.5t-4.5 48.5q-3 45 -3 104.5t2 134.5q2 63 5.5 122.5t7 106t6 75t2.5 29.5q1 13 10.5 21t22.5 6q12 -1 20 -10.5t7 -21.5q0 -1 -2.5 -27.5t-5.5 -70t-6.5 -100t-5.5 -116.5q-3 -70 -3.5 -127t1.5 -102q2 -34 4.5 -56
t5.5 -35t5.5 -19t3.5 -8q10 -6 13 -16.5t-2 -21.5q-8 -17 -27 -17zM72 781q-14 0 -23 11q-8 10 -7 22.5t11 20.5q23 18 41.5 38t35.5 43q7 10 19 12t23 -5q10 -8 12 -20t-6 -22q-20 -27 -40.5 -49.5t-46.5 -43.5q-9 -7 -19 -7z" />
    <glyph glyph-name="cacute" unicode="&#x107;" horiz-adv-x="378" 
d="M238 5q-34 0 -62 7q-71 19 -113 68q-50 61 -50 155q0 110 55 182q25 32 56.5 52t66.5 25q47 6 83 -18q39 -25 51 -75q3 -12 -3 -22.5t-18 -14.5q-12 -3 -23 3.5t-14 18.5q-7 26 -25 39t-44 9q-22 -2 -43.5 -16t-38.5 -37q-15 -20 -29 -55t-14 -91q0 -40 10 -68.5
t26 -47.5t35.5 -30t38.5 -16q42 -12 83 -6q20 4 29 9t11 7q5 11 17 14.5t23 -2.5t14.5 -18t-1.5 -23q-19 -33 -76 -45q-20 -4 -45 -4zM147 540q-14 0 -23 11q-8 10 -7 22.5t11 20.5q23 18 41.5 38t35.5 43q7 10 19 12t23 -5q10 -8 12 -20t-6 -22q-20 -27 -40.5 -49.5
t-46.5 -43.5q-9 -7 -19 -7z" />
    <glyph glyph-name="ccaron" unicode="&#x10d;" horiz-adv-x="378" 
d="M238 5q-34 0 -62 7q-71 19 -113 68q-50 61 -50 155q0 110 55 182q25 32 56.5 52t66.5 25q47 6 83 -18q39 -25 51 -75q3 -12 -3 -22.5t-18 -14.5q-12 -3 -23 3.5t-14 18.5q-7 26 -25 39t-44 9q-22 -2 -43.5 -16t-38.5 -37q-15 -20 -29 -55t-14 -91q0 -40 10 -68.5
t26 -47.5t35.5 -30t38.5 -16q42 -12 83 -6q20 4 29 9t11 7q5 11 17 14.5t23 -2.5t14.5 -18t-1.5 -23q-19 -33 -76 -45q-20 -4 -45 -4zM277 691q9 0 17 -6q11 -7 13 -19t-6 -23l-3 -4q-38 -55 -65 -82.5t-52 -25.5q-26 1 -45.5 24.5t-39.5 53.5q-12 18 -20 28t-6 22t12 20
t22 6.5t20 -11.5l10.5 -15l11.5 -17q13 -20 25 -36q5 -5 7.5 -8t4.5 -5q4 3 10 9t17 19t21 27.5l18 25.5l3 4q10 13 25 13z" />
    <glyph glyph-name="eogonek" unicode="&#x119;" horiz-adv-x="363" 
d="M280 -156q-43 0 -67 18q-25 19 -28 50q-5 43 23 89q-20 2 -37 6q-68 17 -109 69q-49 63 -48 159q0 111 55 186q25 33 57 53t67 25q46 6 84 -18q39 -27 51 -77q1 -1 1 -2q9 -59 -10 -106q-18 -46 -55 -75q-35 -27 -76 -35q-43 -9 -82 7q-12 5 -17 16t0 23q5 11 16.5 16.5
t22.5 0.5q23 -10 49.5 -4.5t48.5 23.5q27 21 38 53t6 70q-8 26 -25.5 39t-43.5 9q-23 -2 -45 -16.5t-39 -37.5q-15 -20 -29 -56.5t-15 -93.5q0 -46 11.5 -77t29 -50t37 -28.5t35.5 -13.5q37 -10 71 -2q17 4 23.5 8.5t7.5 6.5q6 11 17.5 14.5t22.5 -1.5q11 -6 15 -18t-2 -23
q-14 -24 -47 -38q-1 -2 -3 -4q-5 -5 -13.5 -15t-16.5 -22.5t-13 -26.5t-4 -27q1 -5 4 -8q5 -3 13 -4.5t17 -1.5t17.5 0.5t14.5 2.5q12 2 22.5 -4.5t13.5 -18.5q2 -12 -4.5 -22.5t-18.5 -13.5q-2 0 -12.5 -2t-25.5 -2h-5z" />
    <glyph glyph-name="ecaron" unicode="&#x11b;" horiz-adv-x="363" 
d="M225 1q-27 0 -54 6q-68 17 -109 69q-49 63 -48 159q0 111 55 186q25 33 57 53t67 25q46 6 84 -18q39 -27 51 -77q1 -1 1 -2q9 -59 -10 -106q-18 -46 -55 -75q-35 -27 -76 -35q-43 -9 -82 7q-12 5 -17 16t0 23q5 11 16.5 16.5t22.5 0.5q23 -10 49.5 -4.5t48.5 23.5
q27 21 38 53t6 70q-8 26 -25.5 39t-43.5 9q-23 -2 -45 -16.5t-39 -37.5q-15 -20 -29 -56.5t-15 -93.5q0 -46 11.5 -77t29 -50t37 -28.5t35.5 -13.5q37 -10 71 -2q17 4 23.5 8.5t7.5 6.5q6 11 17.5 14.5t22.5 -1.5q11 -6 15 -18t-2 -23q-17 -33 -70 -45q-11 -3 -22.5 -4
t-23.5 -1zM270 691q9 0 17 -6q11 -7 13 -19t-6 -23l-3 -4q-38 -55 -65 -82.5t-52 -25.5q-26 1 -45.5 24.5t-39.5 53.5q-12 18 -20 28t-6 22t12 20t22 6.5t20 -11.5l10.5 -15l11.5 -17q13 -20 25 -36q5 -5 7.5 -8t4.5 -5q4 3 10 9t17 19t21 27.5l18 25.5l3 4q10 13 25 13z
" />
    <glyph glyph-name="dcaron" unicode="&#x10f;" horiz-adv-x="564" 
d="M228 -1q-49 0 -91 17q-61 24 -94 83q-22 38 -29.5 85.5t-0.5 99.5q6 49 23.5 91.5t43.5 72.5q30 35 67 45.5t74 -4.5q70 -28 117 -109v1q1 64 3 125.5t3 110t2 78.5l1 30q1 13 10 21.5t22 7.5q12 0 20.5 -9t7.5 -22l-1 -28t-2 -73t-3 -103.5t-3 -119.5q-2 -60 -2.5 -106
t-0.5 -82q3 -18 5 -34.5t3 -30.5q5 -46 3 -83q-1 -27 -5 -39.5t-14 -19.5q-17 -10 -33 -1q-11 7 -13.5 16.5t-3.5 15.5q0 5 -0.5 11t-1.5 14q0 14 -0.5 35t-0.5 47v30t1 34q-2 6 -3 12t-3 13q-6 28 -16.5 59t-26 58.5t-37 50t-50.5 34.5q-39 15 -74 -25q-20 -23 -34 -57.5
t-19 -73t0 -78t23 -70.5q51 -89 188 -65q12 2 22.5 -4.5t12.5 -19.5q2 -12 -5 -22.5t-19 -12.5q-35 -6 -66 -6zM549 542q-3 23 -13 50t-30 39q-11 7 -23.5 7t-22.5 -8q-12 -8 -16.5 -23t-0.5 -32q9 -37 47 -50v-4q1 -17 -4 -37.5t-23 -38.5q-8 -9 -8 -21.5t9 -21.5
q10 -8 21 -8q12 0 21 9q28 28 39 69q4 17 5 34.5t-1 35.5z" />
    <glyph glyph-name="nacute" unicode="&#x144;" horiz-adv-x="362" 
d="M337 218q3 -37 5 -70.5t3 -59.5t1 -42.5v-17.5q-1 -12 -9.5 -20.5t-20.5 -8.5h-1q-12 0 -20.5 8.5t-8.5 21.5v15.5t-1 41t-2.5 58.5t-4.5 69q-6 62 -13.5 102.5t-15 65t-14 35.5t-10.5 15t-5 3q-7 0 -18 -12q-21 -24 -43 -79t-42 -132q-10 -37 -16 -69l-11 -57v-23
t-1 -18q0 -6 -0.5 -10t-1.5 -8q-3 -17 -11.5 -22.5t-14.5 -6.5q-2 -1 -6 -1q-15 0 -24 12q-6 8 -7 20.5t3 42.5q1 5 1.5 10t1.5 10q1 25 0 67t-3 108q-1 39 -2.5 75t-2.5 64.5t-1.5 46l-0.5 17.5q-1 12 7.5 21t21.5 10q12 0 21 -8t10 -21l0.5 -12.5t1.5 -33.5t2 -48.5
t2 -58.5l12 35t14 34q20 44 42 70q28 35 62 37q10 1 23 -2.5t27 -16.5q33 -31 50 -111q13 -58 21 -146zM139 540q-14 0 -23 11q-8 10 -7 22.5t11 20.5q23 18 41.5 38t35.5 43q7 10 19 12t23 -5q10 -8 12 -20t-6 -22q-20 -27 -40.5 -49.5t-46.5 -43.5q-9 -7 -19 -7z" />
    <glyph glyph-name="ncaron" unicode="&#x148;" horiz-adv-x="362" 
d="M337 218q3 -37 5 -70.5t3 -59.5t1 -42.5v-17.5q-1 -12 -9.5 -20.5t-20.5 -8.5h-1q-12 0 -20.5 8.5t-8.5 21.5v15.5t-1 41t-2.5 58.5t-4.5 69q-6 62 -13.5 102.5t-15 65t-14 35.5t-10.5 15t-5 3q-7 0 -18 -12q-21 -24 -43 -79t-42 -132q-10 -37 -16 -69l-11 -57v-23
t-1 -18q0 -6 -0.5 -10t-1.5 -8q-3 -17 -11.5 -22.5t-14.5 -6.5q-2 -1 -6 -1q-15 0 -24 12q-6 8 -7 20.5t3 42.5q1 5 1.5 10t1.5 10q1 25 0 67t-3 108q-1 39 -2.5 75t-2.5 64.5t-1.5 46l-0.5 17.5q-1 12 7.5 21t21.5 10q12 0 21 -8t10 -21l0.5 -12.5t1.5 -33.5t2 -48.5
t2 -58.5l12 35t14 34q20 44 42 70q28 35 62 37q10 1 23 -2.5t27 -16.5q33 -31 50 -111q13 -58 21 -146zM269 691q9 0 17 -6q11 -7 13 -19t-6 -23l-3 -4q-38 -55 -65 -82.5t-52 -25.5q-26 1 -45.5 24.5t-39.5 53.5q-12 18 -20 28t-6 22t12 20t22 6.5t20 -11.5l10.5 -15
l11.5 -17q13 -20 25 -36q5 -5 7.5 -8t4.5 -5q4 3 10 9t17 19t21 27.5l18 25.5l3 4q10 13 25 13z" />
    <glyph glyph-name="ohungarumlaut" unicode="&#x151;" horiz-adv-x="400" 
d="M188 5q-77 0 -123 54q-33 41 -45 103q-5 27 -4.5 57t5.5 61q7 42 22 80t37 67q52 71 125 71h4q69 -3 117 -66q20 -26 33.5 -60t19.5 -73q5 -31 4.5 -62t-5.5 -60q-12 -65 -49 -108q-25 -30 -59 -46.5t-76 -17.5h-6zM205 438q-26 0 -45.5 -15.5t-31.5 -31.5
q-36 -48 -48 -121q-8 -53 0 -99t31 -73q28 -33 77 -33h4q58 2 91 42q26 31 35.5 80t1.5 103q-5 27 -14.5 53t-23.5 47t-33 34t-42 14h-2zM108 540q-14 0 -23 11q-8 10 -7 22.5t11 20.5q23 18 41.5 38t35.5 43q7 10 19 12t23 -5q10 -8 12 -20t-6 -22q-20 -27 -40.5 -49.5
t-46.5 -43.5q-9 -7 -19 -7zM268 540q-14 0 -23 11q-8 10 -7 22.5t11 20.5q23 18 41.5 38t35.5 43q7 10 19 12t23 -5q10 -8 12 -20t-6 -22q-20 -27 -40.5 -49.5t-46.5 -43.5q-9 -7 -19 -7z" />
    <glyph glyph-name="uring" unicode="&#x16f;" 
d="M142 -2q-36 0 -62 28q-57 61 -61 265q-1 36 0 69t2.5 58.5t2.5 41t1 16.5q2 13 11.5 21t21.5 6q13 -1 21 -10.5t6 -21.5l-1 -15t-2.5 -40t-2.5 -57t0 -67q1 -59 6 -99t12 -66t14 -40t13 -20t10.5 -7.5t8.5 -1.5q15 0 35 23q23 28 43 83t35 132q5 21 8 41t5 38v30
q-1 18 -0.5 31t0.5 23q1 14 3.5 26t13.5 20q14 9 31 1q14 -7 16.5 -21.5t2.5 -25.5q1 -10 0 -23t-3 -29q-1 -9 -1.5 -17.5t-2.5 -17.5q1 -25 2.5 -57.5l3.5 -76.5q1 -39 3 -75.5l3.5 -65l2.5 -46l1 -17.5q1 -13 -7 -22t-21 -10q-12 -1 -21 7t-10 21q0 1 -2.5 34.5t-4.5 84.5
q-6 -17 -12.5 -32t-13.5 -29q-45 -88 -109 -90h-2zM178 503q-27 0 -46 17t-24 46t10 56q15 29 49 39q5 2 10 3t10 1q27 0 47 -20.5t23 -51.5q3 -28 -12 -54q-17 -28 -50 -34q-5 -1 -9 -1.5t-8 -0.5zM187 615q-2 0 -3 -0.5t-3 -0.5q-16 -5 -20.5 -18t-2.5 -23q1 -7 5 -13.5
t15 -6.5q2 0 3.5 0.5t3.5 0.5q17 4 20 16.5t2 17.5q-1 10 -6.5 18.5t-13.5 8.5z" />
    <glyph glyph-name="rcaron" unicode="&#x159;" horiz-adv-x="320" 
d="M65 4q-11 0 -19.5 7.5t-10.5 19.5q-5 60 -4 120t9 116q-1 51 -5 101t-15 101q-3 12 3.5 22.5t18.5 12.5q13 3 23.5 -3.5t12.5 -18.5q6 -27 9 -50q2 3 3.5 6t3.5 6q30 49 69 58q16 3 39 -3.5t48 -38.5q34 -43 63 -136q4 -12 -2 -23t-18 -14q-11 -4 -22 1.5t-15 17.5
q-16 51 -30 78t-23 39q-4 5 -12 13.5t-16 6.5q-5 -1 -12.5 -7t-16 -20t-18 -37t-17.5 -56l-6 -29t-5 -31q0 -69 -3 -138q-1 -24 -1.5 -46.5t-0.5 -45.5q0 -12 -8.5 -20.5t-19.5 -8.5h-2zM248 691q9 0 17 -6q11 -7 13 -19t-6 -23l-3 -4q-38 -55 -65 -82.5t-52 -25.5
q-26 1 -45.5 24.5t-39.5 53.5q-12 18 -20 28t-6 22t12 20t22 6.5t20 -11.5l10.5 -15l11.5 -17q13 -20 25 -36q5 -5 7.5 -8t4.5 -5q4 3 10 9t17 19t21 27.5l18 25.5l3 4q10 13 25 13z" />
    <glyph glyph-name="uhungarumlaut" unicode="&#x171;" 
d="M142 -2q-36 0 -62 28q-57 61 -61 265q-1 36 0 69t2.5 58.5t2.5 41t1 16.5q2 13 11.5 21t21.5 6q13 -1 21 -10.5t6 -21.5l-1 -15t-2.5 -40t-2.5 -57t0 -67q1 -59 6 -99t12 -66t14 -40t13 -20t10.5 -7.5t8.5 -1.5q15 0 35 23q23 28 43 83t35 132q5 21 8 41t5 38v30
q-1 18 -0.5 31t0.5 23q1 14 3.5 26t13.5 20q14 9 31 1q14 -7 16.5 -21.5t2.5 -25.5q1 -10 0 -23t-3 -29q-1 -9 -1.5 -17.5t-2.5 -17.5q1 -25 2.5 -57.5l3.5 -76.5q1 -39 3 -75.5l3.5 -65l2.5 -46l1 -17.5q1 -13 -7 -22t-21 -10q-12 -1 -21 7t-10 21q0 1 -2.5 34.5t-4.5 84.5
q-6 -17 -12.5 -32t-13.5 -29q-45 -88 -109 -90h-2zM220 540q-14 0 -23 11q-8 10 -7 22.5t11 20.5q23 18 41.5 38t35.5 43q7 10 19 12t23 -5q10 -8 12 -20t-6 -22q-20 -27 -40.5 -49.5t-46.5 -43.5q-9 -7 -19 -7zM60 540q-14 0 -23 11q-8 10 -7 22.5t11 20.5q23 18 41.5 38
t35.5 43q7 10 19 12t23 -5q10 -8 12 -20t-6 -22q-20 -27 -40.5 -49.5t-46.5 -43.5q-9 -7 -19 -7z" />
    <glyph glyph-name="igrave" unicode="&#xec;" horiz-adv-x="172" 
d="M129 4q-10 0 -18 5.5t-10 16.5q-10 36 -16 75t-8.5 76t-3 70t-0.5 57q0 29 1.5 57.5t4.5 52.5q1 11 2 19.5t3 15.5q2 10 5 18.5t12 14.5q11 6 23 3.5t19 -13.5q8 -16 0 -30q-2 -11 -6 -51.5t-5 -101.5q0 -73 6.5 -136.5t19.5 -110.5q4 -12 -2.5 -23t-18.5 -14
q-2 -1 -8 -1zM119 540q-10 0 -19 7q-26 21 -46.5 43.5t-40.5 49.5q-8 10 -6 22t12 20q11 7 23 5t19 -12q17 -23 35.5 -43t41.5 -38q10 -8 11 -20.5t-7 -22.5q-9 -11 -23 -11z" />
    <glyph glyph-name="iacute" unicode="&#xed;" horiz-adv-x="184" 
d="M69 4q-10 0 -18 5.5t-10 16.5q-10 36 -16 75t-8.5 76t-3 70t-0.5 57q0 29 1.5 57.5t4.5 52.5q1 11 2 19.5t3 15.5q2 10 5 18.5t12 14.5q11 6 23 3.5t19 -13.5q8 -16 0 -30q-2 -11 -6 -51.5t-5 -101.5q0 -73 6.5 -136.5t19.5 -110.5q4 -12 -2.5 -23t-18.5 -14q-2 -1 -8 -1
zM65 540q-14 0 -23 11q-8 10 -7 22.5t11 20.5q23 18 41.5 38t35.5 43q7 10 19 12t23 -5q10 -8 12 -20t-6 -22q-20 -27 -40.5 -49.5t-46.5 -43.5q-9 -7 -19 -7z" />
    <glyph glyph-name="icircumflex" unicode="&#xee;" horiz-adv-x="255" 
d="M139 4q-10 0 -18 5.5t-10 16.5q-10 36 -16 75t-8.5 76t-3 70t-0.5 57q0 29 1.5 57.5t4.5 52.5q1 11 2 19.5t3 15.5q2 10 5 18.5t12 14.5q11 6 23 3.5t19 -13.5q8 -16 0 -30q-2 -11 -6 -51.5t-5 -101.5q0 -73 6.5 -136.5t19.5 -110.5q4 -12 -2.5 -23t-18.5 -14
q-2 -1 -8 -1zM216 529q-15 0 -25 13l-3 4l-18 25.5t-21 27.5t-17 19t-10 9q-2 -2 -4.5 -5t-7.5 -8l-25 -36l-11.5 -17l-10.5 -15q-8 -10 -20 -11.5t-22 6.5t-12 20t6 22t20 28q20 30 39.5 53.5t45.5 24.5q25 2 52 -25.5t65 -82.5l3 -4q8 -11 6 -23t-13 -19q-8 -6 -17 -6z
" />
    <glyph glyph-name="idieresis" unicode="&#xef;" horiz-adv-x="182" 
d="M102 4q-10 0 -18 5.5t-10 16.5q-10 36 -16 75t-8.5 76t-3 70t-0.5 57q0 29 1.5 57.5t4.5 52.5q1 11 2 19.5t3 15.5q2 10 5 18.5t12 14.5q11 6 23 3.5t19 -13.5q8 -16 0 -30q-2 -11 -6 -51.5t-5 -101.5q0 -73 6.5 -136.5t19.5 -110.5q4 -12 -2.5 -23t-18.5 -14
q-2 -1 -8 -1zM115 615q11 13 28 13q13 0 21.5 -8.5t8.5 -21.5q0 -11 -6 -18q0 -3 2 -7q3 -12 -3.5 -23t-18.5 -14q-2 0 -4 -0.5t-4 -0.5q-22 0 -29 23q0 1 -1 5.5t-2 11.5q-1 8 0 19t8 21zM17 615q11 13 28 13q13 0 21.5 -8.5t8.5 -21.5q0 -11 -6 -18q0 -3 2 -7
q3 -12 -3.5 -23t-18.5 -14q-2 0 -4 -0.5t-4 -0.5q-22 0 -29 23q0 1 -1 5.5t-2 11.5q-1 8 0 19t8 21z" />
    <glyph glyph-name="tcommaaccent" unicode="&#x163;" horiz-adv-x="359" 
d="M331 211q12 -4 18 -15t2 -22q-21 -68 -52 -109q-31 -43 -70 -58q-10 -3 -19.5 -5t-19.5 -2q-29 0 -54 16q-24 14 -37.5 43.5t-19.5 74.5t-5.5 106.5t4.5 139.5l-17.5 -2l-16.5 -2q-1 -1 -4 -1q-11 0 -19.5 7.5t-10.5 18.5q-2 13 5.5 22.5t20.5 11.5q4 1 16 2.5l29 3.5
q1 16 1.5 32t2.5 33q2 42 4.5 85.5t4.5 91.5q1 12 10 20.5t21 7.5q13 -1 21.5 -10t7.5 -21q-2 -48 -4.5 -91.5t-4.5 -86.5q-1 -14 -1.5 -27t-1.5 -26q19 3 38 5t35.5 4t29 3t18.5 1q12 0 21 -8.5t9 -21.5q0 -12 -9 -21t-21 -9q-9 0 -45 -4t-80 -10q-3 -60 -4 -109t1 -89
q1 -33 4.5 -55t8 -36.5t9 -21.5t9.5 -10q20 -12 41 -3q26 9 48 42.5t39 85.5q4 11 15 17t22 2zM230 -137q2 -18 1 -35.5t-5 -34.5q-11 -41 -39 -69q-9 -9 -21 -9q-11 0 -21 8q-9 9 -9 21.5t8 21.5q18 18 23 38.5t4 37.5v4q-38 13 -47 50q-4 17 0.5 32t16.5 23q10 8 22.5 8
t23.5 -7q20 -12 30 -39t13 -50z" />
    <glyph glyph-name="lcaron" unicode="&#x13e;" horiz-adv-x="259" 
d="M79 0q-7 0 -13 3q-17 8 -25 26t-12 33q-4 17 -6.5 38.5t-4.5 48.5q-3 45 -3 104.5t2 134.5q2 63 5.5 122.5t7 106t6 75t2.5 29.5q1 13 10.5 21t22.5 6q12 -1 20 -10.5t7 -21.5q0 -1 -2.5 -27.5t-5.5 -70t-6.5 -100t-5.5 -116.5q-3 -70 -3.5 -127t1.5 -102q2 -34 4.5 -56
t5.5 -35t5.5 -19t3.5 -8q10 -6 13 -16.5t-2 -21.5q-8 -17 -27 -17zM244 542q-3 23 -13 50t-30 39q-11 7 -23.5 7t-22.5 -8q-12 -8 -16.5 -23t-0.5 -32q9 -37 47 -50v-4q1 -17 -4 -37.5t-23 -38.5q-8 -9 -8 -21.5t9 -21.5q10 -8 21 -8q12 0 21 9q28 28 39 69q4 17 5 34.5
t-1 35.5z" />
    <glyph glyph-name="amacron" unicode="&#x101;" horiz-adv-x="402" 
d="M386 46l-2 13.5l-5.5 35.5t-7.5 50l-8 58q-5 32 -7.5 56l-4.5 42q0 6 1 9q1 17 1.5 32.5t-0.5 28.5q-1 17 -4 28.5t-11 18.5q-8 6 -18 7t-18 -4q-13 -8 -15 -21t-2 -23q0 -8 0.5 -19t1.5 -25q1 -7 1.5 -15t2.5 -17q-2 -9 -2.5 -18.5t-2.5 -19.5q-9 -54 -24.5 -96.5
t-36.5 -68.5q-32 -41 -77 -41q-36 0 -55 39q-11 24 -14.5 58t2.5 72q6 41 20.5 77.5t37.5 65.5q11 15 27 29t36 24.5t45.5 14.5t56.5 -2q13 -2 23 5t12 19q3 12 -4 22.5t-19 12.5q-66 13 -124 -9.5t-101 -78.5q-26 -35 -44 -79t-26 -92q-7 -48 -2.5 -90.5t20.5 -74.5
q36 -71 109 -73h1q19 0 40.5 5.5t43 20.5t42 41t37.5 68q6 -41 10.5 -68t4.5 -28q2 -12 12 -19.5t22 -5.5t19.5 12t5.5 23zM209 564q-29 0 -62 2t-71 7q-13 2 -20.5 11.5t-5.5 21.5q2 13 11.5 20.5t21.5 5.5q81 -10 136.5 -8t98.5 7q12 1 21.5 -6.5t11.5 -20.5
q2 -12 -6 -21.5t-20 -11.5q-26 -3 -54 -5t-62 -2z" />
    <glyph glyph-name="emacron" unicode="&#x113;" horiz-adv-x="363" 
d="M225 1q-27 0 -54 6q-68 17 -109 69q-49 63 -48 159q0 111 55 186q25 33 57 53t67 25q46 6 84 -18q39 -27 51 -77q1 -1 1 -2q9 -59 -10 -106q-18 -46 -55 -75q-35 -27 -76 -35q-43 -9 -82 7q-12 5 -17 16t0 23q5 11 16.5 16.5t22.5 0.5q23 -10 49.5 -4.5t48.5 23.5
q27 21 38 53t6 70q-8 26 -25.5 39t-43.5 9q-23 -2 -45 -16.5t-39 -37.5q-15 -20 -29 -56.5t-15 -93.5q0 -46 11.5 -77t29 -50t37 -28.5t35.5 -13.5q37 -10 71 -2q17 4 23.5 8.5t7.5 6.5q6 11 17.5 14.5t22.5 -1.5q11 -6 15 -18t-2 -23q-17 -33 -70 -45q-11 -3 -22.5 -4
t-23.5 -1zM190 564q-29 0 -62 2t-71 7q-13 2 -20.5 11.5t-5.5 21.5q2 13 11.5 20.5t21.5 5.5q81 -10 136.5 -8t98.5 7q12 1 21.5 -6.5t11.5 -20.5q2 -12 -6 -21.5t-20 -11.5q-26 -3 -54 -5t-62 -2z" />
    <glyph glyph-name="edotaccent" unicode="&#x117;" horiz-adv-x="363" 
d="M225 1q-27 0 -54 6q-68 17 -109 69q-49 63 -48 159q0 111 55 186q25 33 57 53t67 25q46 6 84 -18q39 -27 51 -77q1 -1 1 -2q9 -59 -10 -106q-18 -46 -55 -75q-35 -27 -76 -35q-43 -9 -82 7q-12 5 -17 16t0 23q5 11 16.5 16.5t22.5 0.5q23 -10 49.5 -4.5t48.5 23.5
q27 21 38 53t6 70q-8 26 -25.5 39t-43.5 9q-23 -2 -45 -16.5t-39 -37.5q-15 -20 -29 -56.5t-15 -93.5q0 -46 11.5 -77t29 -50t37 -28.5t35.5 -13.5q37 -10 71 -2q17 4 23.5 8.5t7.5 6.5q6 11 17.5 14.5t22.5 -1.5q11 -6 15 -18t-2 -23q-17 -33 -70 -45q-11 -3 -22.5 -4
t-23.5 -1zM157 615q11 13 28 13q13 0 21.5 -8.5t8.5 -21.5q0 -11 -6 -18q0 -3 2 -7q3 -12 -3.5 -23t-18.5 -14q-2 0 -4 -0.5t-4 -0.5q-22 0 -29 23q0 1 -1 5.5t-2 11.5q-1 8 0 19t8 21z" />
    <glyph glyph-name="gcommaaccent" unicode="&#x123;" horiz-adv-x="371" 
d="M200 -252q-8 0 -15 1t-15 3q-26 6 -49 22t-40 39q-17 25 -24 54.5t-2 59.5q2 12 12.5 19.5t22.5 5.5t19.5 -12.5t5.5 -22.5q-4 -20 0.5 -37.5t14.5 -32t24.5 -24t29.5 -13.5q8 -2 18.5 -2t21.5 5t21 17t17 35q4 13 7 39t4.5 59.5t2.5 73t1 78.5q-19 -36 -39 -59
q-44 -53 -96 -53h-1q-33 0 -59.5 16.5t-43.5 48.5q-16 31 -21 71.5t2 86.5q6 46 22.5 89t42.5 78q44 62 105 89t133 16q13 -2 20.5 -12t5.5 -22t-12 -19.5t-23 -5.5q-35 5 -63 -0.5t-50 -18t-39 -29t-29 -33.5q-21 -29 -35 -65.5t-19 -74.5q-5 -37 -1.5 -68.5t15.5 -53.5
q16 -33 49 -33h1q23 0 50 31q21 26 41 68.5t37 96.5q2 8 4.5 15.5t4.5 15.5v19.5t1 18.5q1 33 3 52q2 10 6 24t20 20q20 8 35 -8q8 -8 10 -20t0 -28q-2 -25 -9 -56q-2 -8 -3.5 -15t-3.5 -15v-52t-1 -56q-1 -122 -3.5 -207t-13.5 -120q-20 -59 -62 -84q-27 -15 -58 -15z
M131 611q-2 18 -1 35.5t5 34.5q10 40 39 69q9 9 21 9q11 0 21 -8q9 -9 9 -21.5t-8 -21.5q-18 -18 -23 -38.5t-4 -37.5v-4q38 -13 47 -50q4 -17 -0.5 -32t-16.5 -23q-10 -8 -22.5 -8t-23.5 7q-20 12 -30 39t-13 50z" />
    <glyph glyph-name="kcommaaccent" unicode="&#x137;" horiz-adv-x="421" 
d="M412 54q6 -11 3 -23t-14 -18q-23 -13 -51 -13h-8t-8 1q-30 4 -65 24q-24 14 -47.5 34t-44.5 41t-38 41.5l-29 35.5q-7 8 -13 16.5l-12 16.5q-2 -51 -3.5 -96t-3.5 -82q0 -12 -9 -20.5t-21 -8.5h-1q-12 1 -20.5 10t-8.5 22l4.5 106t4.5 126t3.5 133.5t2 128t-1 109.5
t-5.5 78q-2 13 6 22.5t20 11.5q13 2 22.5 -6t11.5 -20q3 -24 4.5 -60.5t2 -81.5t-0.5 -96l-2 -104l48 37l66 50l50.5 38l37.5 29q9 8 21.5 7t20.5 -10q8 -10 7 -22.5t-11 -20.5q-14 -12 -38 -30.5l-52 -38.5l-51 -38.5l-47 -36.5q-20 -16 -30.5 -25.5t-15.5 -14.5
q7 -14 26.5 -43.5t49.5 -67.5q41 -50 78.5 -83t69.5 -45q30 -13 51 -2q11 6 23 3t18 -14zM230 -137q2 -18 1 -35.5t-5 -34.5q-11 -41 -39 -69q-9 -9 -21 -9q-11 0 -21 8q-9 9 -9 21.5t8 21.5q18 18 23 38.5t4 37.5v4q-38 13 -47 50q-4 17 0.5 32t16.5 23q10 8 22.5 8
t23.5 -7q20 -12 30 -39t13 -50z" />
    <glyph glyph-name="imacron" unicode="&#x12b;" horiz-adv-x="311" 
d="M167 4q-10 0 -18 5.5t-10 16.5q-10 36 -16 75t-8.5 76t-3 70t-0.5 57q0 29 1.5 57.5t4.5 52.5q1 11 2 19.5t3 15.5q2 10 5 18.5t12 14.5q11 6 23 3.5t19 -13.5q8 -16 0 -30q-2 -11 -6 -51.5t-5 -101.5q0 -73 6.5 -136.5t19.5 -110.5q4 -12 -2.5 -23t-18.5 -14
q-2 -1 -8 -1zM164 564q-29 0 -62 2t-71 7q-13 2 -20.5 11.5t-5.5 21.5q2 13 11.5 20.5t21.5 5.5q81 -10 136.5 -8t98.5 7q12 1 21.5 -6.5t11.5 -20.5q2 -12 -6 -21.5t-20 -11.5q-26 -3 -54 -5t-62 -2z" />
    <glyph glyph-name="lcommaaccent" unicode="&#x13c;" horiz-adv-x="122" 
d="M79 0q-7 0 -13 3q-17 8 -25 26t-12 33q-4 17 -6.5 38.5t-4.5 48.5q-3 45 -3 104.5t2 134.5q2 63 5.5 122.5t7 106t6 75t2.5 29.5q1 13 10.5 21t22.5 6q12 -1 20 -10.5t7 -21.5q0 -1 -2.5 -27.5t-5.5 -70t-6.5 -100t-5.5 -116.5q-3 -70 -3.5 -127t1.5 -102q2 -34 4.5 -56
t5.5 -35t5.5 -19t3.5 -8q10 -6 13 -16.5t-2 -21.5q-8 -17 -27 -17zM135 -137q-3 23 -13 50t-30 39q-11 7 -23.5 7t-22.5 -8q-12 -8 -16.5 -23t-0.5 -32q9 -37 47 -50v-4q1 -17 -4 -37.5t-23 -38.5q-8 -9 -8 -21.5t9 -21.5q10 -8 21 -8q12 0 21 9q28 28 39 69q4 17 5 34.5
t-1 35.5z" />
    <glyph glyph-name="ncommaaccent" unicode="&#x146;" horiz-adv-x="362" 
d="M337 218q3 -37 5 -70.5t3 -59.5t1 -42.5v-17.5q-1 -12 -9.5 -20.5t-20.5 -8.5h-1q-12 0 -20.5 8.5t-8.5 21.5v15.5t-1 41t-2.5 58.5t-4.5 69q-6 62 -13.5 102.5t-15 65t-14 35.5t-10.5 15t-5 3q-7 0 -18 -12q-21 -24 -43 -79t-42 -132q-10 -37 -16 -69l-11 -57v-23
t-1 -18q0 -6 -0.5 -10t-1.5 -8q-3 -17 -11.5 -22.5t-14.5 -6.5q-2 -1 -6 -1q-15 0 -24 12q-6 8 -7 20.5t3 42.5q1 5 1.5 10t1.5 10q1 25 0 67t-3 108q-1 39 -2.5 75t-2.5 64.5t-1.5 46l-0.5 17.5q-1 12 7.5 21t21.5 10q12 0 21 -8t10 -21l0.5 -12.5t1.5 -33.5t2 -48.5
t2 -58.5l12 35t14 34q20 44 42 70q28 35 62 37q10 1 23 -2.5t27 -16.5q33 -31 50 -111q13 -58 21 -146zM252 -137q2 -18 1 -35.5t-5 -34.5q-11 -41 -39 -69q-9 -9 -21 -9q-11 0 -21 8q-9 9 -9 21.5t8 21.5q18 18 23 38.5t4 37.5v4q-38 13 -47 50q-4 17 0.5 32t16.5 23
q10 8 22.5 8t23.5 -7q20 -12 30 -39t13 -50z" />
    <glyph glyph-name="omacron" unicode="&#x14d;" horiz-adv-x="400" 
d="M188 5q-77 0 -123 54q-33 41 -45 103q-5 27 -4.5 57t5.5 61q7 42 22 80t37 67q52 71 125 71h4q69 -3 117 -66q20 -26 33.5 -60t19.5 -73q5 -31 4.5 -62t-5.5 -60q-12 -65 -49 -108q-25 -30 -59 -46.5t-76 -17.5h-6zM205 438q-26 0 -45.5 -15.5t-31.5 -31.5
q-36 -48 -48 -121q-8 -53 0 -99t31 -73q28 -33 77 -33h4q58 2 91 42q26 31 35.5 80t1.5 103q-5 27 -14.5 53t-23.5 47t-33 34t-42 14h-2zM208 564q-29 0 -62 2t-71 7q-13 2 -20.5 11.5t-5.5 21.5q2 13 11.5 20.5t21.5 5.5q81 -10 136.5 -8t98.5 7q12 1 21.5 -6.5t11.5 -20.5
q2 -12 -6 -21.5t-20 -11.5q-26 -3 -54 -5t-62 -2z" />
    <glyph glyph-name="uogonek" unicode="&#x173;" 
d="M313 -165q-43 0 -67 18q-25 19 -28 50q-5 48 30 99q13 19 23.5 30l11.5 12l1 1q-1 15 -2 42t-3 62q-6 -17 -12.5 -32t-13.5 -29q-45 -88 -109 -90h-2q-36 0 -62 28q-57 61 -61 265q-1 36 0 69t2.5 58.5t2.5 41t1 16.5q2 13 11.5 21t21.5 6q13 -1 21 -10.5t6 -21.5l-1 -15
t-2.5 -40t-2.5 -57t0 -67q1 -59 6 -99t12 -66t14 -40t13 -20t10.5 -7.5t8.5 -1.5q15 0 35 23q23 28 43 83t35 132q5 21 8 41t5 38v30q-1 18 -0.5 31t0.5 23q1 14 3.5 26t13.5 20q14 9 31 1q14 -7 16.5 -21.5t2.5 -25.5q1 -10 0 -23t-3 -29q-1 -9 -1.5 -17.5t-2.5 -17.5
q1 -25 2.5 -57.5l3.5 -76.5q1 -39 3 -75.5l3.5 -65l2.5 -46l1 -17.5q1 -10 -4.5 -18t-13.5 -12q-1 -1 -1.5 -2t-1.5 -2q-5 -5 -13.5 -15t-16.5 -22.5t-13 -26.5t-4 -27q1 -5 4 -8q5 -3 13 -4.5t17 -1.5t17.5 0.5t14.5 2.5q12 2 22.5 -4.5t13.5 -18.5q2 -12 -4.5 -22.5
t-18.5 -13.5q-2 0 -12.5 -2t-25.5 -2h-5z" />
    <glyph glyph-name="umacron" unicode="&#x16b;" 
d="M142 -2q-36 0 -62 28q-57 61 -61 265q-1 36 0 69t2.5 58.5t2.5 41t1 16.5q2 13 11.5 21t21.5 6q13 -1 21 -10.5t6 -21.5l-1 -15t-2.5 -40t-2.5 -57t0 -67q1 -59 6 -99t12 -66t14 -40t13 -20t10.5 -7.5t8.5 -1.5q15 0 35 23q23 28 43 83t35 132q5 21 8 41t5 38v30
q-1 18 -0.5 31t0.5 23q1 14 3.5 26t13.5 20q14 9 31 1q14 -7 16.5 -21.5t2.5 -25.5q1 -10 0 -23t-3 -29q-1 -9 -1.5 -17.5t-2.5 -17.5q1 -25 2.5 -57.5l3.5 -76.5q1 -39 3 -75.5l3.5 -65l2.5 -46l1 -17.5q1 -13 -7 -22t-21 -10q-12 -1 -21 7t-10 21q0 1 -2.5 34.5t-4.5 84.5
q-6 -17 -12.5 -32t-13.5 -29q-45 -88 -109 -90h-2zM190 564q-29 0 -62 2t-71 7q-13 2 -20.5 11.5t-5.5 21.5q2 13 11.5 20.5t21.5 5.5q81 -10 136.5 -8t98.5 7q12 1 21.5 -6.5t11.5 -20.5q2 -12 -6 -21.5t-20 -11.5q-26 -3 -54 -5t-62 -2z" />
    <glyph glyph-name="iogonek" unicode="&#x12f;" horiz-adv-x="116" 
d="M73 -156q-43 0 -67 18q-25 19 -28 50q-5 48 30 99q8 12 15.5 21t12.5 14q-8 34 -12.5 70.5t-7 70.5t-2.5 64.5v52.5q0 29 1.5 57.5t4.5 52.5q1 11 2 19.5t3 15.5q2 10 5 18.5t12 14.5q11 6 23 3.5t19 -13.5q8 -16 0 -30q-2 -11 -6 -51.5t-5 -101.5q0 -73 6.5 -136.5
t19.5 -110.5q4 -12 -2 -22.5t-17 -14.5q-6 -6 -14 -15.5t-14.5 -21.5t-11 -25t-3.5 -25q1 -5 4 -8q5 -3 13 -4.5t17 -1.5t17.5 0.5t14.5 2.5q12 2 22.5 -4.5t13.5 -18.5q2 -12 -4.5 -22.5t-18.5 -13.5q-2 0 -12.5 -2t-25.5 -2h-5zM52 641q5 4 9.5 6t10.5 2q12 0 20 -8t8 -20
q0 -5 -1.5 -10.5t-6.5 -8.5q-1 -1 -2 -1.5t-2 -2.5q0 1 -1.5 -1t-1.5 -3l-2 -4v-2v3q-1 -2 -1 -6q0 1 0.5 1t0.5 1q0 -1 -1 -2q0 -5 0.5 -8.5t1.5 -7.5l-1 1q2 -12 -3 -19q-5 -10 -16 -13q-11 -2 -22 3.5t-13 16.5q-2 12 -2.5 24t3.5 23q7 23 22 36zM85 595q0 1 0.5 1t0.5 1
q0 -1 -1 -2zM83 570v3v-3z" />
    <glyph glyph-name="rcommaaccent" unicode="&#x157;" horiz-adv-x="320" 
d="M65 4q-11 0 -19.5 7.5t-10.5 19.5q-5 60 -4 120t9 116q-1 51 -5 101t-15 101q-3 12 3.5 22.5t18.5 12.5q13 3 23.5 -3.5t12.5 -18.5q6 -27 9 -50q2 3 3.5 6t3.5 6q30 49 69 58q16 3 39 -3.5t48 -38.5q34 -43 63 -136q4 -12 -2 -23t-18 -14q-11 -4 -22 1.5t-15 17.5
q-16 51 -30 78t-23 39q-4 5 -12 13.5t-16 6.5q-5 -1 -12.5 -7t-16 -20t-18 -37t-17.5 -56l-6 -29t-5 -31q0 -69 -3 -138q-1 -24 -1.5 -46.5t-0.5 -45.5q0 -12 -8.5 -20.5t-19.5 -8.5h-2zM136 -137q-3 23 -13 50t-30 39q-11 7 -23.5 7t-22.5 -8q-12 -8 -16.5 -23t-0.5 -32
q9 -37 47 -50v-4q1 -17 -4 -37.5t-23 -38.5q-8 -9 -8 -21.5t9 -21.5q10 -8 21 -8q12 0 21 9q28 28 39 69q4 17 5 34.5t-1 35.5z" />
    <glyph glyph-name="gbreve" unicode="&#x11f;" horiz-adv-x="371" 
d="M200 -252q-8 0 -15 1t-15 3q-26 6 -49 22t-40 39q-17 25 -24 54.5t-2 59.5q2 12 12.5 19.5t22.5 5.5t19.5 -12.5t5.5 -22.5q-4 -20 0.5 -37.5t14.5 -32t24.5 -24t29.5 -13.5q8 -2 18.5 -2t21.5 5t21 17t17 35q4 13 7 39t4.5 59.5t2.5 73t1 78.5q-19 -36 -39 -59
q-44 -53 -96 -53h-1q-33 0 -59.5 16.5t-43.5 48.5q-16 31 -21 71.5t2 86.5q6 46 22.5 89t42.5 78q44 62 105 89t133 16q13 -2 20.5 -12t5.5 -22t-12 -19.5t-23 -5.5q-35 5 -63 -0.5t-50 -18t-39 -29t-29 -33.5q-21 -29 -35 -65.5t-19 -74.5q-5 -37 -1.5 -68.5t15.5 -53.5
q16 -33 49 -33h1q23 0 50 31q21 26 41 68.5t37 96.5q2 8 4.5 15.5t4.5 15.5v19.5t1 18.5q1 33 3 52q2 10 6 24t20 20q20 8 35 -8q8 -8 10 -20t0 -28q-2 -25 -9 -56q-2 -8 -3.5 -15t-3.5 -15v-52t-1 -56q-1 -122 -3.5 -207t-13.5 -120q-20 -59 -62 -84q-27 -15 -58 -15z
M180 553q-8 0 -11 1q-39 5 -65 29q-30 27 -35 67q-2 12 5.5 22t19.5 12q13 2 22.5 -6t11.5 -20q3 -21 17.5 -32t29.5 -13q18 -2 38 12.5t30 44.5q4 12 15 18t22 2q12 -4 18 -15t2 -23q-16 -49 -53 -76q-31 -23 -67 -23z" />
    <glyph glyph-name="ccircumflex" unicode="&#x109;" horiz-adv-x="378" 
d="M238 5q-34 0 -62 7q-71 19 -113 68q-50 61 -50 155q0 110 55 182q25 32 56.5 52t66.5 25q47 6 83 -18q39 -25 51 -75q3 -12 -3 -22.5t-18 -14.5q-12 -3 -23 3.5t-14 18.5q-7 26 -25 39t-44 9q-22 -2 -43.5 -16t-38.5 -37q-15 -20 -29 -55t-14 -91q0 -40 10 -68.5
t26 -47.5t35.5 -30t38.5 -16q42 -12 83 -6q20 4 29 9t11 7q5 11 17 14.5t23 -2.5t14.5 -18t-1.5 -23q-19 -33 -76 -45q-20 -4 -45 -4zM277 529q-15 0 -25 13l-3 4l-18 25.5t-21 27.5t-17 19t-10 9q-2 -2 -4.5 -5t-7.5 -8l-25 -36l-11.5 -17l-10.5 -15q-8 -10 -20 -11.5
t-22 6.5t-12 20t6 22t20 28q20 30 39.5 53.5t45.5 24.5q25 2 52 -25.5t65 -82.5l3 -4q8 -11 6 -23t-13 -19q-8 -6 -17 -6z" />
    <glyph glyph-name="cdotaccent" unicode="&#x10b;" horiz-adv-x="378" 
d="M238 5q-34 0 -62 7q-71 19 -113 68q-50 61 -50 155q0 110 55 182q25 32 56.5 52t66.5 25q47 6 83 -18q39 -25 51 -75q3 -12 -3 -22.5t-18 -14.5q-12 -3 -23 3.5t-14 18.5q-7 26 -25 39t-44 9q-22 -2 -43.5 -16t-38.5 -37q-15 -20 -29 -55t-14 -91q0 -40 10 -68.5
t26 -47.5t35.5 -30t38.5 -16q42 -12 83 -6q20 4 29 9t11 7q5 11 17 14.5t23 -2.5t14.5 -18t-1.5 -23q-19 -33 -76 -45q-20 -4 -45 -4zM164 615q11 13 28 13q13 0 21.5 -8.5t8.5 -21.5q0 -11 -6 -18q0 -3 2 -7q3 -12 -3.5 -23t-18.5 -14q-2 0 -4 -0.5t-4 -0.5q-22 0 -29 23
q0 1 -1 5.5t-2 11.5q-1 8 0 19t8 21z" />
    <glyph glyph-name="ebreve" unicode="&#x115;" horiz-adv-x="363" 
d="M225 1q-27 0 -54 6q-68 17 -109 69q-49 63 -48 159q0 111 55 186q25 33 57 53t67 25q46 6 84 -18q39 -27 51 -77q1 -1 1 -2q9 -59 -10 -106q-18 -46 -55 -75q-35 -27 -76 -35q-43 -9 -82 7q-12 5 -17 16t0 23q5 11 16.5 16.5t22.5 0.5q23 -10 49.5 -4.5t48.5 23.5
q27 21 38 53t6 70q-8 26 -25.5 39t-43.5 9q-23 -2 -45 -16.5t-39 -37.5q-15 -20 -29 -56.5t-15 -93.5q0 -46 11.5 -77t29 -50t37 -28.5t35.5 -13.5q37 -10 71 -2q17 4 23.5 8.5t7.5 6.5q6 11 17.5 14.5t22.5 -1.5q11 -6 15 -18t-2 -23q-17 -33 -70 -45q-11 -3 -22.5 -4
t-23.5 -1zM176 553q-8 0 -11 1q-39 5 -65 29q-30 27 -35 67q-2 12 5.5 22t19.5 12q13 2 22.5 -6t11.5 -20q3 -21 17.5 -32t29.5 -13q18 -2 38 12.5t30 44.5q4 12 15 18t22 2q12 -4 18 -15t2 -23q-16 -49 -53 -76q-31 -23 -67 -23z" />
    <glyph glyph-name="gcircumflex" unicode="&#x11d;" horiz-adv-x="371" 
d="M200 -252q-8 0 -15 1t-15 3q-26 6 -49 22t-40 39q-17 25 -24 54.5t-2 59.5q2 12 12.5 19.5t22.5 5.5t19.5 -12.5t5.5 -22.5q-4 -20 0.5 -37.5t14.5 -32t24.5 -24t29.5 -13.5q8 -2 18.5 -2t21.5 5t21 17t17 35q4 13 7 39t4.5 59.5t2.5 73t1 78.5q-19 -36 -39 -59
q-44 -53 -96 -53h-1q-33 0 -59.5 16.5t-43.5 48.5q-16 31 -21 71.5t2 86.5q6 46 22.5 89t42.5 78q44 62 105 89t133 16q13 -2 20.5 -12t5.5 -22t-12 -19.5t-23 -5.5q-35 5 -63 -0.5t-50 -18t-39 -29t-29 -33.5q-21 -29 -35 -65.5t-19 -74.5q-5 -37 -1.5 -68.5t15.5 -53.5
q16 -33 49 -33h1q23 0 50 31q21 26 41 68.5t37 96.5q2 8 4.5 15.5t4.5 15.5v19.5t1 18.5q1 33 3 52q2 10 6 24t20 20q20 8 35 -8q8 -8 10 -20t0 -28q-2 -25 -9 -56q-2 -8 -3.5 -15t-3.5 -15v-52t-1 -56q-1 -122 -3.5 -207t-13.5 -120q-20 -59 -62 -84q-27 -15 -58 -15z
M274 529q-15 0 -25 13l-3 4l-18 25.5t-21 27.5t-17 19t-10 9q-2 -2 -4.5 -5t-7.5 -8l-25 -36l-11.5 -17l-10.5 -15q-8 -10 -20 -11.5t-22 6.5t-12 20t6 22t20 28q20 30 39.5 53.5t45.5 24.5q25 2 52 -25.5t65 -82.5l3 -4q8 -11 6 -23t-13 -19q-8 -6 -17 -6z" />
    <glyph glyph-name="gdotaccent" unicode="&#x121;" horiz-adv-x="371" 
d="M200 -252q-8 0 -15 1t-15 3q-26 6 -49 22t-40 39q-17 25 -24 54.5t-2 59.5q2 12 12.5 19.5t22.5 5.5t19.5 -12.5t5.5 -22.5q-4 -20 0.5 -37.5t14.5 -32t24.5 -24t29.5 -13.5q8 -2 18.5 -2t21.5 5t21 17t17 35q4 13 7 39t4.5 59.5t2.5 73t1 78.5q-19 -36 -39 -59
q-44 -53 -96 -53h-1q-33 0 -59.5 16.5t-43.5 48.5q-16 31 -21 71.5t2 86.5q6 46 22.5 89t42.5 78q44 62 105 89t133 16q13 -2 20.5 -12t5.5 -22t-12 -19.5t-23 -5.5q-35 5 -63 -0.5t-50 -18t-39 -29t-29 -33.5q-21 -29 -35 -65.5t-19 -74.5q-5 -37 -1.5 -68.5t15.5 -53.5
q16 -33 49 -33h1q23 0 50 31q21 26 41 68.5t37 96.5q2 8 4.5 15.5t4.5 15.5v19.5t1 18.5q1 33 3 52q2 10 6 24t20 20q20 8 35 -8q8 -8 10 -20t0 -28q-2 -25 -9 -56q-2 -8 -3.5 -15t-3.5 -15v-52t-1 -56q-1 -122 -3.5 -207t-13.5 -120q-20 -59 -62 -84q-27 -15 -58 -15z
M161 615q11 13 28 13q13 0 21.5 -8.5t8.5 -21.5q0 -11 -6 -18q0 -3 2 -7q3 -12 -3.5 -23t-18.5 -14q-2 0 -4 -0.5t-4 -0.5q-22 0 -29 23q0 1 -1 5.5t-2 11.5q-1 8 0 19t8 21z" />
    <glyph glyph-name="hcircumflex" unicode="&#x125;" horiz-adv-x="396" 
d="M384 209q-3 42 -7.5 78.5t-12.5 66.5q-20 80 -54 116q-29 30 -68 30q-47 0 -90 -61q-13 -18 -25 -41t-24 -51q0 9 -0.5 18.5t-1.5 18.5q-3 63 -7 122.5t-7.5 106t-5.5 75.5l-2 29q-2 13 -11 21t-22 7q-12 -1 -20 -10.5t-7 -21.5q0 -1 2 -28l5 -71l7 -100.5l8 -116.5
q3 -64 5 -117.5t4 -95.5q-8 -34 -13.5 -64.5t-6.5 -53.5q-2 -23 1 -35q5 -22 16.5 -28t16.5 -6q1 -1 4 -1q13 0 23 10q8 8 11.5 20.5t5.5 36.5q2 16 2 37v48v29q2 6 3.5 12.5t3.5 13.5q18 67 41.5 121.5t46.5 85.5q16 21 25.5 25.5t11.5 4.5q5 0 11 -2t14 -10
q6 -6 14.5 -20.5t16.5 -40t15 -65t11 -96.5q2 -35 3 -66t1 -55q0 -28 -1 -52q-1 -13 7.5 -22t20.5 -10q13 -1 22 7.5t10 21.5q0 1 0.5 16t0.5 39.5t-0.5 56.5t-3.5 67zM286 752q-15 0 -25 13l-3 4l-18 25.5t-21 27.5t-17 19t-10 9q-2 -2 -4.5 -5t-7.5 -8l-25 -36l-11.5 -17
l-10.5 -15q-8 -10 -20 -11.5t-22 6.5t-12 20t6 22t20 28q20 30 39.5 53.5t45.5 24.5q25 2 52 -25.5t65 -82.5l3 -4q8 -11 6 -23t-13 -19q-8 -6 -17 -6z" />
    <glyph glyph-name="itilde" unicode="&#x129;" horiz-adv-x="269" 
d="M146 4q-10 0 -18 5.5t-10 16.5q-10 36 -16 75t-8.5 76t-3 70t-0.5 57q0 29 1.5 57.5t4.5 52.5q1 11 2 19.5t3 15.5q2 10 5 18.5t12 14.5q11 6 23 3.5t19 -13.5q8 -16 0 -30q-2 -11 -6 -51.5t-5 -101.5q0 -73 6.5 -136.5t19.5 -110.5q4 -12 -2.5 -23t-18.5 -14
q-2 -1 -8 -1zM206 542q-20 0 -40.5 10.5t-40.5 24.5q-9 6 -18.5 11.5t-18.5 9.5q-12 6 -16 6q-2 -2 -3 -9.5t-2 -22.5q0 -13 -8.5 -21.5t-20.5 -8.5h-1q-12 0 -21 9t-8 21q0 22 6 47.5t29 38.5q19 10 37.5 5.5t26.5 -7.5q12 -5 25 -13l25 -16q9 -5 17 -10t16 -9q3 -2 5.5 -3
t4.5 -2q1 4 1.5 10.5t-0.5 16.5q-1 13 7 22t21 10t22 -7.5t10 -20.5q1 -21 -3 -46.5t-26 -38.5q-11 -7 -26 -7z" />
    <glyph glyph-name="uni012D" unicode="&#x12d;" horiz-adv-x="253" 
d="M137 4q-10 0 -18 5.5t-10 16.5q-10 36 -16 75t-8.5 76t-3 70t-0.5 57q0 29 1.5 57.5t4.5 52.5q1 11 2 19.5t3 15.5q2 10 5 18.5t12 14.5q11 6 23 3.5t19 -13.5q8 -16 0 -30q-2 -11 -6 -51.5t-5 -101.5q0 -73 6.5 -136.5t19.5 -110.5q4 -12 -2.5 -23t-18.5 -14
q-2 -1 -8 -1zM120 553q-8 0 -11 1q-39 5 -65 29q-30 27 -35 67q-2 12 5.5 22t19.5 12q13 2 22.5 -6t11.5 -20q3 -21 17.5 -32t29.5 -13q18 -2 38 12.5t30 44.5q4 12 15 18t22 2q12 -4 18 -15t2 -23q-16 -49 -53 -76q-31 -23 -67 -23z" />
    <glyph glyph-name="ij" unicode="&#x133;" horiz-adv-x="244" 
d="M222 384q3 -63 5.5 -149.5t-5.5 -176.5q-9 -103 -33 -171q-29 -87 -81 -126q-8 -6 -18 -6q-15 0 -24 12q-8 10 -6.5 22t12.5 20q37 28 60 97q11 32 18 71t12 86q4 43 5 86.5t0.5 85t-2.5 79t-3 67.5q-2 35 -2.5 54.5t0.5 29.5q2 12 11.5 20t22.5 6q12 -2 20 -11.5
t6 -22.5q-1 -6 -0.5 -27t2.5 -46zM70 4q-10 0 -18 5.5t-10 16.5q-10 36 -16 75t-8.5 76t-3 70t-0.5 57q0 29 1.5 57.5t4.5 52.5q1 11 2 19.5t3 15.5q2 10 5 18.5t12 14.5q11 6 23 3.5t19 -13.5q8 -16 0 -30q-2 -11 -6 -51.5t-5 -101.5q0 -73 6.5 -136.5t19.5 -110.5
q4 -12 -2.5 -23t-18.5 -14q-2 -1 -8 -1zM159 547q-10 14 -13 27q-1 7 -1.5 13t0.5 13q2 11 3.5 21t6.5 20q3 11 12 17q11 6 22 3q10 -3 17 -13.5t3 -21.5q-3 -7 -4.5 -13.5t-3.5 -13.5q0 -3 -0.5 -6.5t0.5 -6.5v-2q1 -1 1.5 -2t-1.5 1q6 -8 6 -16q0 -10 -8 -20
q-10 -8 -20 -8q-5 0 -11 2t-9 6zM52 641q5 4 9.5 6t10.5 2q12 0 20 -8t8 -20q0 -5 -1.5 -10.5t-6.5 -8.5q-1 -1 -2 -1.5t-2 -2.5q0 1 -1.5 -1t-1.5 -3l-2 -4v-2v3q-1 -2 -1 -6q0 1 0.5 1t0.5 1q0 -1 -1 -2q0 -5 0.5 -8.5t1.5 -7.5l-1 1q2 -12 -3 -19q-5 -10 -16 -13
q-11 -2 -22 3.5t-13 16.5q-2 12 -2.5 24t3.5 23q7 23 22 36zM83 570v3v-3zM199 585l1 -1v1h-1zM85 595q0 1 0.5 1t0.5 1q0 -1 -1 -2z" />
    <glyph glyph-name="jcircumflex" unicode="&#x135;" horiz-adv-x="263" 
d="M178 384q-2 25 -2.5 46t0.5 27q2 13 -6 22.5t-20 11.5q-13 2 -22.5 -6t-11.5 -20q-1 -10 -0.5 -29.5t2.5 -54.5q1 -30 3 -67.5t2.5 -79t-0.5 -85t-5 -86.5q-5 -47 -12 -86t-18 -71q-23 -69 -60 -97q-11 -8 -12.5 -20t6.5 -22q9 -12 24 -12q10 0 18 6q52 39 81 126
q24 68 33 171q8 90 5.5 176.5t-5.5 149.5zM225 529q-15 0 -25 13l-3 4l-18 25.5t-21 27.5t-17 19t-10 9q-2 -2 -4.5 -5t-7.5 -8l-25 -36l-11.5 -17l-10.5 -15q-8 -10 -20 -11.5t-22 6.5t-12 20t6 22t20 28q20 30 39.5 53.5t45.5 24.5q25 2 52 -25.5t65 -82.5l3 -4
q8 -11 6 -23t-13 -19q-8 -6 -17 -6z" />
    <glyph glyph-name="ldot" unicode="&#x140;" horiz-adv-x="226" 
d="M79 0q-7 0 -13 3q-17 8 -25 26t-12 33q-4 17 -6.5 38.5t-4.5 48.5q-3 45 -3 104.5t2 134.5q2 63 5.5 122.5t7 106t6 75t2.5 29.5q1 13 10.5 21t22.5 6q12 -1 20 -10.5t7 -21.5q0 -1 -2.5 -27.5t-5.5 -70t-6.5 -100t-5.5 -116.5q-3 -70 -3.5 -127t1.5 -102q2 -34 4.5 -56
t5.5 -35t5.5 -19t3.5 -8q10 -6 13 -16.5t-2 -21.5q-8 -17 -27 -17zM146 330q11 13 28 13t24.5 -13.5t6.5 -30t-8 -31t-19 -17.5q-2 0 -4 -0.5t-4 -0.5q-22 0 -29 23q0 1 -1 5.5t-2 11.5q-1 8 0 19t8 21z" />
    <glyph glyph-name="napostrophe" unicode="&#x149;" horiz-adv-x="450" 
d="M435 218q3 -37 5 -70.5t3 -59.5t1 -42.5v-17.5q-1 -12 -9.5 -20.5t-20.5 -8.5h-1q-12 0 -20.5 8.5t-8.5 21.5v15.5t-1 41t-2.5 58.5t-4.5 69q-6 62 -13.5 102.5t-15 65t-14 35.5t-10.5 15t-5 3q-7 0 -18 -12q-21 -24 -43 -79t-42 -132q-10 -37 -16 -69l-11 -57v-23
t-1 -18q0 -6 -0.5 -10t-1.5 -8q-3 -17 -11.5 -22.5t-14.5 -6.5q-2 -1 -6 -1q-15 0 -24 12q-6 8 -7 20.5t3 42.5q1 5 1.5 10t1.5 10q1 25 0 67t-3 108q-1 39 -2.5 75t-2.5 64.5t-1.5 46l-0.5 17.5q-1 12 7.5 21t21.5 10q12 0 21 -8t10 -21l0.5 -12.5t1.5 -33.5t2 -48.5
t2 -58.5l12 35t14 34q20 44 42 70q28 35 62 37q10 1 23 -2.5t27 -16.5q33 -31 50 -111q13 -58 21 -146zM122 647q2 -18 1 -35.5t-5 -34.5q-11 -41 -39 -69q-9 -9 -21 -9q-11 0 -21 8q-9 9 -9 21.5t8 21.5q18 18 23 38.5t4 37.5v4q-38 13 -47 50q-4 17 0.5 32t16.5 23
q10 8 22.5 8t23.5 -7q20 -12 30 -39t13 -50z" />
    <glyph glyph-name="obreve" unicode="&#x14f;" horiz-adv-x="400" 
d="M188 5q-77 0 -123 54q-33 41 -45 103q-5 27 -4.5 57t5.5 61q7 42 22 80t37 67q52 71 125 71h4q69 -3 117 -66q20 -26 33.5 -60t19.5 -73q5 -31 4.5 -62t-5.5 -60q-12 -65 -49 -108q-25 -30 -59 -46.5t-76 -17.5h-6zM205 438q-26 0 -45.5 -15.5t-31.5 -31.5
q-36 -48 -48 -121q-8 -53 0 -99t31 -73q28 -33 77 -33h4q58 2 91 42q26 31 35.5 80t1.5 103q-5 27 -14.5 53t-23.5 47t-33 34t-42 14h-2zM194 553q-8 0 -11 1q-39 5 -65 29q-30 27 -35 67q-2 12 5.5 22t19.5 12q13 2 22.5 -6t11.5 -20q3 -21 17.5 -32t29.5 -13
q18 -2 38 12.5t30 44.5q4 12 15 18t22 2q12 -4 18 -15t2 -23q-16 -49 -53 -76q-31 -23 -67 -23z" />
    <glyph glyph-name="scircumflex" unicode="&#x15d;" horiz-adv-x="313" 
d="M164 -2q-5 0 -11 0.5t-11 1.5q-56 9 -92 56q-37 51 -34 130q0 12 9 20.5t22 8.5q12 -1 20.5 -10t8.5 -21q-2 -31 4.5 -53.5t17 -37.5t24.5 -23.5t29 -10.5q23 -4 48 7.5t34 42.5q9 33 -20.5 65.5t-79.5 73.5q-36 29 -66 57.5t-39 62.5q-15 64 26 104q22 22 58 28
q35 6 67 -4q39 -11 67 -40q31 -32 42 -78q3 -12 -3.5 -22.5t-18.5 -13.5t-22.5 3.5t-13.5 18.5q-5 20 -14 33.5t-19 22t-19.5 13t-15.5 6.5q-20 5 -38 2.5t-29 -12.5q-17 -17 -8 -46q4 -20 29.5 -43t54.5 -46l48 -40t42 -43q45 -60 29 -118q-12 -44 -46.5 -69.5t-79.5 -25.5
zM245 529q-15 0 -25 13l-3 4l-18 25.5t-21 27.5t-17 19t-10 9q-2 -2 -4.5 -5t-7.5 -8l-25 -36l-11.5 -17l-10.5 -15q-8 -10 -20 -11.5t-22 6.5t-12 20t6 22t20 28q20 30 39.5 53.5t45.5 24.5q25 2 52 -25.5t65 -82.5l3 -4q8 -11 6 -23t-13 -19q-8 -6 -17 -6z" />
    <glyph glyph-name="utilde" unicode="&#x169;" 
d="M142 -2q-36 0 -62 28q-57 61 -61 265q-1 36 0 69t2.5 58.5t2.5 41t1 16.5q2 13 11.5 21t21.5 6q13 -1 21 -10.5t6 -21.5l-1 -15t-2.5 -40t-2.5 -57t0 -67q1 -59 6 -99t12 -66t14 -40t13 -20t10.5 -7.5t8.5 -1.5q15 0 35 23q23 28 43 83t35 132q5 21 8 41t5 38v30
q-1 18 -0.5 31t0.5 23q1 14 3.5 26t13.5 20q14 9 31 1q14 -7 16.5 -21.5t2.5 -25.5q1 -10 0 -23t-3 -29q-1 -9 -1.5 -17.5t-2.5 -17.5q1 -25 2.5 -57.5l3.5 -76.5q1 -39 3 -75.5l3.5 -65l2.5 -46l1 -17.5q1 -13 -7 -22t-21 -10q-12 -1 -21 7t-10 21q0 1 -2.5 34.5t-4.5 84.5
q-6 -17 -12.5 -32t-13.5 -29q-45 -88 -109 -90h-2zM253 542q-20 0 -40.5 10.5t-40.5 24.5q-9 6 -18.5 11.5t-18.5 9.5q-12 6 -16 6q-2 -2 -3 -9.5t-2 -22.5q0 -13 -8.5 -21.5t-20.5 -8.5h-1q-12 0 -21 9t-8 21q0 22 6 47.5t29 38.5q19 10 37.5 5.5t26.5 -7.5q12 -5 25 -13
l25 -16q9 -5 17 -10t16 -9q3 -2 5.5 -3t4.5 -2q1 4 1.5 10.5t-0.5 16.5q-1 13 7 22t21 10t22 -7.5t10 -20.5q1 -21 -3 -46.5t-26 -38.5q-11 -7 -26 -7z" />
    <glyph glyph-name="ubreve" unicode="&#x16d;" 
d="M142 -2q-36 0 -62 28q-57 61 -61 265q-1 36 0 69t2.5 58.5t2.5 41t1 16.5q2 13 11.5 21t21.5 6q13 -1 21 -10.5t6 -21.5l-1 -15t-2.5 -40t-2.5 -57t0 -67q1 -59 6 -99t12 -66t14 -40t13 -20t10.5 -7.5t8.5 -1.5q15 0 35 23q23 28 43 83t35 132q5 21 8 41t5 38v30
q-1 18 -0.5 31t0.5 23q1 14 3.5 26t13.5 20q14 9 31 1q14 -7 16.5 -21.5t2.5 -25.5q1 -10 0 -23t-3 -29q-1 -9 -1.5 -17.5t-2.5 -17.5q1 -25 2.5 -57.5l3.5 -76.5q1 -39 3 -75.5l3.5 -65l2.5 -46l1 -17.5q1 -13 -7 -22t-21 -10q-12 -1 -21 7t-10 21q0 1 -2.5 34.5t-4.5 84.5
q-6 -17 -12.5 -32t-13.5 -29q-45 -88 -109 -90h-2zM176 553q-8 0 -11 1q-39 5 -65 29q-30 27 -35 67q-2 12 5.5 22t19.5 12q13 2 22.5 -6t11.5 -20q3 -21 17.5 -32t29.5 -13q18 -2 38 12.5t30 44.5q4 12 15 18t22 2q12 -4 18 -15t2 -23q-16 -49 -53 -76q-31 -23 -67 -23z
" />
    <glyph glyph-name="wcircumflex" unicode="&#x175;" horiz-adv-x="482" 
d="M358 -2q-9 0 -20 5.5t-22 22.5q-9 13 -19 44q-8 25 -15.5 56t-14.5 63l-12 51.5t-12 46.5l-5.5 16t-4.5 12q-2 -5 -4.5 -13.5l-5.5 -19.5q-5 -23 -10 -50.5l-10 -55.5q-5 -29 -10.5 -56t-10.5 -49l-7 -22.5t-7 -17.5q-15 -27 -38 -30q-6 0 -15 2t-18 13q-7 7 -13 21
q-5 10 -8.5 23.5l-8.5 31.5q-6 28 -12.5 66.5t-13.5 87.5l-9.5 81t-7.5 71l-5 50.5l-2 19.5q-1 13 7 22t21 11q12 1 21.5 -7t10.5 -21l1.5 -17l4 -44t6.5 -62.5t9 -72.5q5 -45 11 -81l11 -64l3.5 -17.5t3.5 -14.5q5 18 8.5 40.5t8.5 46.5q5 34 11.5 67.5t14.5 60.5
q5 16 9.5 28t10.5 20q13 21 27 25.5t22 3.5q23 -2 35.5 -24.5t21.5 -49.5q8 -24 15 -54.5l14 -61.5l12 -51.5t13 -47.5q2 -6 3 -10.5t3 -9.5q6 22 14 66.5t17 125.5l7.5 73.5l6 63t3.5 44.5l1 17q2 13 11 21t21 7q13 -1 21 -10t7 -22l-1.5 -19.5l-4 -50.5l-6 -71t-8.5 -81
q-6 -49 -12.5 -87.5t-12.5 -67.5l-8.5 -31.5t-8.5 -24.5q-3 -7 -12.5 -21.5t-29.5 -16.5h-3zM329 529q-15 0 -25 13l-3 4l-18 25.5t-21 27.5t-17 19t-10 9q-2 -2 -4.5 -5t-7.5 -8l-25 -36l-11.5 -17l-10.5 -15q-8 -10 -20 -11.5t-22 6.5t-12 20t6 22t20 28q20 30 39.5 53.5
t45.5 24.5q25 2 52 -25.5t65 -82.5l3 -4q8 -11 6 -23t-13 -19q-8 -6 -17 -6z" />
    <glyph glyph-name="ycircumflex" unicode="&#x177;" 
d="M280 -257q-9 0 -17 5q-11 8 -13 19.5t5 22.5q2 2 5.5 14t8.5 47q3 23 5 55t3 71q2 38 2 80.5t-1 84.5q-14 -38 -32 -69q-45 -76 -103 -76h-2q-38 0 -68 33q-34 39 -49 119q-12 61 -15 147q-1 36 -0.5 68.5t2 57.5t2.5 40t1 16q1 13 10.5 21t21.5 7q13 -2 21 -11t7 -22
l-1.5 -14.5t-2.5 -39t-1.5 -56t0.5 -66.5q2 -58 7.5 -98.5t13 -66.5t15 -40.5t13.5 -21.5q8 -9 14 -11t11 -2q15 -1 33 20q23 26 44.5 81t38.5 130l9.5 45t6.5 41v44q0 14 0.5 24t1.5 18q0 7 2 15q3 14 12 20t18 7q18 0 28 -16q4 -6 6 -19t-2 -50q-1 -21 -6 -47
q1 -20 1 -42.5t1 -43.5q1 -71 1.5 -153t-1.5 -156q-2 -59 -5 -98t-7.5 -63.5t-9.5 -37.5t-10 -20q-10 -13 -25 -13zM270 529q-15 0 -25 13l-3 4l-18 25.5t-21 27.5t-17 19t-10 9q-2 -2 -4.5 -5t-7.5 -8l-25 -36l-11.5 -17l-10.5 -15q-8 -10 -20 -11.5t-22 6.5t-12 20t6 22
t20 28q20 30 39.5 53.5t45.5 24.5q25 2 52 -25.5t65 -82.5l3 -4q8 -11 6 -23t-13 -19q-8 -6 -17 -6z" />
    <glyph glyph-name="longs" unicode="&#x17f;" horiz-adv-x="360" 
d="M140 262q2 -41 4 -77.5t4 -65.5q2 -36 3 -59.5t1 -34.5q0 -12 -9 -20.5t-21 -8.5h-1q-12 0 -20.5 9t-8.5 22q0 8 -1 32t-3 56t-4 68.5l-4 76.5h-43q-12 0 -20.5 9t-8.5 22q1 12 10 20.5t21 8.5q18 -2 39 0q-3 83 -2 162.5t10 135.5q9 60 34 92q27 38 70 38
q28 0 54.5 -18.5t49.5 -53.5q22 -34 37 -80t23 -102q2 -12 -5.5 -22t-19.5 -12t-22 5.5t-12 20.5q-9 62 -24 99.5t-28 57.5q-16 25 -30 35t-24 10q-14 0 -26.5 -22t-17.5 -57q-4 -26 -6 -59t-3 -70.5t-0.5 -77.5t2.5 -80z" />
    <glyph glyph-name="hbar" unicode="&#x127;" horiz-adv-x="506" 
d="M490 209q3 -35 3.5 -67t0.5 -56.5t-0.5 -39.5t-0.5 -16q-1 -13 -10 -21.5t-22 -7.5q-12 1 -20.5 10t-7.5 22q1 24 1 52q0 24 -1 55t-3 66q-4 57 -11 96.5t-15 65t-16.5 40t-14.5 20.5q-8 8 -14 10t-11 2q-2 0 -11.5 -4.5t-25.5 -25.5q-23 -31 -46.5 -85.5t-41.5 -121.5
q-2 -7 -3.5 -13.5t-3.5 -12.5v-29v-48t-2 -37q-2 -24 -5.5 -36.5t-11.5 -20.5q-10 -10 -23 -10q-3 0 -4 1q-5 0 -16.5 6t-16.5 28q-3 12 -1 35q1 23 6.5 53.5t13.5 64.5q-2 42 -4 95.5t-5 117.5l-6 87t-5 80q-46 2 -101 9q-13 2 -20.5 11.5t-5.5 21.5q2 13 11.5 20.5
t21.5 5.5q25 -3 47 -5t42 -3q-3 40 -4.5 64t-1.5 25q-1 12 7 21.5t20 10.5q13 1 22 -7t11 -21q0 -1 2 -26t5 -67q24 1 45 3t40 4q12 1 21.5 -6.5t11.5 -20.5q2 -12 -6 -21.5t-20 -11.5l-42 -4t-46 -3q2 -41 5 -86.5l6 -93.5q1 -9 1.5 -18.5t0.5 -18.5q12 28 24 51t25 41
q43 61 90 61q39 0 68 -30q34 -36 54 -116q8 -30 12.5 -66.5t7.5 -78.5z" />
    <glyph glyph-name="tbar" unicode="&#x167;" horiz-adv-x="359" 
d="M331 211q12 -4 18 -15t2 -22q-21 -68 -52 -109q-31 -43 -70 -58q-10 -3 -19.5 -5t-19.5 -2q-29 0 -54 16q-36 21 -49 76.5t-13 146.5q-7 -2 -13.5 -3.5t-13.5 -3.5q-12 -3 -22.5 3t-14.5 18q-3 11 3 22.5t19 14.5l21.5 6t21.5 5q0 37 3 79l-17.5 -2l-16.5 -2q-1 -1 -4 -1
q-11 0 -19.5 7.5t-10.5 18.5q-2 13 5.5 22.5t20.5 11.5q4 1 16 2.5l29 3.5q1 16 1.5 32t2.5 33q2 42 4.5 85.5t4.5 91.5q1 12 10 20.5t21 7.5q13 -1 21.5 -10t7.5 -21q-2 -48 -4.5 -91.5t-4.5 -86.5q-1 -14 -1.5 -27t-1.5 -26q19 3 38 5t35.5 4t29 3t18.5 1q12 0 21 -8.5
t9 -21.5q0 -12 -9 -21t-21 -9q-9 0 -45 -4t-80 -10q-2 -20 -2.5 -38.5t-1.5 -36.5q7 2 14 2.5t14 2.5q33 5 61 7.5t53 2.5q14 0 22.5 -8.5t8.5 -20.5q0 -13 -8 -21.5t-19 -10.5q-31 -1 -66.5 -3.5t-80.5 -11.5q0 -17 0.5 -32.5t1.5 -29.5q1 -33 4.5 -55t8 -36.5t9 -21.5
t9.5 -10q20 -12 41 -3q26 9 48 42.5t39 85.5q4 11 15 17t22 2z" />
    <glyph glyph-name="lslash" unicode="&#x142;" horiz-adv-x="288" 
d="M169 0q-7 0 -13 3q-17 8 -25 26t-12 33q-4 17 -6.5 38.5t-4.5 48.5q-5 67 -3 168q-14 -6 -28.5 -11.5l-30.5 -11.5q-11 -5 -22 0.5t-16 16.5q-5 12 0.5 23t16.5 15q23 9 43.5 18l38.5 17v4q2 63 5.5 122.5t7 106t6 75t2.5 29.5q1 13 10.5 21t22.5 6q12 -1 20 -10.5
t7 -21.5q0 -1 -2 -26t-5 -66.5t-6.5 -95t-6.5 -111.5q19 11 35 21.5l30 20.5q10 6 22 4.5t20 -12.5q7 -11 4.5 -23t-12.5 -19l-45 -29t-54 -32l-2 -1q-3 -104 0 -174q2 -34 4.5 -56t5.5 -35t5.5 -19t3.5 -8q10 -6 13 -16.5t-2 -21.5q-8 -17 -27 -17z" />
    <glyph glyph-name="dcroat" unicode="&#x111;" horiz-adv-x="535" 
d="M231 -1q-49 0 -91 17q-61 24 -94 83q-22 38 -29.5 85.5t-0.5 99.5q6 49 23.5 91.5t43.5 72.5q30 35 67 45.5t74 -4.5q70 -28 117 -109v1l2 94.5t2 88.5q-43 2 -94 9q-13 2 -20.5 11.5t-5.5 21.5q2 13 11.5 20.5t21.5 5.5q25 -3 47 -5t42 -3q1 45 2 72.5t1 28.5
q1 13 10 21.5t22 7.5q12 0 20.5 -9t7.5 -22q0 -1 -1 -27.5t-2 -71.5q25 1 45.5 3l40.5 4q12 1 21.5 -6.5t11.5 -20.5q2 -12 -6 -21.5t-20 -11.5q-22 -3 -45.5 -4.5t-49.5 -2.5q-2 -38 -2.5 -79.5t-1.5 -85.5q-2 -60 -2.5 -106t-0.5 -82q3 -18 5 -34.5t3 -30.5q5 -46 3 -83
q-1 -27 -5 -39.5t-14 -19.5q-17 -10 -33 -1q-11 7 -13.5 16.5t-3.5 15.5q0 5 -0.5 11t-1.5 14q0 14 -0.5 35t-0.5 47v30t1 34q-2 6 -3 12t-3 13q-6 28 -16.5 59t-26 58.5t-37 50t-50.5 34.5q-39 15 -74 -25q-20 -23 -34 -57.5t-19 -73t0 -78t23 -70.5q51 -89 188 -65
q12 2 22.5 -4.5t12.5 -19.5q2 -12 -5 -22.5t-19 -12.5q-35 -6 -66 -6z" />
    <glyph glyph-name="eng" unicode="&#x14b;" horiz-adv-x="352" 
d="M208 -245q-15 0 -25 13q-7 11 -5 23t13 19q28 19 47 63t28 110q4 29 5.5 58t1.5 55t-1 48t-2 37q-7 114 -26 184q-11 43 -21.5 56.5t-12.5 12.5q-7 0 -18 -12q-21 -24 -43 -79t-42 -132q-10 -37 -16 -69l-11 -57v-23t-1 -18q0 -6 -0.5 -10t-1.5 -8q-3 -17 -11.5 -22.5
t-14.5 -6.5q-17 -5 -30 11q-6 8 -7 20.5t3 42.5q1 5 1.5 9.5t1.5 9.5q1 26 0 67.5t-3 107.5q-1 39 -2.5 75t-2.5 64.5t-1.5 46l-0.5 17.5q-1 13 7.5 22t21.5 10q12 0 21 -8t10 -21l0.5 -12.5t1.5 -33.5t2 -48.5t2 -58.5q6 18 12.5 35l13.5 34q20 44 42 70q28 35 63 37
q13 1 30.5 -6t34.5 -32q18 -27 30 -76q10 -36 16.5 -85t11.5 -109q1 -17 2 -40t1 -51t-1.5 -58.5t-5.5 -61.5q-23 -161 -102 -215q-8 -5 -16 -5z" />
    <glyph glyph-name="colon" unicode=":" horiz-adv-x="111" 
d="M26 80q11 13 28 13t24.5 -13.5t6.5 -30t-8 -31t-19 -17.5q-2 0 -4 -0.5t-4 -0.5q-22 0 -29 23q0 1 -1 5.5t-2 11.5q-1 8 0 19t8 21zM26 412q11 13 28 13t24.5 -13.5t6.5 -30t-8 -31t-19 -17.5q-2 0 -4 -0.5t-4 -0.5q-22 0 -29 23q0 1 -1 5.5t-2 11.5q-1 8 0 19t8 21z" />
    <glyph glyph-name="semicolon" unicode=";" horiz-adv-x="135" 
d="M122 46q-3 23 -13 50t-30 39q-11 7 -23.5 7t-22.5 -8q-12 -8 -16.5 -23t-0.5 -32q9 -37 47 -50v-4q1 -17 -4 -37.5t-23 -38.5q-8 -9 -8 -21.5t9 -21.5q10 -8 21 -8q12 0 21 9q28 28 39 69q4 17 5 34.5t-1 35.5zM24 412q11 13 28 13t24.5 -13.5t6.5 -30t-8 -31t-19 -17.5
q-2 0 -4 -0.5t-4 -0.5q-22 0 -29 23q0 1 -1 5.5t-2 11.5q-1 8 0 19t8 21z" />
    <glyph glyph-name="A" unicode="A" horiz-adv-x="403" 
d="M391 297q2 -13 -4.5 -23t-19.5 -13l-12.5 -2l-13.5 -2q1 -47 1.5 -89.5t0 -74.5t-1 -51t-0.5 -20q-1 -12 -9.5 -20.5t-21.5 -7.5q-13 0 -21 9t-8 22l0.5 18t1 49t0.5 71.5t-1 85.5q-39 -4 -79.5 -5.5t-82.5 -3.5h-15q-2 -42 -2 -79.5v-67t1 -48.5t1 -23q2 -11 -5 -21
t-18 -12q-2 -1 -6 -1q-11 0 -19.5 6.5t-10.5 17.5q-1 4 -1.5 15.5t-1 25.5t-0.5 27.5v21.5v60.5t2 75.5h-3q-12 0 -20.5 8t-9.5 20q0 13 8.5 22t20.5 10h6q3 58 8.5 107.5t13.5 91.5q19 110 56 161q27 37 65 42q34 3 62 -22q42 -40 64 -156q8 -42 13.5 -93t9.5 -112
q4 1 8 1.5t9 1.5q12 2 22.5 -4.5t12.5 -18.5zM119 300q42 2 82 3.5t78 5.5q-5 93 -14 153t-19 96.5t-19.5 53t-15.5 22.5q-5 5 -8.5 5.5t-5.5 0.5q-11 -2 -21 -15q-8 -9 -17.5 -29.5t-19.5 -58t-18.5 -95.5t-13.5 -142h12z" />
    <glyph glyph-name="Agrave" unicode="&#xc0;" horiz-adv-x="403" 
d="M391 297q-2 12 -12.5 18.5t-22.5 4.5q-5 -1 -9 -1.5t-8 -1.5q-4 61 -9.5 112t-13.5 93q-22 116 -64 156q-28 25 -62 22q-38 -5 -65 -42q-37 -51 -56 -161q-8 -42 -13.5 -91.5t-8.5 -107.5h-6q-12 -1 -20.5 -10t-8.5 -22q1 -12 9.5 -20t20.5 -8h3q-2 -41 -2 -75.5v-60.5
v-21.5t0.5 -27.5t1 -25.5t1.5 -15.5q2 -11 10.5 -17.5t19.5 -6.5q4 0 6 1q11 2 18 12t5 21q0 4 -1 23t-1 48.5v67t2 79.5h15q42 2 82.5 3.5t79.5 5.5q1 -45 1 -85.5t-0.5 -71.5t-1 -49l-0.5 -18q0 -13 8 -22t21 -9q13 -1 21.5 7.5t9.5 20.5q0 1 0.5 20t1 51t0 74.5
t-1.5 89.5l13.5 2l12.5 2q13 3 19.5 13t4.5 23zM119 300h-12q5 84 13.5 142t18.5 95.5t19.5 58t17.5 29.5q10 13 21 15q2 0 5.5 -0.5t8.5 -5.5q6 -6 15.5 -22.5t19.5 -53t19 -96.5t14 -153q-38 -4 -78 -5.5t-82 -3.5zM243 740q-10 0 -19 7q-26 21 -46.5 43.5t-40.5 49.5
q-8 10 -6 22t12 20q11 7 23 5t19 -12q17 -23 35.5 -43t41.5 -38q10 -8 11 -20.5t-7 -22.5q-9 -11 -23 -11z" />
    <glyph glyph-name="Aacute" unicode="&#xc1;" horiz-adv-x="403" 
d="M391 297q2 -13 -4.5 -23t-19.5 -13l-12.5 -2l-13.5 -2q1 -47 1.5 -89.5t0 -74.5t-1 -51t-0.5 -20q-1 -12 -9.5 -20.5t-21.5 -7.5q-13 0 -21 9t-8 22l0.5 18t1 49t0.5 71.5t-1 85.5q-39 -4 -79.5 -5.5t-82.5 -3.5h-15q-2 -42 -2 -79.5v-67t1 -48.5t1 -23q2 -11 -5 -21
t-18 -12q-2 -1 -6 -1q-11 0 -19.5 6.5t-10.5 17.5q-1 4 -1.5 15.5t-1 25.5t-0.5 27.5v21.5v60.5t2 75.5h-3q-12 0 -20.5 8t-9.5 20q0 13 8.5 22t20.5 10h6q3 58 8.5 107.5t13.5 91.5q19 110 56 161q27 37 65 42q34 3 62 -22q42 -40 64 -156q8 -42 13.5 -93t9.5 -112
q4 1 8 1.5t9 1.5q12 2 22.5 -4.5t12.5 -18.5zM119 300q42 2 82 3.5t78 5.5q-5 93 -14 153t-19 96.5t-19.5 53t-15.5 22.5q-5 5 -8.5 5.5t-5.5 0.5q-11 -2 -21 -15q-8 -9 -17.5 -29.5t-19.5 -58t-18.5 -95.5t-13.5 -142h12zM160 740q-14 0 -23 11q-8 10 -7 22.5t11 20.5
q23 18 41.5 38t35.5 43q7 10 19 12t23 -5q10 -8 12 -20t-6 -22q-20 -27 -40.5 -49.5t-46.5 -43.5q-9 -7 -19 -7z" />
    <glyph glyph-name="Acircumflex" unicode="&#xc2;" horiz-adv-x="403" 
d="M391 297q-2 12 -12.5 18.5t-22.5 4.5q-5 -1 -9 -1.5t-8 -1.5q-4 61 -9.5 112t-13.5 93q-22 116 -64 156q-28 25 -62 22q-38 -5 -65 -42q-37 -51 -56 -161q-8 -42 -13.5 -91.5t-8.5 -107.5h-6q-12 -1 -20.5 -10t-8.5 -22q1 -12 9.5 -20t20.5 -8h3q-2 -41 -2 -75.5v-60.5
v-21.5t0.5 -27.5t1 -25.5t1.5 -15.5q2 -11 10.5 -17.5t19.5 -6.5q4 0 6 1q11 2 18 12t5 21q0 4 -1 23t-1 48.5v67t2 79.5h15q42 2 82.5 3.5t79.5 5.5q1 -45 1 -85.5t-0.5 -71.5t-1 -49l-0.5 -18q0 -13 8 -22t21 -9q13 -1 21.5 7.5t9.5 20.5q0 1 0.5 20t1 51t0 74.5
t-1.5 89.5l13.5 2l12.5 2q13 3 19.5 13t4.5 23zM119 300h-12q5 84 13.5 142t18.5 95.5t19.5 58t17.5 29.5q10 13 21 15q2 0 5.5 -0.5t8.5 -5.5q6 -6 15.5 -22.5t19.5 -53t19 -96.5t14 -153q-38 -4 -78 -5.5t-82 -3.5zM290 729q-15 0 -25 13l-3 4l-18 25.5t-21 27.5t-17 19
t-10 9q-2 -2 -4.5 -5t-7.5 -8l-25 -36l-11.5 -17l-10.5 -15q-8 -10 -20 -11.5t-22 6.5t-12 20t6 22t20 28q20 30 39.5 53.5t45.5 24.5q25 2 52 -25.5t65 -82.5l3 -4q8 -11 6 -23t-13 -19q-8 -6 -17 -6z" />
    <glyph glyph-name="Atilde" unicode="&#xc3;" horiz-adv-x="403" 
d="M391 297q-2 12 -12.5 18.5t-22.5 4.5q-5 -1 -9 -1.5t-8 -1.5q-4 61 -9.5 112t-13.5 93q-22 116 -64 156q-28 25 -62 22q-38 -5 -65 -42q-37 -51 -56 -161q-8 -42 -13.5 -91.5t-8.5 -107.5h-6q-12 -1 -20.5 -10t-8.5 -22q1 -12 9.5 -20t20.5 -8h3q-2 -41 -2 -75.5v-60.5
v-21.5t0.5 -27.5t1 -25.5t1.5 -15.5q2 -11 10.5 -17.5t19.5 -6.5q4 0 6 1q11 2 18 12t5 21q0 4 -1 23t-1 48.5v67t2 79.5h15q42 2 82.5 3.5t79.5 5.5q1 -45 1 -85.5t-0.5 -71.5t-1 -49l-0.5 -18q0 -13 8 -22t21 -9q13 -1 21.5 7.5t9.5 20.5q0 1 0.5 20t1 51t0 74.5
t-1.5 89.5l13.5 2l12.5 2q13 3 19.5 13t4.5 23zM119 300h-12q5 84 13.5 142t18.5 95.5t19.5 58t17.5 29.5q10 13 21 15q2 0 5.5 -0.5t8.5 -5.5q6 -6 15.5 -22.5t19.5 -53t19 -96.5t14 -153q-38 -4 -78 -5.5t-82 -3.5zM273 742q-20 0 -40.5 10.5t-40.5 24.5q-9 6 -18.5 11.5
t-18.5 9.5q-12 6 -16 6q-2 -2 -3 -9.5t-2 -22.5q0 -13 -8.5 -21.5t-20.5 -8.5h-1q-12 0 -21 9t-8 21q0 22 6 47.5t29 38.5q19 10 37.5 5.5t26.5 -7.5q12 -5 25 -13l25 -16q9 -5 17 -10t16 -9q3 -2 5.5 -3t4.5 -2q1 4 1.5 10.5t-0.5 16.5q-1 13 7 22t21 10t22 -7.5t10 -20.5
q1 -21 -3 -46.5t-26 -38.5q-11 -7 -26 -7z" />
    <glyph glyph-name="Adieresis" unicode="&#xc4;" horiz-adv-x="403" 
d="M391 297q-2 12 -12.5 18.5t-22.5 4.5q-5 -1 -9 -1.5t-8 -1.5q-4 61 -9.5 112t-13.5 93q-22 116 -64 156q-28 25 -62 22q-38 -5 -65 -42q-37 -51 -56 -161q-8 -42 -13.5 -91.5t-8.5 -107.5h-6q-12 -1 -20.5 -10t-8.5 -22q1 -12 9.5 -20t20.5 -8h3q-2 -41 -2 -75.5v-60.5
v-21.5t0.5 -27.5t1 -25.5t1.5 -15.5q2 -11 10.5 -17.5t19.5 -6.5q4 0 6 1q11 2 18 12t5 21q0 4 -1 23t-1 48.5v67t2 79.5h15q42 2 82.5 3.5t79.5 5.5q1 -45 1 -85.5t-0.5 -71.5t-1 -49l-0.5 -18q0 -13 8 -22t21 -9q13 -1 21.5 7.5t9.5 20.5q0 1 0.5 20t1 51t0 74.5
t-1.5 89.5l13.5 2l12.5 2q13 3 19.5 13t4.5 23zM119 300h-12q5 84 13.5 142t18.5 95.5t19.5 58t17.5 29.5q10 13 21 15q2 0 5.5 -0.5t8.5 -5.5q6 -6 15.5 -22.5t19.5 -53t19 -96.5t14 -153q-38 -4 -78 -5.5t-82 -3.5zM226 815q11 13 28 13q13 0 21.5 -8.5t8.5 -21.5
q0 -11 -6 -18q0 -3 2 -7q3 -12 -3.5 -23t-18.5 -14q-2 0 -4 -0.5t-4 -0.5q-22 0 -29 23q0 1 -1 5.5t-2 11.5q-1 8 0 19t8 21zM128 815q11 13 28 13q13 0 21.5 -8.5t8.5 -21.5q0 -11 -6 -18q0 -3 2 -7q3 -12 -3.5 -23t-18.5 -14q-2 0 -4 -0.5t-4 -0.5q-22 0 -29 23
q0 1 -1 5.5t-2 11.5q-1 8 0 19t8 21z" />
    <glyph glyph-name="Aring" unicode="&#xc5;" horiz-adv-x="403" 
d="M391 297q-2 12 -12.5 18.5t-22.5 4.5q-5 -1 -9 -1.5t-8 -1.5q-4 61 -9.5 112t-13.5 93q-22 116 -64 156q-28 25 -62 22q-38 -5 -65 -42q-37 -51 -56 -161q-8 -42 -13.5 -91.5t-8.5 -107.5h-6q-12 -1 -20.5 -10t-8.5 -22q1 -12 9.5 -20t20.5 -8h3q-2 -41 -2 -75.5v-60.5
v-21.5t0.5 -27.5t1 -25.5t1.5 -15.5q2 -11 10.5 -17.5t19.5 -6.5q4 0 6 1q11 2 18 12t5 21q0 4 -1 23t-1 48.5v67t2 79.5h15q42 2 82.5 3.5t79.5 5.5q1 -45 1 -85.5t-0.5 -71.5t-1 -49l-0.5 -18q0 -13 8 -22t21 -9q13 -1 21.5 7.5t9.5 20.5q0 1 0.5 20t1 51t0 74.5
t-1.5 89.5l13.5 2l12.5 2q13 3 19.5 13t4.5 23zM119 300h-12q5 84 13.5 142t18.5 95.5t19.5 58t17.5 29.5q10 13 21 15q2 0 5.5 -0.5t8.5 -5.5q6 -6 15.5 -22.5t19.5 -53t19 -96.5t14 -153q-38 -4 -78 -5.5t-82 -3.5zM197 703q-27 0 -46 17t-24 46t10 56q15 29 49 39
q5 2 10 3t10 1q27 0 47 -20.5t23 -51.5q3 -28 -12 -54q-17 -28 -50 -34q-5 -1 -9 -1.5t-8 -0.5zM206 815q-2 0 -3 -0.5t-3 -0.5q-16 -5 -20.5 -18t-2.5 -23q1 -7 5 -13.5t15 -6.5q2 0 3.5 0.5t3.5 0.5q17 4 20 16.5t2 17.5q-1 10 -6.5 18.5t-13.5 8.5z" />
    <glyph glyph-name="Aogonek" unicode="&#x104;" horiz-adv-x="403" 
d="M391 297q2 -13 -4.5 -23t-19.5 -13l-12.5 -2l-13.5 -2q1 -47 1.5 -89.5t0 -74.5t-1 -51t-0.5 -20q-1 -11 -7.5 -18.5t-17.5 -9.5q-6 -6 -13.5 -16t-14 -21.5t-10.5 -23.5t-3 -24q1 -5 4 -8q5 -3 13 -4.5t17 -1.5t17.5 0.5t14.5 2.5q12 2 22.5 -4.5t13.5 -18.5
q2 -12 -4.5 -22.5t-18.5 -13.5q-2 0 -12.5 -2t-25.5 -2h-5q-43 0 -67 18q-25 19 -28 50q-5 48 30 99q13 19 23.5 30l11.5 12l1 1q1 26 1.5 81t-1.5 123q-39 -4 -79.5 -5.5t-82.5 -3.5h-15q-2 -42 -2 -79.5v-67t1 -48.5t1 -23q2 -11 -5 -21t-18 -12q-2 -1 -6 -1
q-11 0 -19.5 6.5t-10.5 17.5q-1 4 -1.5 15.5t-1 25.5t-0.5 27.5v21.5v60.5t2 75.5h-3q-12 0 -20.5 8t-9.5 20q0 13 8.5 22t20.5 10h6q3 58 8.5 107.5t13.5 91.5q19 110 56 161q27 37 65 42q34 3 62 -22q42 -40 64 -156q8 -42 13.5 -93t9.5 -112q4 1 8 1.5t9 1.5
q12 2 22.5 -4.5t12.5 -18.5zM119 300q42 2 82 3.5t78 5.5q-5 93 -14 153t-19 96.5t-19.5 53t-15.5 22.5q-5 5 -8.5 5.5t-5.5 0.5q-11 -2 -21 -15q-8 -9 -17.5 -29.5t-19.5 -58t-18.5 -95.5t-13.5 -142h12z" />
    <glyph glyph-name="Abreve" unicode="&#x102;" horiz-adv-x="403" 
d="M391 297q-2 12 -12.5 18.5t-22.5 4.5q-5 -1 -9 -1.5t-8 -1.5q-4 61 -9.5 112t-13.5 93q-22 116 -64 156q-28 25 -62 22q-38 -5 -65 -42q-37 -51 -56 -161q-8 -42 -13.5 -91.5t-8.5 -107.5h-6q-12 -1 -20.5 -10t-8.5 -22q1 -12 9.5 -20t20.5 -8h3q-2 -41 -2 -75.5v-60.5
v-21.5t0.5 -27.5t1 -25.5t1.5 -15.5q2 -11 10.5 -17.5t19.5 -6.5q4 0 6 1q11 2 18 12t5 21q0 4 -1 23t-1 48.5v67t2 79.5h15q42 2 82.5 3.5t79.5 5.5q1 -45 1 -85.5t-0.5 -71.5t-1 -49l-0.5 -18q0 -13 8 -22t21 -9q13 -1 21.5 7.5t9.5 20.5q0 1 0.5 20t1 51t0 74.5
t-1.5 89.5l13.5 2l12.5 2q13 3 19.5 13t4.5 23zM119 300h-12q5 84 13.5 142t18.5 95.5t19.5 58t17.5 29.5q10 13 21 15q2 0 5.5 -0.5t8.5 -5.5q6 -6 15.5 -22.5t19.5 -53t19 -96.5t14 -153q-38 -4 -78 -5.5t-82 -3.5zM196 753q-8 0 -11 1q-39 5 -65 29q-30 27 -35 67
q-2 12 5.5 22t19.5 12q13 2 22.5 -6t11.5 -20q3 -21 17.5 -32t29.5 -13q18 -2 38 12.5t30 44.5q4 12 15 18t22 2q12 -4 18 -15t2 -23q-16 -49 -53 -76q-31 -23 -67 -23z" />
    <glyph glyph-name="Amacron" unicode="&#x100;" horiz-adv-x="403" 
d="M391 297q-2 12 -12.5 18.5t-22.5 4.5q-5 -1 -9 -1.5t-8 -1.5q-4 61 -9.5 112t-13.5 93q-22 116 -64 156q-28 25 -62 22q-38 -5 -65 -42q-37 -51 -56 -161q-8 -42 -13.5 -91.5t-8.5 -107.5h-6q-12 -1 -20.5 -10t-8.5 -22q1 -12 9.5 -20t20.5 -8h3q-2 -41 -2 -75.5v-60.5
v-21.5t0.5 -27.5t1 -25.5t1.5 -15.5q2 -11 10.5 -17.5t19.5 -6.5q4 0 6 1q11 2 18 12t5 21q0 4 -1 23t-1 48.5v67t2 79.5h15q42 2 82.5 3.5t79.5 5.5q1 -45 1 -85.5t-0.5 -71.5t-1 -49l-0.5 -18q0 -13 8 -22t21 -9q13 -1 21.5 7.5t9.5 20.5q0 1 0.5 20t1 51t0 74.5
t-1.5 89.5l13.5 2l12.5 2q13 3 19.5 13t4.5 23zM119 300h-12q5 84 13.5 142t18.5 95.5t19.5 58t17.5 29.5q10 13 21 15q2 0 5.5 -0.5t8.5 -5.5q6 -6 15.5 -22.5t19.5 -53t19 -96.5t14 -153q-38 -4 -78 -5.5t-82 -3.5zM210 764q-29 0 -62 2t-71 7q-13 2 -20.5 11.5t-5.5 21.5
q2 13 11.5 20.5t21.5 5.5q81 -10 136.5 -8t98.5 7q12 1 21.5 -6.5t11.5 -20.5q2 -12 -6 -21.5t-20 -11.5q-26 -3 -54 -5t-62 -2z" />
    <glyph glyph-name="E" unicode="E" horiz-adv-x="384" 
d="M378 42q1 -13 -7 -22t-20 -11q-1 0 -11 -1t-26 -2t-36.5 -2l-42.5 -2q-17 -1 -32 -1.5t-28 -0.5q-47 0 -66.5 4.5t-28.5 9.5q-11 7 -15.5 19.5t-7.5 31.5q-2 13 -4 30.5t-3 39.5q-2 27 -3 60t-2 72l-1 1q-13 0 -21.5 9t-7.5 22q1 12 9.5 20t20.5 8v9q0 54 0.5 106.5
t1 95.5t1.5 72.5t2 36.5q1 13 9.5 21.5t19 13.5t21 7t16.5 3q33 4 89 6q23 0 45 -0.5t39.5 -1.5t28.5 -1.5t12 -0.5q13 -1 21 -10t7 -22q-1 -12 -10 -20.5t-22 -7.5q-15 1 -32 2q-14 1 -32.5 1t-38.5 1q-54 0 -79.5 -3t-34.5 -5q-1 -14 -1.5 -41.5t-1 -64t-1 -80.5t-0.5 -90
v-28q27 -1 57 -1t58.5 0.5t53 2.5t38.5 5q12 3 23 -3.5t14 -18.5q2 -12 -4 -22.5t-18 -13.5q-26 -6 -69 -8t-87 -2h-66q1 -60 3 -105t5 -66.5t5 -29.5q9 -2 35.5 -3t84.5 1q20 1 39.5 1.5t34.5 2.5q18 1 33 3q13 2 22 -6.5t11 -20.5z" />
    <glyph glyph-name="Egrave" unicode="&#xc8;" horiz-adv-x="384" 
d="M378 42q-2 12 -11 20.5t-22 6.5q-15 -2 -33 -3q-15 -2 -34.5 -2.5t-39.5 -1.5q-58 -2 -84.5 -1t-35.5 3q-2 8 -5 29.5t-5 66.5t-3 105h66q44 0 87 2t69 8q12 3 18 13.5t4 22.5q-3 12 -14 18.5t-23 3.5q-14 -3 -38.5 -5t-53 -2.5t-58.5 -0.5t-57 1v28q0 46 0.5 90t1 80.5
t1 64t1.5 41.5q9 2 34.5 5t79.5 3q20 -1 38.5 -1t32.5 -1q17 -1 32 -2q13 -1 22 7.5t10 20.5q1 13 -7 22t-21 10q-1 0 -12 0.5t-28.5 1.5t-39.5 1.5t-45 0.5q-56 -2 -89 -6q-6 -1 -16.5 -3t-21 -7t-19 -13.5t-9.5 -21.5q-1 -7 -2 -36.5t-1.5 -72.5t-1 -95.5t-0.5 -106.5v-9
q-12 0 -20.5 -8t-9.5 -20q-1 -13 7.5 -22t21.5 -9l1 -1q1 -39 2 -72t3 -60q1 -22 3 -39.5t4 -30.5q3 -19 7.5 -31.5t15.5 -19.5q9 -5 28.5 -9.5t66.5 -4.5q13 0 28 0.5t32 1.5l42.5 2t36.5 2t26 2t11 1q12 2 20 11t7 22zM233 740q-10 0 -19 7q-26 21 -46.5 43.5t-40.5 49.5
q-8 10 -6 22t12 20q11 7 23 5t19 -12q17 -23 35.5 -43t41.5 -38q10 -8 11 -20.5t-7 -22.5q-9 -11 -23 -11z" />
    <glyph glyph-name="Eacute" unicode="&#xc9;" horiz-adv-x="384" 
d="M378 42q1 -13 -7 -22t-20 -11q-1 0 -11 -1t-26 -2t-36.5 -2l-42.5 -2q-17 -1 -32 -1.5t-28 -0.5q-47 0 -66.5 4.5t-28.5 9.5q-11 7 -15.5 19.5t-7.5 31.5q-2 13 -4 30.5t-3 39.5q-2 27 -3 60t-2 72l-1 1q-13 0 -21.5 9t-7.5 22q1 12 9.5 20t20.5 8v9q0 54 0.5 106.5
t1 95.5t1.5 72.5t2 36.5q1 13 9.5 21.5t19 13.5t21 7t16.5 3q33 4 89 6q23 0 45 -0.5t39.5 -1.5t28.5 -1.5t12 -0.5q13 -1 21 -10t7 -22q-1 -12 -10 -20.5t-22 -7.5q-15 1 -32 2q-14 1 -32.5 1t-38.5 1q-54 0 -79.5 -3t-34.5 -5q-1 -14 -1.5 -41.5t-1 -64t-1 -80.5t-0.5 -90
v-28q27 -1 57 -1t58.5 0.5t53 2.5t38.5 5q12 3 23 -3.5t14 -18.5q2 -12 -4 -22.5t-18 -13.5q-26 -6 -69 -8t-87 -2h-66q1 -60 3 -105t5 -66.5t5 -29.5q9 -2 35.5 -3t84.5 1q20 1 39.5 1.5t34.5 2.5q18 1 33 3q13 2 22 -6.5t11 -20.5zM150 740q-14 0 -23 11q-8 10 -7 22.5
t11 20.5q23 18 41.5 38t35.5 43q7 10 19 12t23 -5q10 -8 12 -20t-6 -22q-20 -27 -40.5 -49.5t-46.5 -43.5q-9 -7 -19 -7z" />
    <glyph glyph-name="Ecircumflex" unicode="&#xca;" horiz-adv-x="384" 
d="M378 42q-2 12 -11 20.5t-22 6.5q-15 -2 -33 -3q-15 -2 -34.5 -2.5t-39.5 -1.5q-58 -2 -84.5 -1t-35.5 3q-2 8 -5 29.5t-5 66.5t-3 105h66q44 0 87 2t69 8q12 3 18 13.5t4 22.5q-3 12 -14 18.5t-23 3.5q-14 -3 -38.5 -5t-53 -2.5t-58.5 -0.5t-57 1v28q0 46 0.5 90t1 80.5
t1 64t1.5 41.5q9 2 34.5 5t79.5 3q20 -1 38.5 -1t32.5 -1q17 -1 32 -2q13 -1 22 7.5t10 20.5q1 13 -7 22t-21 10q-1 0 -12 0.5t-28.5 1.5t-39.5 1.5t-45 0.5q-56 -2 -89 -6q-6 -1 -16.5 -3t-21 -7t-19 -13.5t-9.5 -21.5q-1 -7 -2 -36.5t-1.5 -72.5t-1 -95.5t-0.5 -106.5v-9
q-12 0 -20.5 -8t-9.5 -20q-1 -13 7.5 -22t21.5 -9l1 -1q1 -39 2 -72t3 -60q1 -22 3 -39.5t4 -30.5q3 -19 7.5 -31.5t15.5 -19.5q9 -5 28.5 -9.5t66.5 -4.5q13 0 28 0.5t32 1.5l42.5 2t36.5 2t26 2t11 1q12 2 20 11t7 22zM280 729q-15 0 -25 13l-3 4l-18 25.5t-21 27.5
t-17 19t-10 9q-2 -2 -4.5 -5t-7.5 -8l-25 -36l-11.5 -17l-10.5 -15q-8 -10 -20 -11.5t-22 6.5t-12 20t6 22t20 28q20 30 39.5 53.5t45.5 24.5q25 2 52 -25.5t65 -82.5l3 -4q8 -11 6 -23t-13 -19q-8 -6 -17 -6z" />
    <glyph glyph-name="Edieresis" unicode="&#xcb;" horiz-adv-x="384" 
d="M378 42q-2 12 -11 20.5t-22 6.5q-15 -2 -33 -3q-15 -2 -34.5 -2.5t-39.5 -1.5q-58 -2 -84.5 -1t-35.5 3q-2 8 -5 29.5t-5 66.5t-3 105h66q44 0 87 2t69 8q12 3 18 13.5t4 22.5q-3 12 -14 18.5t-23 3.5q-14 -3 -38.5 -5t-53 -2.5t-58.5 -0.5t-57 1v28q0 46 0.5 90t1 80.5
t1 64t1.5 41.5q9 2 34.5 5t79.5 3q20 -1 38.5 -1t32.5 -1q17 -1 32 -2q13 -1 22 7.5t10 20.5q1 13 -7 22t-21 10q-1 0 -12 0.5t-28.5 1.5t-39.5 1.5t-45 0.5q-56 -2 -89 -6q-6 -1 -16.5 -3t-21 -7t-19 -13.5t-9.5 -21.5q-1 -7 -2 -36.5t-1.5 -72.5t-1 -95.5t-0.5 -106.5v-9
q-12 0 -20.5 -8t-9.5 -20q-1 -13 7.5 -22t21.5 -9l1 -1q1 -39 2 -72t3 -60q1 -22 3 -39.5t4 -30.5q3 -19 7.5 -31.5t15.5 -19.5q9 -5 28.5 -9.5t66.5 -4.5q13 0 28 0.5t32 1.5l42.5 2t36.5 2t26 2t11 1q12 2 20 11t7 22zM118 815q11 13 28 13q13 0 21.5 -8.5t8.5 -21.5
q0 -11 -6 -18q0 -3 2 -7q3 -12 -3.5 -23t-18.5 -14q-2 0 -4 -0.5t-4 -0.5q-22 0 -29 23q0 1 -1 5.5t-2 11.5q-1 8 0 19t8 21zM216 815q11 13 28 13q13 0 21.5 -8.5t8.5 -21.5q0 -11 -6 -18q0 -3 2 -7q3 -12 -3.5 -23t-18.5 -14q-2 0 -4 -0.5t-4 -0.5q-22 0 -29 23
q0 1 -1 5.5t-2 11.5q-1 8 0 19t8 21z" />
    <glyph glyph-name="Eogonek" unicode="&#x118;" horiz-adv-x="384" 
d="M378 42q1 -13 -7 -22t-20 -11q-1 0 -8.5 -0.5t-18.5 -1.5q-1 -2 -3 -4q-5 -5 -13.5 -15t-16.5 -22.5t-13 -26.5t-4 -27q1 -5 4 -8q5 -3 13 -4.5t17 -1.5t17.5 0.5t14.5 2.5q12 2 22.5 -4.5t13.5 -18.5q2 -12 -4.5 -22.5t-18.5 -13.5q-2 0 -12.5 -2t-25.5 -2h-5
q-43 0 -67 18q-25 19 -28 50q-5 47 28 96h-8q-17 -1 -32 -1.5t-28 -0.5q-47 0 -66.5 4.5t-28.5 9.5q-11 7 -15.5 19.5t-7.5 31.5q-2 13 -4 30.5t-3 39.5q-2 27 -3 60t-2 72l-1 1q-13 0 -21.5 9t-7.5 22q1 12 9.5 20t20.5 8v9q0 54 0.5 106.5t1 95.5t1.5 72.5t2 36.5
q1 13 9.5 21.5t19 13.5t21 7t16.5 3q33 4 89 6q23 0 45 -0.5t39.5 -1.5t28.5 -1.5t12 -0.5q13 -1 21 -10t7 -22q-1 -12 -10 -20.5t-22 -7.5q-15 1 -32 2q-14 1 -32.5 1t-38.5 1q-54 0 -79.5 -3t-34.5 -5q-1 -14 -1.5 -41.5t-1 -64t-1 -80.5t-0.5 -90v-28q27 -1 57 -1
t58.5 0.5t53 2.5t38.5 5q12 3 23 -3.5t14 -18.5q2 -12 -4 -22.5t-18 -13.5q-26 -6 -69 -8t-87 -2h-66q1 -60 3 -105t5 -66.5t5 -29.5q9 -2 35.5 -3t84.5 1q20 1 39.5 1.5t34.5 2.5q18 1 33 3q13 2 22 -6.5t11 -20.5z" />
    <glyph glyph-name="Ecaron" unicode="&#x11a;" horiz-adv-x="384" 
d="M378 42q1 -13 -7 -22t-20 -11q-1 0 -11 -1t-26 -2t-36.5 -2l-42.5 -2q-17 -1 -32 -1.5t-28 -0.5q-47 0 -66.5 4.5t-28.5 9.5q-11 7 -15.5 19.5t-7.5 31.5q-2 13 -4 30.5t-3 39.5q-2 27 -3 60t-2 72l-1 1q-13 0 -21.5 9t-7.5 22q1 12 9.5 20t20.5 8v9q0 54 0.5 106.5
t1 95.5t1.5 72.5t2 36.5q1 13 9.5 21.5t19 13.5t21 7t16.5 3q33 4 89 6q23 0 45 -0.5t39.5 -1.5t28.5 -1.5t12 -0.5q13 -1 21 -10t7 -22q-1 -12 -10 -20.5t-22 -7.5q-15 1 -32 2q-14 1 -32.5 1t-38.5 1q-54 0 -79.5 -3t-34.5 -5q-1 -14 -1.5 -41.5t-1 -64t-1 -80.5t-0.5 -90
v-28q27 -1 57 -1t58.5 0.5t53 2.5t38.5 5q12 3 23 -3.5t14 -18.5q2 -12 -4 -22.5t-18 -13.5q-26 -6 -69 -8t-87 -2h-66q1 -60 3 -105t5 -66.5t5 -29.5q9 -2 35.5 -3t84.5 1q20 1 39.5 1.5t34.5 2.5q18 1 33 3q13 2 22 -6.5t11 -20.5zM280 891q9 0 17 -6q11 -7 13 -19t-6 -23
l-3 -4q-38 -55 -65 -82.5t-52 -25.5q-26 1 -45.5 24.5t-39.5 53.5q-12 18 -20 28t-6 22t12 20t22 6.5t20 -11.5l10.5 -15l11.5 -17q13 -20 25 -36q5 -5 7.5 -8t4.5 -5q4 3 10 9t17 19t21 27.5l18 25.5l3 4q10 13 25 13z" />
    <glyph glyph-name="Emacron" unicode="&#x112;" horiz-adv-x="384" 
d="M378 42q-2 12 -11 20.5t-22 6.5q-15 -2 -33 -3q-15 -2 -34.5 -2.5t-39.5 -1.5q-58 -2 -84.5 -1t-35.5 3q-2 8 -5 29.5t-5 66.5t-3 105h66q44 0 87 2t69 8q12 3 18 13.5t4 22.5q-3 12 -14 18.5t-23 3.5q-14 -3 -38.5 -5t-53 -2.5t-58.5 -0.5t-57 1v28q0 46 0.5 90t1 80.5
t1 64t1.5 41.5q9 2 34.5 5t79.5 3q20 -1 38.5 -1t32.5 -1q17 -1 32 -2q13 -1 22 7.5t10 20.5q1 13 -7 22t-21 10q-1 0 -12 0.5t-28.5 1.5t-39.5 1.5t-45 0.5q-56 -2 -89 -6q-6 -1 -16.5 -3t-21 -7t-19 -13.5t-9.5 -21.5q-1 -7 -2 -36.5t-1.5 -72.5t-1 -95.5t-0.5 -106.5v-9
q-12 0 -20.5 -8t-9.5 -20q-1 -13 7.5 -22t21.5 -9l1 -1q1 -39 2 -72t3 -60q1 -22 3 -39.5t4 -30.5q3 -19 7.5 -31.5t15.5 -19.5q9 -5 28.5 -9.5t66.5 -4.5q13 0 28 0.5t32 1.5l42.5 2t36.5 2t26 2t11 1q12 2 20 11t7 22zM200 764q-29 0 -62 2t-71 7q-13 2 -20.5 11.5
t-5.5 21.5q2 13 11.5 20.5t21.5 5.5q81 -10 136.5 -8t98.5 7q12 1 21.5 -6.5t11.5 -20.5q2 -12 -6 -21.5t-20 -11.5q-26 -3 -54 -5t-62 -2z" />
    <glyph glyph-name="Ebreve" unicode="&#x114;" horiz-adv-x="384" 
d="M378 42q-2 12 -11 20.5t-22 6.5q-15 -2 -33 -3q-15 -2 -34.5 -2.5t-39.5 -1.5q-58 -2 -84.5 -1t-35.5 3q-2 8 -5 29.5t-5 66.5t-3 105h66q44 0 87 2t69 8q12 3 18 13.5t4 22.5q-3 12 -14 18.5t-23 3.5q-14 -3 -38.5 -5t-53 -2.5t-58.5 -0.5t-57 1v28q0 46 0.5 90t1 80.5
t1 64t1.5 41.5q9 2 34.5 5t79.5 3q20 -1 38.5 -1t32.5 -1q17 -1 32 -2q13 -1 22 7.5t10 20.5q1 13 -7 22t-21 10q-1 0 -12 0.5t-28.5 1.5t-39.5 1.5t-45 0.5q-56 -2 -89 -6q-6 -1 -16.5 -3t-21 -7t-19 -13.5t-9.5 -21.5q-1 -7 -2 -36.5t-1.5 -72.5t-1 -95.5t-0.5 -106.5v-9
q-12 0 -20.5 -8t-9.5 -20q-1 -13 7.5 -22t21.5 -9l1 -1q1 -39 2 -72t3 -60q1 -22 3 -39.5t4 -30.5q3 -19 7.5 -31.5t15.5 -19.5q9 -5 28.5 -9.5t66.5 -4.5q13 0 28 0.5t32 1.5l42.5 2t36.5 2t26 2t11 1q12 2 20 11t7 22zM186 753q-8 0 -11 1q-39 5 -65 29q-30 27 -35 67
q-2 12 5.5 22t19.5 12q13 2 22.5 -6t11.5 -20q3 -21 17.5 -32t29.5 -13q18 -2 38 12.5t30 44.5q4 12 15 18t22 2q12 -4 18 -15t2 -23q-16 -49 -53 -76q-31 -23 -67 -23z" />
    <glyph glyph-name="Edotaccent" unicode="&#x116;" horiz-adv-x="384" 
d="M378 42q-2 12 -11 20.5t-22 6.5q-15 -2 -33 -3q-15 -2 -34.5 -2.5t-39.5 -1.5q-58 -2 -84.5 -1t-35.5 3q-2 8 -5 29.5t-5 66.5t-3 105h66q44 0 87 2t69 8q12 3 18 13.5t4 22.5q-3 12 -14 18.5t-23 3.5q-14 -3 -38.5 -5t-53 -2.5t-58.5 -0.5t-57 1v28q0 46 0.5 90t1 80.5
t1 64t1.5 41.5q9 2 34.5 5t79.5 3q20 -1 38.5 -1t32.5 -1q17 -1 32 -2q13 -1 22 7.5t10 20.5q1 13 -7 22t-21 10q-1 0 -12 0.5t-28.5 1.5t-39.5 1.5t-45 0.5q-56 -2 -89 -6q-6 -1 -16.5 -3t-21 -7t-19 -13.5t-9.5 -21.5q-1 -7 -2 -36.5t-1.5 -72.5t-1 -95.5t-0.5 -106.5v-9
q-12 0 -20.5 -8t-9.5 -20q-1 -13 7.5 -22t21.5 -9l1 -1q1 -39 2 -72t3 -60q1 -22 3 -39.5t4 -30.5q3 -19 7.5 -31.5t15.5 -19.5q9 -5 28.5 -9.5t66.5 -4.5q13 0 28 0.5t32 1.5l42.5 2t36.5 2t26 2t11 1q12 2 20 11t7 22zM167 815q11 13 28 13q13 0 21.5 -8.5t8.5 -21.5
q0 -11 -6 -18q0 -3 2 -7q3 -12 -3.5 -23t-18.5 -14q-2 0 -4 -0.5t-4 -0.5q-22 0 -29 23q0 1 -1 5.5t-2 11.5q-1 8 0 19t8 21z" />
    <glyph glyph-name="O" unicode="O" horiz-adv-x="479" 
d="M224 -1q-75 0 -129 63q-45 52 -63 141q-14 66 -11.5 137.5t22.5 137.5q10 35 24.5 65t32.5 56q41 57 98 82q31 15 64 15q79 0 134 -85q23 -34 38.5 -80t23.5 -99q9 -62 4 -129q-5 -69 -24 -126q-23 -67 -63 -110t-95 -59q-29 -9 -56 -9zM262 636q-19 0 -40 -9
q-41 -19 -72.5 -61.5t-49.5 -104.5q-17 -58 -19.5 -123t9.5 -122q17 -74 51 -116q35 -41 83 -41q18 0 39 6q25 7 44.5 22t33.5 33t24 38.5t16 38.5q17 48 21.5 107.5t-4.5 119.5q-7 46 -20 86t-32 69q-13 20 -34 38.5t-50 18.5z" />
    <glyph glyph-name="Oacute" unicode="&#xd3;" horiz-adv-x="479" 
d="M224 -1q-75 0 -129 63q-45 52 -63 141q-14 66 -11.5 137.5t22.5 137.5q10 35 24.5 65t32.5 56q41 57 98 82q31 15 64 15q79 0 134 -85q23 -34 38.5 -80t23.5 -99q9 -62 4 -129q-5 -69 -24 -126q-23 -67 -63 -110t-95 -59q-29 -9 -56 -9zM262 636q-19 0 -40 -9
q-41 -19 -72.5 -61.5t-49.5 -104.5q-17 -58 -19.5 -123t9.5 -122q17 -74 51 -116q35 -41 83 -41q18 0 39 6q25 7 44.5 22t33.5 33t24 38.5t16 38.5q17 48 21.5 107.5t-4.5 119.5q-7 46 -20 86t-32 69q-13 20 -34 38.5t-50 18.5zM198 740q-14 0 -23 11q-8 10 -7 22.5t11 20.5
q23 18 41.5 38t35.5 43q7 10 19 12t23 -5q10 -8 12 -20t-6 -22q-20 -27 -40.5 -49.5t-46.5 -43.5q-9 -7 -19 -7z" />
    <glyph glyph-name="Ocircumflex" unicode="&#xd4;" horiz-adv-x="479" 
d="M224 -1q-75 0 -129 63q-45 52 -63 141q-14 66 -11.5 137.5t22.5 137.5q10 35 24.5 65t32.5 56q41 57 98 82q31 15 64 15q79 0 134 -85q23 -34 38.5 -80t23.5 -99q9 -62 4 -129q-5 -69 -24 -126q-23 -67 -63 -110t-95 -59q-29 -9 -56 -9zM262 636q-19 0 -40 -9
q-41 -19 -72.5 -61.5t-49.5 -104.5q-17 -58 -19.5 -123t9.5 -122q17 -74 51 -116q35 -41 83 -41q18 0 39 6q25 7 44.5 22t33.5 33t24 38.5t16 38.5q17 48 21.5 107.5t-4.5 119.5q-7 46 -20 86t-32 69q-13 20 -34 38.5t-50 18.5zM328 729q-15 0 -25 13l-3 4l-18 25.5
t-21 27.5t-17 19t-10 9q-2 -2 -4.5 -5t-7.5 -8l-25 -36l-11.5 -17l-10.5 -15q-8 -10 -20 -11.5t-22 6.5t-12 20t6 22t20 28q20 30 39.5 53.5t45.5 24.5q25 2 52 -25.5t65 -82.5l3 -4q8 -11 6 -23t-13 -19q-8 -6 -17 -6z" />
    <glyph glyph-name="Odieresis" unicode="&#xd6;" horiz-adv-x="479" 
d="M224 -1q-75 0 -129 63q-45 52 -63 141q-14 66 -11.5 137.5t22.5 137.5q10 35 24.5 65t32.5 56q41 57 98 82q31 15 64 15q79 0 134 -85q23 -34 38.5 -80t23.5 -99q9 -62 4 -129q-5 -69 -24 -126q-23 -67 -63 -110t-95 -59q-29 -9 -56 -9zM262 636q-19 0 -40 -9
q-41 -19 -72.5 -61.5t-49.5 -104.5q-17 -58 -19.5 -123t9.5 -122q17 -74 51 -116q35 -41 83 -41q18 0 39 6q25 7 44.5 22t33.5 33t24 38.5t16 38.5q17 48 21.5 107.5t-4.5 119.5q-7 46 -20 86t-32 69q-13 20 -34 38.5t-50 18.5zM264 815q11 13 28 13q13 0 21.5 -8.5
t8.5 -21.5q0 -11 -6 -18q0 -3 2 -7q3 -12 -3.5 -23t-18.5 -14q-2 0 -4 -0.5t-4 -0.5q-22 0 -29 23q0 1 -1 5.5t-2 11.5q-1 8 0 19t8 21zM166 815q11 13 28 13q13 0 21.5 -8.5t8.5 -21.5q0 -11 -6 -18q0 -3 2 -7q3 -12 -3.5 -23t-18.5 -14q-2 0 -4 -0.5t-4 -0.5q-22 0 -29 23
q0 1 -1 5.5t-2 11.5q-1 8 0 19t8 21z" />
    <glyph glyph-name="Ograve" unicode="&#xd2;" horiz-adv-x="479" 
d="M224 -1q-75 0 -129 63q-45 52 -63 141q-14 66 -11.5 137.5t22.5 137.5q10 35 24.5 65t32.5 56q41 57 98 82q31 15 64 15q79 0 134 -85q23 -34 38.5 -80t23.5 -99q9 -62 4 -129q-5 -69 -24 -126q-23 -67 -63 -110t-95 -59q-29 -9 -56 -9zM262 636q-19 0 -40 -9
q-41 -19 -72.5 -61.5t-49.5 -104.5q-17 -58 -19.5 -123t9.5 -122q17 -74 51 -116q35 -41 83 -41q18 0 39 6q25 7 44.5 22t33.5 33t24 38.5t16 38.5q17 48 21.5 107.5t-4.5 119.5q-7 46 -20 86t-32 69q-13 20 -34 38.5t-50 18.5zM281 740q-10 0 -19 7q-26 21 -46.5 43.5
t-40.5 49.5q-8 10 -6 22t12 20q11 7 23 5t19 -12q17 -23 35.5 -43t41.5 -38q10 -8 11 -20.5t-7 -22.5q-9 -11 -23 -11z" />
    <glyph glyph-name="Otilde" unicode="&#xd5;" horiz-adv-x="479" 
d="M224 -1q-75 0 -129 63q-45 52 -63 141q-14 66 -11.5 137.5t22.5 137.5q10 35 24.5 65t32.5 56q41 57 98 82q31 15 64 15q79 0 134 -85q23 -34 38.5 -80t23.5 -99q9 -62 4 -129q-5 -69 -24 -126q-23 -67 -63 -110t-95 -59q-29 -9 -56 -9zM262 636q-19 0 -40 -9
q-41 -19 -72.5 -61.5t-49.5 -104.5q-17 -58 -19.5 -123t9.5 -122q17 -74 51 -116q35 -41 83 -41q18 0 39 6q25 7 44.5 22t33.5 33t24 38.5t16 38.5q17 48 21.5 107.5t-4.5 119.5q-7 46 -20 86t-32 69q-13 20 -34 38.5t-50 18.5zM311 742q-20 0 -40.5 10.5t-40.5 24.5
q-9 6 -18.5 11.5t-18.5 9.5q-12 6 -16 6q-2 -2 -3 -9.5t-2 -22.5q0 -13 -8.5 -21.5t-20.5 -8.5h-1q-12 0 -21 9t-8 21q0 22 6 47.5t29 38.5q19 10 37.5 5.5t26.5 -7.5q12 -5 25 -13l25 -16q9 -5 17 -10t16 -9q3 -2 5.5 -3t4.5 -2q1 4 1.5 10.5t-0.5 16.5q-1 13 7 22t21 10
t22 -7.5t10 -20.5q1 -21 -3 -46.5t-26 -38.5q-11 -7 -26 -7z" />
    <glyph glyph-name="Ohungarumlaut" unicode="&#x150;" horiz-adv-x="479" 
d="M224 -1q-75 0 -129 63q-45 52 -63 141q-14 66 -11.5 137.5t22.5 137.5q10 35 24.5 65t32.5 56q41 57 98 82q31 15 64 15q79 0 134 -85q23 -34 38.5 -80t23.5 -99q9 -62 4 -129q-5 -69 -24 -126q-23 -67 -63 -110t-95 -59q-29 -9 -56 -9zM262 636q-19 0 -40 -9
q-41 -19 -72.5 -61.5t-49.5 -104.5q-17 -58 -19.5 -123t9.5 -122q17 -74 51 -116q35 -41 83 -41q18 0 39 6q25 7 44.5 22t33.5 33t24 38.5t16 38.5q17 48 21.5 107.5t-4.5 119.5q-7 46 -20 86t-32 69q-13 20 -34 38.5t-50 18.5zM118 740q-14 0 -23 11q-8 10 -7 22.5t11 20.5
q23 18 41.5 38t35.5 43q7 10 19 12t23 -5q10 -8 12 -20t-6 -22q-20 -27 -40.5 -49.5t-46.5 -43.5q-9 -7 -19 -7zM278 740q-14 0 -23 11q-8 10 -7 22.5t11 20.5q23 18 41.5 38t35.5 43q7 10 19 12t23 -5q10 -8 12 -20t-6 -22q-20 -27 -40.5 -49.5t-46.5 -43.5q-9 -7 -19 -7z
" />
    <glyph glyph-name="Omacron" unicode="&#x14c;" horiz-adv-x="479" 
d="M224 -1q-75 0 -129 63q-45 52 -63 141q-14 66 -11.5 137.5t22.5 137.5q10 35 24.5 65t32.5 56q41 57 98 82q31 15 64 15q79 0 134 -85q23 -34 38.5 -80t23.5 -99q9 -62 4 -129q-5 -69 -24 -126q-23 -67 -63 -110t-95 -59q-29 -9 -56 -9zM262 636q-19 0 -40 -9
q-41 -19 -72.5 -61.5t-49.5 -104.5q-17 -58 -19.5 -123t9.5 -122q17 -74 51 -116q35 -41 83 -41q18 0 39 6q25 7 44.5 22t33.5 33t24 38.5t16 38.5q17 48 21.5 107.5t-4.5 119.5q-7 46 -20 86t-32 69q-13 20 -34 38.5t-50 18.5zM248 764q-29 0 -62 2t-71 7q-13 2 -20.5 11.5
t-5.5 21.5q2 13 11.5 20.5t21.5 5.5q81 -10 136.5 -8t98.5 7q12 1 21.5 -6.5t11.5 -20.5q2 -12 -6 -21.5t-20 -11.5q-26 -3 -54 -5t-62 -2z" />
    <glyph glyph-name="Obreve" unicode="&#x14e;" horiz-adv-x="479" 
d="M224 -1q-75 0 -129 63q-45 52 -63 141q-14 66 -11.5 137.5t22.5 137.5q10 35 24.5 65t32.5 56q41 57 98 82q31 15 64 15q79 0 134 -85q23 -34 38.5 -80t23.5 -99q9 -62 4 -129q-5 -69 -24 -126q-23 -67 -63 -110t-95 -59q-29 -9 -56 -9zM262 636q-19 0 -40 -9
q-41 -19 -72.5 -61.5t-49.5 -104.5q-17 -58 -19.5 -123t9.5 -122q17 -74 51 -116q35 -41 83 -41q18 0 39 6q25 7 44.5 22t33.5 33t24 38.5t16 38.5q17 48 21.5 107.5t-4.5 119.5q-7 46 -20 86t-32 69q-13 20 -34 38.5t-50 18.5zM234 753q-8 0 -11 1q-39 5 -65 29
q-30 27 -35 67q-2 12 5.5 22t19.5 12q13 2 22.5 -6t11.5 -20q3 -21 17.5 -32t29.5 -13q18 -2 38 12.5t30 44.5q4 12 15 18t22 2q12 -4 18 -15t2 -23q-16 -49 -53 -76q-31 -23 -67 -23z" />
    <glyph glyph-name="Oslash" unicode="&#xd8;" horiz-adv-x="479" 
d="M224 -1q-38 0 -69 15q-9 -15 -26 -15q-7 0 -14 3q-11 6 -14.5 18t1.5 23q1 2 1.5 3.5t1.5 3.5q-2 3 -5 6t-5 6q-45 52 -63 141q-14 66 -11.5 137.5t22.5 137.5q10 35 24.5 65t32.5 56q41 57 98 82q31 15 64 15q34 0 62 -16q5 9 15 13t21 2q12 -4 17.5 -15t2.5 -23
q-2 -5 -3 -9t-3 -8q5 -7 11 -14t11 -15q23 -34 38.5 -80t23.5 -99q9 -62 4 -129q-5 -69 -24 -126q-23 -67 -63 -110t-95 -59q-29 -9 -56 -9zM262 636q-19 0 -40 -9q-41 -19 -72.5 -61.5t-49.5 -104.5q-17 -58 -19.5 -123t9.5 -122q7 -33 18 -59.5t25 -46.5q21 51 43.5 113
t44.5 129l43.5 136l41.5 134q-10 6 -21 10t-23 4zM181 68q19 -9 43 -9q18 0 39 6q25 7 44.5 22t33.5 33t24 38.5t16 38.5q17 48 21.5 107.5t-4.5 119.5q-12 85 -45 144l-41.5 -133l-43.5 -133l-44 -125t-43 -109z" />
    <glyph glyph-name="Z" unicode="Z" horiz-adv-x="428" 
d="M221 0q-23 0 -42.5 2t-36.5 6q-65 17 -93 61q-22 35 -17 88q2 26 11.5 55t25.5 62q35 70 100.5 159t162.5 197q-14 3 -47 5.5t-99 -1.5q-28 -2 -52.5 -4t-44.5 -4q-23 -3 -43 -4q-13 -2 -22.5 5.5t-11.5 20.5q-2 12 6 21.5t20 11.5q1 0 14.5 2t35.5 4t50 4t58 3
q35 2 64 2t51 -2q29 -3 47 -9q29 -9 39 -28q4 -8 4.5 -23.5t-17.5 -35.5q-195 -214 -261 -350q-25 -51 -30.5 -88t7.5 -59q14 -23 52.5 -33.5t98.5 -6.5q24 1 46.5 4.5t40 7t28 6l10.5 2.5q12 4 22.5 -2.5t14.5 -18.5q3 -12 -3 -22.5t-18 -14.5q-1 0 -12.5 -2.5l-30.5 -6.5
t-43.5 -7.5t-51.5 -5.5q-8 -1 -16.5 -1h-16.5z" />
    <glyph glyph-name="Zcaron" unicode="&#x17d;" horiz-adv-x="428" 
d="M221 0q-23 0 -42.5 2t-36.5 6q-65 17 -93 61q-22 35 -17 88q2 26 11.5 55t25.5 62q35 70 100.5 159t162.5 197q-14 3 -47 5.5t-99 -1.5q-28 -2 -52.5 -4t-44.5 -4q-23 -3 -43 -4q-13 -2 -22.5 5.5t-11.5 20.5q-2 12 6 21.5t20 11.5q1 0 14.5 2t35.5 4t50 4t58 3
q35 2 64 2t51 -2q29 -3 47 -9q29 -9 39 -28q4 -8 4.5 -23.5t-17.5 -35.5q-195 -214 -261 -350q-25 -51 -30.5 -88t7.5 -59q14 -23 52.5 -33.5t98.5 -6.5q24 1 46.5 4.5t40 7t28 6l10.5 2.5q12 4 22.5 -2.5t14.5 -18.5q3 -12 -3 -22.5t-18 -14.5q-1 0 -12.5 -2.5l-30.5 -6.5
t-43.5 -7.5t-51.5 -5.5q-8 -1 -16.5 -1h-16.5zM302 891q9 0 17 -6q11 -7 13 -19t-6 -23l-3 -4q-38 -55 -65 -82.5t-52 -25.5q-26 1 -45.5 24.5t-39.5 53.5q-12 18 -20 28t-6 22t12 20t22 6.5t20 -11.5l10.5 -15l11.5 -17q13 -20 25 -36q5 -5 7.5 -8t4.5 -5q4 3 10 9t17 19
t21 27.5l18 25.5l3 4q10 13 25 13z" />
    <glyph glyph-name="Zacute" unicode="&#x179;" horiz-adv-x="428" 
d="M221 0q-23 0 -42.5 2t-36.5 6q-65 17 -93 61q-22 35 -17 88q2 26 11.5 55t25.5 62q35 70 100.5 159t162.5 197q-14 3 -47 5.5t-99 -1.5q-28 -2 -52.5 -4t-44.5 -4q-23 -3 -43 -4q-13 -2 -22.5 5.5t-11.5 20.5q-2 12 6 21.5t20 11.5q1 0 14.5 2t35.5 4t50 4t58 3
q35 2 64 2t51 -2q29 -3 47 -9q29 -9 39 -28q4 -8 4.5 -23.5t-17.5 -35.5q-195 -214 -261 -350q-25 -51 -30.5 -88t7.5 -59q14 -23 52.5 -33.5t98.5 -6.5q24 1 46.5 4.5t40 7t28 6l10.5 2.5q12 4 22.5 -2.5t14.5 -18.5q3 -12 -3 -22.5t-18 -14.5q-1 0 -12.5 -2.5l-30.5 -6.5
t-43.5 -7.5t-51.5 -5.5q-8 -1 -16.5 -1h-16.5zM172 740q-14 0 -23 11q-8 10 -7 22.5t11 20.5q23 18 41.5 38t35.5 43q7 10 19 12t23 -5q10 -8 12 -20t-6 -22q-20 -27 -40.5 -49.5t-46.5 -43.5q-9 -7 -19 -7z" />
    <glyph glyph-name="Zdotaccent" unicode="&#x17b;" horiz-adv-x="428" 
d="M221 0q-23 0 -42.5 2t-36.5 6q-65 17 -93 61q-22 35 -17 88q2 26 11.5 55t25.5 62q35 70 100.5 159t162.5 197q-14 3 -47 5.5t-99 -1.5q-28 -2 -52.5 -4t-44.5 -4q-23 -3 -43 -4q-13 -2 -22.5 5.5t-11.5 20.5q-2 12 6 21.5t20 11.5q1 0 14.5 2t35.5 4t50 4t58 3
q35 2 64 2t51 -2q29 -3 47 -9q29 -9 39 -28q4 -8 4.5 -23.5t-17.5 -35.5q-195 -214 -261 -350q-25 -51 -30.5 -88t7.5 -59q14 -23 52.5 -33.5t98.5 -6.5q24 1 46.5 4.5t40 7t28 6l10.5 2.5q12 4 22.5 -2.5t14.5 -18.5q3 -12 -3 -22.5t-18 -14.5q-1 0 -12.5 -2.5l-30.5 -6.5
t-43.5 -7.5t-51.5 -5.5q-8 -1 -16.5 -1h-16.5zM189 815q11 13 28 13q13 0 21.5 -8.5t8.5 -21.5q0 -11 -6 -18q0 -3 2 -7q3 -12 -3.5 -23t-18.5 -14q-2 0 -4 -0.5t-4 -0.5q-22 0 -29 23q0 1 -1 5.5t-2 11.5q-1 8 0 19t8 21z" />
    <glyph glyph-name="S" unicode="S" horiz-adv-x="366" 
d="M183 -1q-71 0 -118 49q-52 55 -52 150q0 12 9 21t21 9q13 0 21.5 -9t8.5 -21q0 -39 9.5 -65.5t25.5 -43t35.5 -23.5t39.5 -7q19 0 38.5 7t34.5 20t24.5 32.5t9.5 45.5q0 30 -8 52t-22.5 40t-33.5 33l-41 32q-35 26 -70.5 57.5t-58.5 79.5q-23 51 -23 97.5t26 81.5
q20 29 52.5 43.5t70.5 9.5q24 -3 48 -13.5t45 -28.5q44 -38 73 -105q5 -12 0 -23.5t-16 -16.5t-22.5 0t-16.5 16q-20 49 -51.5 78t-66.5 33q-20 3 -38.5 -4.5t-29.5 -23.5q-15 -21 -14 -52t18 -66q18 -38 47 -64t62 -51l46.5 -35.5t41.5 -42.5q42 -54 42 -127
q0 -74 -53 -122q-23 -21 -52.5 -32t-61.5 -11z" />
    <glyph glyph-name="Scaron" unicode="&#x160;" horiz-adv-x="366" 
d="M183 -1q-71 0 -118 49q-52 55 -52 150q0 12 9 21t21 9q13 0 21.5 -9t8.5 -21q0 -39 9.5 -65.5t25.5 -43t35.5 -23.5t39.5 -7q19 0 38.5 7t34.5 20t24.5 32.5t9.5 45.5q0 30 -8 52t-22.5 40t-33.5 33l-41 32q-35 26 -70.5 57.5t-58.5 79.5q-23 51 -23 97.5t26 81.5
q20 29 52.5 43.5t70.5 9.5q24 -3 48 -13.5t45 -28.5q44 -38 73 -105q5 -12 0 -23.5t-16 -16.5t-22.5 0t-16.5 16q-20 49 -51.5 78t-66.5 33q-20 3 -38.5 -4.5t-29.5 -23.5q-15 -21 -14 -52t18 -66q18 -38 47 -64t62 -51l46.5 -35.5t41.5 -42.5q42 -54 42 -127
q0 -74 -53 -122q-23 -21 -52.5 -32t-61.5 -11zM271 891q9 0 17 -6q11 -7 13 -19t-6 -23l-3 -4q-38 -55 -65 -82.5t-52 -25.5q-26 1 -45.5 24.5t-39.5 53.5q-12 18 -20 28t-6 22t12 20t22 6.5t20 -11.5l10.5 -15l11.5 -17q13 -20 25 -36q5 -5 7.5 -8t4.5 -5q4 3 10 9t17 19
t21 27.5l18 25.5l3 4q10 13 25 13z" />
    <glyph glyph-name="Sacute" unicode="&#x15a;" horiz-adv-x="366" 
d="M183 -1q-71 0 -118 49q-52 55 -52 150q0 12 9 21t21 9q13 0 21.5 -9t8.5 -21q0 -39 9.5 -65.5t25.5 -43t35.5 -23.5t39.5 -7q19 0 38.5 7t34.5 20t24.5 32.5t9.5 45.5q0 30 -8 52t-22.5 40t-33.5 33l-41 32q-35 26 -70.5 57.5t-58.5 79.5q-23 51 -23 97.5t26 81.5
q20 29 52.5 43.5t70.5 9.5q24 -3 48 -13.5t45 -28.5q44 -38 73 -105q5 -12 0 -23.5t-16 -16.5t-22.5 0t-16.5 16q-20 49 -51.5 78t-66.5 33q-20 3 -38.5 -4.5t-29.5 -23.5q-15 -21 -14 -52t18 -66q18 -38 47 -64t62 -51l46.5 -35.5t41.5 -42.5q42 -54 42 -127
q0 -74 -53 -122q-23 -21 -52.5 -32t-61.5 -11zM141 740q-14 0 -23 11q-8 10 -7 22.5t11 20.5q23 18 41.5 38t35.5 43q7 10 19 12t23 -5q10 -8 12 -20t-6 -22q-20 -27 -40.5 -49.5t-46.5 -43.5q-9 -7 -19 -7z" />
    <glyph glyph-name="Scedilla" unicode="&#x15e;" horiz-adv-x="366" 
d="M158 -189h-11t-12 1q-12 2 -20 11.5t-6 21.5q2 13 11.5 21t21.5 6q25 -3 36.5 1.5t14.5 7.5q5 5 4 11q0 4 -5 9q-15 11 -48 5q-13 -3 -25 7t-10 25l2 23q1 10 1.5 22t1.5 25v5q-28 12 -49 35q-52 55 -52 150q0 12 9 21t21 9q13 0 21.5 -9t8.5 -21q0 -39 9.5 -65.5
t25.5 -43t35.5 -23.5t39.5 -7q19 0 38.5 7t34.5 20t24.5 32.5t9.5 45.5q0 30 -8 52t-22.5 40t-33.5 33l-41 32q-35 26 -70.5 57.5t-58.5 79.5q-23 51 -23 97.5t26 81.5q20 29 52.5 43.5t70.5 9.5q24 -3 48 -13.5t45 -28.5q44 -38 73 -105q5 -12 0 -23.5t-16 -16.5t-22.5 0
t-16.5 16q-20 49 -51.5 78t-66.5 33q-20 3 -38.5 -4.5t-29.5 -23.5q-15 -21 -14 -52t18 -66q18 -38 47 -64t62 -51l46.5 -35.5t41.5 -42.5q42 -54 42 -127q0 -74 -53 -122q-23 -21 -52.5 -32t-61.5 -11h-9q-1 -8 -1.5 -15.5t-1.5 -15.5q35 -2 58 -20q26 -20 28 -52
q3 -33 -23 -59q-10 -9 -28.5 -17.5t-47.5 -8.5z" />
    <glyph glyph-name="Scircumflex" unicode="&#x15c;" horiz-adv-x="366" 
d="M183 -1q-71 0 -118 49q-52 55 -52 150q0 12 9 21t21 9q13 0 21.5 -9t8.5 -21q0 -39 9.5 -65.5t25.5 -43t35.5 -23.5t39.5 -7q19 0 38.5 7t34.5 20t24.5 32.5t9.5 45.5q0 30 -8 52t-22.5 40t-33.5 33l-41 32q-35 26 -70.5 57.5t-58.5 79.5q-23 51 -23 97.5t26 81.5
q20 29 52.5 43.5t70.5 9.5q24 -3 48 -13.5t45 -28.5q44 -38 73 -105q5 -12 0 -23.5t-16 -16.5t-22.5 0t-16.5 16q-20 49 -51.5 78t-66.5 33q-20 3 -38.5 -4.5t-29.5 -23.5q-15 -21 -14 -52t18 -66q18 -38 47 -64t62 -51l46.5 -35.5t41.5 -42.5q42 -54 42 -127
q0 -74 -53 -122q-23 -21 -52.5 -32t-61.5 -11zM271 729q-15 0 -25 13l-3 4l-18 25.5t-21 27.5t-17 19t-10 9q-2 -2 -4.5 -5t-7.5 -8l-25 -36l-11.5 -17l-10.5 -15q-8 -10 -20 -11.5t-22 6.5t-12 20t6 22t20 28q20 30 39.5 53.5t45.5 24.5q25 2 52 -25.5t65 -82.5l3 -4
q8 -11 6 -23t-13 -19q-8 -6 -17 -6z" />
    <glyph glyph-name="G" unicode="G" horiz-adv-x="498" 
d="M464 276q13 0 21.5 -8.5t8.5 -21.5q0 -12 -9 -21t-21 -9q-20 1 -34.5 0.5t-27.5 -1.5q-8 -40 -29.5 -78t-54.5 -69q-34 -32 -71.5 -49t-73.5 -17q-3 0 -6 0.5t-6 0.5q-34 3 -62 22q-30 20 -47 55q-39 71 -33 204q4 92 20.5 168t44.5 131q27 54 62 83.5t73 32.5
q52 5 91 -40q36 -40 51 -113q3 -12 -4 -22.5t-19 -13.5q-12 -2 -22.5 4.5t-12.5 19.5q-11 51 -32 79t-47 26q-22 -2 -44.5 -23.5t-41.5 -59.5q-18 -35 -36 -100.5t-23 -174.5q-5 -101 18 -157.5t69 -60.5q26 -2 55 10.5t56 38.5q46 42 62 97l-23 -2t-28 -2h-2q-12 0 -20.5 8
t-9.5 20t7 21t21 11q21 2 36.5 3t29.5 3l50 4t64 1z" />
    <glyph glyph-name="Gbreve" unicode="&#x11e;" horiz-adv-x="498" 
d="M464 276q-40 1 -64 -1l-50 -4q-14 -2 -29.5 -3t-36.5 -3q-13 -2 -21 -11t-7 -21t9.5 -20t20.5 -8h2q16 1 28 2l23 2q-16 -55 -62 -97q-27 -26 -56 -38.5t-55 -10.5q-46 4 -69 60.5t-18 157.5q5 109 23 174.5t36 100.5q19 38 41.5 59.5t44.5 23.5q26 2 47 -26t32 -79
q2 -13 12.5 -19.5t22.5 -4.5q12 3 19 13.5t4 22.5q-15 73 -51 113q-39 45 -91 40q-38 -3 -73 -32.5t-62 -83.5q-28 -55 -44.5 -131t-20.5 -168q-6 -133 33 -204q17 -35 47 -55q28 -19 62 -22q3 0 6 -0.5t6 -0.5q36 0 73.5 17t71.5 49q33 31 54.5 69t29.5 78q13 1 27.5 1.5
t34.5 -0.5q12 0 21 9t9 21q0 13 -8.5 21.5t-21.5 8.5zM224 753q-8 0 -11 1q-39 5 -65 29q-30 27 -35 67q-2 12 5.5 22t19.5 12q13 2 22.5 -6t11.5 -20q3 -21 17.5 -32t29.5 -13q18 -2 38 12.5t30 44.5q4 12 15 18t22 2q12 -4 18 -15t2 -23q-16 -49 -53 -76q-31 -23 -67 -23z
" />
    <glyph glyph-name="Gcircumflex" unicode="&#x11c;" horiz-adv-x="498" 
d="M464 276q-40 1 -64 -1l-50 -4q-14 -2 -29.5 -3t-36.5 -3q-13 -2 -21 -11t-7 -21t9.5 -20t20.5 -8h2q16 1 28 2l23 2q-16 -55 -62 -97q-27 -26 -56 -38.5t-55 -10.5q-46 4 -69 60.5t-18 157.5q5 109 23 174.5t36 100.5q19 38 41.5 59.5t44.5 23.5q26 2 47 -26t32 -79
q2 -13 12.5 -19.5t22.5 -4.5q12 3 19 13.5t4 22.5q-15 73 -51 113q-39 45 -91 40q-38 -3 -73 -32.5t-62 -83.5q-28 -55 -44.5 -131t-20.5 -168q-6 -133 33 -204q17 -35 47 -55q28 -19 62 -22q3 0 6 -0.5t6 -0.5q36 0 73.5 17t71.5 49q33 31 54.5 69t29.5 78q13 1 27.5 1.5
t34.5 -0.5q12 0 21 9t9 21q0 13 -8.5 21.5t-21.5 8.5zM311 729q-15 0 -25 13l-3 4l-18 25.5t-21 27.5t-17 19t-10 9q-2 -2 -4.5 -5t-7.5 -8l-25 -36l-11.5 -17l-10.5 -15q-8 -10 -20 -11.5t-22 6.5t-12 20t6 22t20 28q20 30 39.5 53.5t45.5 24.5q25 2 52 -25.5t65 -82.5
l3 -4q8 -11 6 -23t-13 -19q-8 -6 -17 -6z" />
    <glyph glyph-name="Gdotaccent" unicode="&#x120;" horiz-adv-x="498" 
d="M464 276q-40 1 -64 -1l-50 -4q-14 -2 -29.5 -3t-36.5 -3q-13 -2 -21 -11t-7 -21t9.5 -20t20.5 -8h2q16 1 28 2l23 2q-16 -55 -62 -97q-27 -26 -56 -38.5t-55 -10.5q-46 4 -69 60.5t-18 157.5q5 109 23 174.5t36 100.5q19 38 41.5 59.5t44.5 23.5q26 2 47 -26t32 -79
q2 -13 12.5 -19.5t22.5 -4.5q12 3 19 13.5t4 22.5q-15 73 -51 113q-39 45 -91 40q-38 -3 -73 -32.5t-62 -83.5q-28 -55 -44.5 -131t-20.5 -168q-6 -133 33 -204q17 -35 47 -55q28 -19 62 -22q3 0 6 -0.5t6 -0.5q36 0 73.5 17t71.5 49q33 31 54.5 69t29.5 78q13 1 27.5 1.5
t34.5 -0.5q12 0 21 9t9 21q0 13 -8.5 21.5t-21.5 8.5zM206 815q11 13 28 13q13 0 21.5 -8.5t8.5 -21.5q0 -11 -6 -18q0 -3 2 -7q3 -12 -3.5 -23t-18.5 -14q-2 0 -4 -0.5t-4 -0.5q-22 0 -29 23q0 1 -1 5.5t-2 11.5q-1 8 0 19t8 21z" />
    <glyph glyph-name="Gcommaaccent" unicode="&#x122;" horiz-adv-x="498" 
d="M464 276q13 0 21.5 -8.5t8.5 -21.5q0 -12 -9 -21t-21 -9q-20 1 -34.5 0.5t-27.5 -1.5q-8 -40 -29.5 -78t-54.5 -69q-34 -32 -71.5 -49t-73.5 -17q-3 0 -6 0.5t-6 0.5q-34 3 -62 22q-30 20 -47 55q-39 71 -33 204q4 92 20.5 168t44.5 131q27 54 62 83.5t73 32.5
q52 5 91 -40q36 -40 51 -113q3 -12 -4 -22.5t-19 -13.5q-12 -2 -22.5 4.5t-12.5 19.5q-11 51 -32 79t-47 26q-22 -2 -44.5 -23.5t-41.5 -59.5q-18 -35 -36 -100.5t-23 -174.5q-5 -101 18 -157.5t69 -60.5q26 -2 55 10.5t56 38.5q46 42 62 97l-23 -2t-28 -2h-2q-12 0 -20.5 8
t-9.5 20t7 21t21 11q21 2 36.5 3t29.5 3l50 4t64 1zM230 -137q2 -18 1 -35.5t-5 -34.5q-11 -41 -39 -69q-9 -9 -21 -9q-11 0 -21 8q-9 9 -9 21.5t8 21.5q18 18 23 38.5t4 37.5v4q-38 13 -47 50q-4 17 0.5 32t16.5 23q10 8 22.5 8t23.5 -7q20 -12 30 -39t13 -50z" />
    <glyph glyph-name="hyphen" unicode="-" horiz-adv-x="299" 
d="M138 237q-14 0 -23.5 0.5t-18.5 1.5t-21 2.5t-31 4.5q-13 2 -20.5 11.5t-5.5 21.5q2 13 11.5 20.5t21.5 5.5q40 -5 68 -6.5t49 -1.5t39.5 2t39.5 5q12 1 21.5 -6.5t11.5 -20.5q2 -12 -6 -21.5t-20 -11.5q-26 -3 -54 -5t-62 -2z" />
    <glyph glyph-name="underscore" unicode="_" horiz-adv-x="564" 
d="M264 -217q-14 0 -43 0.5t-61.5 1.5t-63.5 2.5t-50 4.5q-13 2 -20.5 11.5t-5.5 21.5q2 13 11.5 20.5t21.5 5.5q27 -3 67.5 -5t86.5 -2.5t94 -0.5t90 1t74 2.5t46 3.5q12 1 21.5 -6.5t11.5 -20.5q2 -12 -6 -21.5t-20 -11.5q-13 -2 -48 -3t-75 -2t-77 -1.5t-54 -0.5z" />
    <glyph glyph-name="H" unicode="H" horiz-adv-x="459" 
d="M443 280q3 -12 -3 -23t-18 -14q-8 -2 -17 -4t-19 -4q1 -75 3 -127t4 -69q5 -12 0 -23q-6 -17 -24 -19q-1 -1 -4 -1q-14 0 -24 13q-5 6 -6.5 14.5t-2.5 29.5q-2 13 -2.5 30t-1.5 39q-1 23 -1.5 49.5t-0.5 54.5q-41 -5 -85.5 -8t-86.5 -3h-18t-17 1q-2 -48 -5.5 -94.5
t-8.5 -93.5q-1 -12 -9.5 -19.5t-19.5 -7.5h-4q-12 2 -20 11.5t-6 21.5q5 46 8 92.5t5 93.5q-5 1 -9.5 2t-9.5 2q-12 2 -18.5 12.5t-4.5 22.5t12.5 19t23.5 4q2 0 4 -0.5t5 -0.5q2 97 1 191.5t-4 188.5q0 13 8.5 22t21.5 9q12 1 21 -8t9 -21q3 -95 4 -192t-2 -195
q47 -2 101.5 1t102.5 9v21t-1 21q0 44 0.5 102t2.5 112q1 36 2.5 59t3.5 38t4.5 22.5t4.5 12.5q5 11 16.5 16t22.5 0t15.5 -17t-0.5 -23q-2 -5 -4 -23.5t-4 -55t-3 -93.5t-1 -139q0 -11 0.5 -21.5t0.5 -21.5q10 1 21 5q12 3 22.5 -3t14.5 -18z" />
    <glyph glyph-name="Hcircumflex" unicode="&#x124;" horiz-adv-x="459" 
d="M443 280q-4 12 -14.5 18t-22.5 3q-11 -4 -21 -5q0 11 -0.5 21.5t-0.5 21.5q0 82 1 139t3 93.5t4 55t4 23.5q5 11 0.5 23t-15.5 17t-22.5 0t-16.5 -16q-2 -5 -4.5 -12.5t-4.5 -22.5t-3.5 -38t-2.5 -59q-2 -54 -2.5 -112t-0.5 -102q1 -11 1 -21v-21q-48 -6 -102.5 -9
t-101.5 -1q3 98 2 195t-4 192q0 12 -9 21t-21 8q-13 0 -21.5 -9t-8.5 -22q3 -94 4 -188.5t-1 -191.5q-3 0 -5 0.5t-4 0.5q-13 3 -23.5 -4t-12.5 -19t4.5 -22.5t18.5 -12.5q5 -1 9.5 -2t9.5 -2q-2 -47 -5 -93.5t-8 -92.5q-2 -12 6 -21.5t20 -11.5h4q11 0 19.5 7.5t9.5 19.5
q5 47 8.5 93.5t5.5 94.5q8 -1 17 -1h18q42 0 86.5 3t85.5 8q0 -28 0.5 -54.5t1.5 -49.5q1 -22 1.5 -39t2.5 -30q1 -21 2.5 -29.5t6.5 -14.5q10 -13 24 -13q3 0 4 1q18 2 24 19q5 11 0 23q-2 17 -4 69t-3 127q10 2 19 4t17 4q12 3 18 14t3 23zM318 729q-15 0 -25 13l-3 4
l-18 25.5t-21 27.5t-17 19t-10 9q-2 -2 -4.5 -5t-7.5 -8l-25 -36l-11.5 -17l-10.5 -15q-8 -10 -20 -11.5t-22 6.5t-12 20t6 22t20 28q20 30 39.5 53.5t45.5 24.5q25 2 52 -25.5t65 -82.5l3 -4q8 -11 6 -23t-13 -19q-8 -6 -17 -6z" />
    <glyph glyph-name="Hbar" unicode="&#x126;" horiz-adv-x="459" 
d="M443 280q3 -12 -3 -23t-18 -14q-8 -2 -17 -4t-19 -4q1 -75 3 -127t4 -69q5 -12 0 -23q-6 -17 -24 -19q-1 -1 -4 -1q-14 0 -24 13q-5 6 -6.5 14.5t-2.5 29.5q-2 13 -2.5 30t-1.5 39q-1 23 -1.5 49.5t-0.5 54.5q-41 -5 -85.5 -8t-86.5 -3h-18t-17 1q-2 -48 -5.5 -94.5
t-8.5 -93.5q-1 -12 -9.5 -19.5t-19.5 -7.5h-4q-12 2 -20 11.5t-6 21.5q5 46 8 92.5t5 93.5q-5 1 -9.5 2t-9.5 2q-12 2 -18.5 12.5t-4.5 22.5t12.5 19t23.5 4q2 0 4 -0.5t5 -0.5q1 29 1 59v59q-8 0 -18 2q-13 2 -20.5 11.5t-5.5 21.5q2 13 11.5 20.5t21.5 5.5q3 -1 5.5 -1
t5.5 -1q0 52 -1 102t-3 101q0 13 8.5 22t21.5 9q12 1 21 -8t9 -21q2 -51 2.5 -102.5t1.5 -104.5q51 -1 104 2.5t97 8.5q1 39 3 75q1 36 2.5 59t3.5 38t4.5 22.5t4.5 12.5q5 11 16.5 16t22.5 0t15.5 -17t-0.5 -23q-2 -8 -6 -48t-6 -128q5 0 8.5 0.5t7.5 1.5q12 1 21.5 -6.5
t11.5 -20.5q2 -12 -6 -21.5t-20 -11.5l-23 -3v-74q0 -11 0.5 -21.5t0.5 -21.5q10 1 21 5q12 3 22.5 -3t14.5 -18zM230 396q-17 0 -46.5 -0.5t-60.5 0.5q0 -30 -0.5 -60t-1.5 -60q47 -2 101.5 1t102.5 9v21t-1 21v76q-26 -3 -51.5 -5.5t-42.5 -2.5z" />
    <glyph glyph-name="I" unicode="I" horiz-adv-x="431" 
d="M392 66q12 -1 20.5 -10t7.5 -21q-1 -13 -10 -21.5t-21 -7.5q-40 2 -74.5 2.5t-75.5 -1.5q-8 -15 -25 -15h-1q-17 0 -25 13q-16 -1 -32.5 -1.5t-35.5 -1.5q-33 -2 -72 -3h-2q-12 0 -20.5 8.5t-9.5 20.5q0 12 8.5 21t20.5 10q38 1 73 3q34 1 63 3q-2 45 -3.5 111t-1.5 142
t1 156t6 152q-26 1 -50 1.5t-43 2.5q-11 0 -20.5 0.5t-15.5 1.5q-5 1 -8 1t-5 1q-13 2 -19 8.5t-8 12.5q-3 12 2 22.5t17 15.5q13 5 24 -1q13 -2 48 -3t87 -3q10 15 27 13q14 -2 22 -13q61 -1 96.5 1t44.5 4q12 2 23 -4.5t13 -18.5q3 -12 -3.5 -22.5t-18.5 -13.5
q-17 -4 -54.5 -5t-77.5 -1h-21q-5 -72 -6 -151t-1 -155t1.5 -142t3.5 -111q41 2 75.5 1.5t75.5 -2.5z" />
    <glyph glyph-name="Igrave" unicode="&#xcc;" horiz-adv-x="431" 
d="M392 66q-41 2 -75.5 2.5t-75.5 -1.5q-2 45 -3.5 111t-1.5 142t1 155t6 151h21q40 0 77.5 1t54.5 5q12 3 18.5 13.5t3.5 22.5q-2 12 -13 18.5t-23 4.5q-9 -2 -44.5 -4t-96.5 -1q-8 11 -22 13q-17 2 -27 -13q-52 2 -87 3t-48 3q-11 6 -24 1q-12 -5 -17 -15.5t-2 -22.5
q2 -6 8 -12.5t19 -8.5q2 -1 5 -1t8 -1q6 -1 15.5 -1.5t20.5 -0.5q19 -2 43 -2.5t50 -1.5q-5 -72 -6 -152t-1 -156t1.5 -142t3.5 -111q-29 -2 -63 -3q-35 -2 -73 -3q-12 -1 -20.5 -10t-8.5 -21q1 -12 9.5 -20.5t20.5 -8.5h2q39 1 72 3q19 1 35.5 1.5t32.5 1.5q8 -13 25 -13h1
q17 0 25 15q41 2 75.5 1.5t74.5 -2.5q12 -1 21 7.5t10 21.5q1 12 -7.5 21t-20.5 10zM257 740q-10 0 -19 7q-26 21 -46.5 43.5t-40.5 49.5q-8 10 -6 22t12 20q11 7 23 5t19 -12q17 -23 35.5 -43t41.5 -38q10 -8 11 -20.5t-7 -22.5q-9 -11 -23 -11z" />
    <glyph glyph-name="Iacute" unicode="&#xcd;" horiz-adv-x="431" 
d="M392 66q12 -1 20.5 -10t7.5 -21q-1 -13 -10 -21.5t-21 -7.5q-40 2 -74.5 2.5t-75.5 -1.5q-8 -15 -25 -15h-1q-17 0 -25 13q-16 -1 -32.5 -1.5t-35.5 -1.5q-33 -2 -72 -3h-2q-12 0 -20.5 8.5t-9.5 20.5q0 12 8.5 21t20.5 10q38 1 73 3q34 1 63 3q-2 45 -3.5 111t-1.5 142
t1 156t6 152q-26 1 -50 1.5t-43 2.5q-11 0 -20.5 0.5t-15.5 1.5q-5 1 -8 1t-5 1q-13 2 -19 8.5t-8 12.5q-3 12 2 22.5t17 15.5q13 5 24 -1q13 -2 48 -3t87 -3q10 15 27 13q14 -2 22 -13q61 -1 96.5 1t44.5 4q12 2 23 -4.5t13 -18.5q3 -12 -3.5 -22.5t-18.5 -13.5
q-17 -4 -54.5 -5t-77.5 -1h-21q-5 -72 -6 -151t-1 -155t1.5 -142t3.5 -111q41 2 75.5 1.5t75.5 -2.5zM174 740q-14 0 -23 11q-8 10 -7 22.5t11 20.5q23 18 41.5 38t35.5 43q7 10 19 12t23 -5q10 -8 12 -20t-6 -22q-20 -27 -40.5 -49.5t-46.5 -43.5q-9 -7 -19 -7z" />
    <glyph glyph-name="Icircumflex" unicode="&#xce;" horiz-adv-x="431" 
d="M392 66q-41 2 -75.5 2.5t-75.5 -1.5q-2 45 -3.5 111t-1.5 142t1 155t6 151h21q40 0 77.5 1t54.5 5q12 3 18.5 13.5t3.5 22.5q-2 12 -13 18.5t-23 4.5q-9 -2 -44.5 -4t-96.5 -1q-8 11 -22 13q-17 2 -27 -13q-52 2 -87 3t-48 3q-11 6 -24 1q-12 -5 -17 -15.5t-2 -22.5
q2 -6 8 -12.5t19 -8.5q2 -1 5 -1t8 -1q6 -1 15.5 -1.5t20.5 -0.5q19 -2 43 -2.5t50 -1.5q-5 -72 -6 -152t-1 -156t1.5 -142t3.5 -111q-29 -2 -63 -3q-35 -2 -73 -3q-12 -1 -20.5 -10t-8.5 -21q1 -12 9.5 -20.5t20.5 -8.5h2q39 1 72 3q19 1 35.5 1.5t32.5 1.5q8 -13 25 -13h1
q17 0 25 15q41 2 75.5 1.5t74.5 -2.5q12 -1 21 7.5t10 21.5q1 12 -7.5 21t-20.5 10zM304 729q-15 0 -25 13l-3 4l-18 25.5t-21 27.5t-17 19t-10 9q-2 -2 -4.5 -5t-7.5 -8l-25 -36l-11.5 -17l-10.5 -15q-8 -10 -20 -11.5t-22 6.5t-12 20t6 22t20 28q20 30 39.5 53.5
t45.5 24.5q25 2 52 -25.5t65 -82.5l3 -4q8 -11 6 -23t-13 -19q-8 -6 -17 -6z" />
    <glyph glyph-name="Idieresis" unicode="&#xcf;" horiz-adv-x="431" 
d="M392 66q-41 2 -75.5 2.5t-75.5 -1.5q-2 45 -3.5 111t-1.5 142t1 155t6 151h21q40 0 77.5 1t54.5 5q12 3 18.5 13.5t3.5 22.5q-2 12 -13 18.5t-23 4.5q-9 -2 -44.5 -4t-96.5 -1q-8 11 -22 13q-17 2 -27 -13q-52 2 -87 3t-48 3q-11 6 -24 1q-12 -5 -17 -15.5t-2 -22.5
q2 -6 8 -12.5t19 -8.5q2 -1 5 -1t8 -1q6 -1 15.5 -1.5t20.5 -0.5q19 -2 43 -2.5t50 -1.5q-5 -72 -6 -152t-1 -156t1.5 -142t3.5 -111q-29 -2 -63 -3q-35 -2 -73 -3q-12 -1 -20.5 -10t-8.5 -21q1 -12 9.5 -20.5t20.5 -8.5h2q39 1 72 3q19 1 35.5 1.5t32.5 1.5q8 -13 25 -13h1
q17 0 25 15q41 2 75.5 1.5t74.5 -2.5q12 -1 21 7.5t10 21.5q1 12 -7.5 21t-20.5 10zM142 815q11 13 28 13q13 0 21.5 -8.5t8.5 -21.5q0 -11 -6 -18q0 -3 2 -7q3 -12 -3.5 -23t-18.5 -14q-2 0 -4 -0.5t-4 -0.5q-22 0 -29 23q0 1 -1 5.5t-2 11.5q-1 8 0 19t8 21zM240 815
q11 13 28 13q13 0 21.5 -8.5t8.5 -21.5q0 -11 -6 -18q0 -3 2 -7q3 -12 -3.5 -23t-18.5 -14q-2 0 -4 -0.5t-4 -0.5q-22 0 -29 23q0 1 -1 5.5t-2 11.5q-1 8 0 19t8 21z" />
    <glyph glyph-name="Iogonek" unicode="&#x12e;" horiz-adv-x="431" 
d="M392 66q12 -1 20.5 -10t7.5 -21q-1 -13 -10 -21.5t-21 -7.5h-9.5t-9.5 1q-4 -6 -6 -8q-5 -5 -13.5 -15t-16.5 -22.5t-13 -26.5t-4 -27q1 -5 4 -8q5 -3 13 -4.5t17 -1.5t17.5 0.5t14.5 2.5q12 2 22.5 -4.5t13.5 -18.5q2 -12 -4.5 -22.5t-18.5 -13.5q-2 0 -12.5 -2
t-25.5 -2h-5q-43 0 -67 18q-25 19 -28 50q-5 48 30 99q2 2 2.5 3.5t2.5 3.5q-13 0 -26.5 -0.5t-27.5 -0.5q-8 -15 -25 -15h-1q-17 0 -25 13q-16 -1 -32.5 -1.5t-35.5 -1.5q-33 -2 -72 -3h-2q-12 0 -20.5 8.5t-9.5 20.5q0 12 8.5 21t20.5 10q38 1 73 3q34 1 63 3
q-2 45 -3.5 111t-1.5 142t1 156t6 152q-26 1 -50 1.5t-43 2.5q-11 0 -20.5 0.5t-15.5 1.5q-5 1 -8 1t-5 1q-13 2 -19 8.5t-8 12.5q-3 12 2 22.5t17 15.5q13 5 24 -1q13 -2 48 -3t87 -3q10 15 27 13q14 -2 22 -13q61 -1 96.5 1t44.5 4q12 2 23 -4.5t13 -18.5
q3 -12 -3.5 -22.5t-18.5 -13.5q-17 -4 -54.5 -5t-77.5 -1h-21q-5 -72 -6 -151t-1 -155t1.5 -142t3.5 -111q41 2 75.5 1.5t75.5 -2.5z" />
    <glyph glyph-name="uni012A" unicode="&#x12a;" horiz-adv-x="431" 
d="M392 66q-41 2 -75.5 2.5t-75.5 -1.5q-2 45 -3.5 111t-1.5 142t1 155t6 151h21q40 0 77.5 1t54.5 5q12 3 18.5 13.5t3.5 22.5q-2 12 -13 18.5t-23 4.5q-9 -2 -44.5 -4t-96.5 -1q-8 11 -22 13q-17 2 -27 -13q-52 2 -87 3t-48 3q-11 6 -24 1q-12 -5 -17 -15.5t-2 -22.5
q2 -6 8 -12.5t19 -8.5q2 -1 5 -1t8 -1q6 -1 15.5 -1.5t20.5 -0.5q19 -2 43 -2.5t50 -1.5q-5 -72 -6 -152t-1 -156t1.5 -142t3.5 -111q-29 -2 -63 -3q-35 -2 -73 -3q-12 -1 -20.5 -10t-8.5 -21q1 -12 9.5 -20.5t20.5 -8.5h2q39 1 72 3q19 1 35.5 1.5t32.5 1.5q8 -13 25 -13h1
q17 0 25 15q41 2 75.5 1.5t74.5 -2.5q12 -1 21 7.5t10 21.5q1 12 -7.5 21t-20.5 10zM224 764q-29 0 -62 2t-71 7q-13 2 -20.5 11.5t-5.5 21.5q2 13 11.5 20.5t21.5 5.5q81 -10 136.5 -8t98.5 7q12 1 21.5 -6.5t11.5 -20.5q2 -12 -6 -21.5t-20 -11.5q-26 -3 -54 -5t-62 -2z
" />
    <glyph glyph-name="Ibreve" unicode="&#x12c;" horiz-adv-x="431" 
d="M392 66q-41 2 -75.5 2.5t-75.5 -1.5q-2 45 -3.5 111t-1.5 142t1 155t6 151h21q40 0 77.5 1t54.5 5q12 3 18.5 13.5t3.5 22.5q-2 12 -13 18.5t-23 4.5q-9 -2 -44.5 -4t-96.5 -1q-8 11 -22 13q-17 2 -27 -13q-52 2 -87 3t-48 3q-11 6 -24 1q-12 -5 -17 -15.5t-2 -22.5
q2 -6 8 -12.5t19 -8.5q2 -1 5 -1t8 -1q6 -1 15.5 -1.5t20.5 -0.5q19 -2 43 -2.5t50 -1.5q-5 -72 -6 -152t-1 -156t1.5 -142t3.5 -111q-29 -2 -63 -3q-35 -2 -73 -3q-12 -1 -20.5 -10t-8.5 -21q1 -12 9.5 -20.5t20.5 -8.5h2q39 1 72 3q19 1 35.5 1.5t32.5 1.5q8 -13 25 -13h1
q17 0 25 15q41 2 75.5 1.5t74.5 -2.5q12 -1 21 7.5t10 21.5q1 12 -7.5 21t-20.5 10zM210 753q-8 0 -11 1q-39 5 -65 29q-30 27 -35 67q-2 12 5.5 22t19.5 12q13 2 22.5 -6t11.5 -20q3 -21 17.5 -32t29.5 -13q18 -2 38 12.5t30 44.5q4 12 15 18t22 2q12 -4 18 -15t2 -23
q-16 -49 -53 -76q-31 -23 -67 -23z" />
    <glyph glyph-name="Idotaccent" unicode="&#x130;" horiz-adv-x="431" 
d="M392 66q-41 2 -75.5 2.5t-75.5 -1.5q-2 45 -3.5 111t-1.5 142t1 155t6 151h21q40 0 77.5 1t54.5 5q12 3 18.5 13.5t3.5 22.5q-2 12 -13 18.5t-23 4.5q-9 -2 -44.5 -4t-96.5 -1q-8 11 -22 13q-17 2 -27 -13q-52 2 -87 3t-48 3q-11 6 -24 1q-12 -5 -17 -15.5t-2 -22.5
q2 -6 8 -12.5t19 -8.5q2 -1 5 -1t8 -1q6 -1 15.5 -1.5t20.5 -0.5q19 -2 43 -2.5t50 -1.5q-5 -72 -6 -152t-1 -156t1.5 -142t3.5 -111q-29 -2 -63 -3q-35 -2 -73 -3q-12 -1 -20.5 -10t-8.5 -21q1 -12 9.5 -20.5t20.5 -8.5h2q39 1 72 3q19 1 35.5 1.5t32.5 1.5q8 -13 25 -13h1
q17 0 25 15q41 2 75.5 1.5t74.5 -2.5q12 -1 21 7.5t10 21.5q1 12 -7.5 21t-20.5 10zM191 815q11 13 28 13q13 0 21.5 -8.5t8.5 -21.5q0 -11 -6 -18q0 -3 2 -7q3 -12 -3.5 -23t-18.5 -14q-2 0 -4 -0.5t-4 -0.5q-22 0 -29 23q0 1 -1 5.5t-2 11.5q-1 8 0 19t8 21z" />
    <glyph glyph-name="Itilde" unicode="&#x128;" horiz-adv-x="431" 
d="M392 66q-41 2 -75.5 2.5t-75.5 -1.5q-2 45 -3.5 111t-1.5 142t1 155t6 151h21q40 0 77.5 1t54.5 5q12 3 18.5 13.5t3.5 22.5q-2 12 -13 18.5t-23 4.5q-9 -2 -44.5 -4t-96.5 -1q-8 11 -22 13q-17 2 -27 -13q-52 2 -87 3t-48 3q-11 6 -24 1q-12 -5 -17 -15.5t-2 -22.5
q2 -6 8 -12.5t19 -8.5q2 -1 5 -1t8 -1q6 -1 15.5 -1.5t20.5 -0.5q19 -2 43 -2.5t50 -1.5q-5 -72 -6 -152t-1 -156t1.5 -142t3.5 -111q-29 -2 -63 -3q-35 -2 -73 -3q-12 -1 -20.5 -10t-8.5 -21q1 -12 9.5 -20.5t20.5 -8.5h2q39 1 72 3q19 1 35.5 1.5t32.5 1.5q8 -13 25 -13h1
q17 0 25 15q41 2 75.5 1.5t74.5 -2.5q12 -1 21 7.5t10 21.5q1 12 -7.5 21t-20.5 10zM287 742q-20 0 -40.5 10.5t-40.5 24.5q-9 6 -18.5 11.5t-18.5 9.5q-12 6 -16 6q-2 -2 -3 -9.5t-2 -22.5q0 -13 -8.5 -21.5t-20.5 -8.5h-1q-12 0 -21 9t-8 21q0 22 6 47.5t29 38.5
q19 10 37.5 5.5t26.5 -7.5q12 -5 25 -13l25 -16q9 -5 17 -10t16 -9q3 -2 5.5 -3t4.5 -2q1 4 1.5 10.5t-0.5 16.5q-1 13 7 22t21 10t22 -7.5t10 -20.5q1 -21 -3 -46.5t-26 -38.5q-11 -7 -26 -7z" />
    <glyph glyph-name="T" unicode="T" horiz-adv-x="438" 
d="M432 661q0 -13 -8.5 -22t-20.5 -9q-48 -3 -89 -3q-17 0 -34 0.5t-35 1.5q0 -18 0.5 -36t0.5 -37q1 -71 2.5 -145t2.5 -144t0 -131.5t-4 -107.5q-1 -12 -9.5 -20t-20.5 -8h-2q-12 1 -20.5 10t-7.5 22q3 45 4 106t0 130t-2.5 142t-2.5 144q0 20 -0.5 39t-1.5 38
q-32 0 -72 3q-17 1 -36 1.5t-40 1.5q-12 0 -20.5 9t-8.5 22q1 12 10 20.5t22 8.5l39.5 -2t36.5 -1q39 -3 72 -3q4 7 10.5 11.5t15.5 4.5q21 0 28 -18q43 -2 80 -2t79 2q13 1 22 -7.5t10 -20.5z" />
    <glyph glyph-name="Tcommaaccent" unicode="&#x162;" horiz-adv-x="438" 
d="M432 661q0 -13 -8.5 -22t-20.5 -9q-48 -3 -89 -3q-17 0 -34 0.5t-35 1.5q0 -18 0.5 -36t0.5 -37q1 -71 2.5 -145t2.5 -144t0 -131.5t-4 -107.5q-1 -12 -9.5 -20t-20.5 -8h-2q-12 1 -20.5 10t-7.5 22q3 45 4 106t0 130t-2.5 142t-2.5 144q0 20 -0.5 39t-1.5 38
q-32 0 -72 3q-17 1 -36 1.5t-40 1.5q-12 0 -20.5 9t-8.5 22q1 12 10 20.5t22 8.5l39.5 -2t36.5 -1q39 -3 72 -3q4 7 10.5 11.5t15.5 4.5q21 0 28 -18q43 -2 80 -2t79 2q13 1 22 -7.5t10 -20.5zM288 -137q2 -18 1 -35.5t-5 -34.5q-11 -41 -39 -69q-9 -9 -21 -9q-11 0 -21 8
q-9 9 -9 21.5t8 21.5q18 18 23 38.5t4 37.5v4q-38 13 -47 50q-4 17 0.5 32t16.5 23q10 8 22.5 8t23.5 -7q20 -12 30 -39t13 -50z" />
    <glyph glyph-name="Tcaron" unicode="&#x164;" horiz-adv-x="438" 
d="M432 661q0 -13 -8.5 -22t-20.5 -9q-48 -3 -89 -3q-17 0 -34 0.5t-35 1.5q0 -18 0.5 -36t0.5 -37q1 -71 2.5 -145t2.5 -144t0 -131.5t-4 -107.5q-1 -12 -9.5 -20t-20.5 -8h-2q-12 1 -20.5 10t-7.5 22q3 45 4 106t0 130t-2.5 142t-2.5 144q0 20 -0.5 39t-1.5 38
q-32 0 -72 3q-17 1 -36 1.5t-40 1.5q-12 0 -20.5 9t-8.5 22q1 12 10 20.5t22 8.5l39.5 -2t36.5 -1q39 -3 72 -3q4 7 10.5 11.5t15.5 4.5q21 0 28 -18q43 -2 80 -2t79 2q13 1 22 -7.5t10 -20.5zM307 891q9 0 17 -6q11 -7 13 -19t-6 -23l-3 -4q-38 -55 -65 -82.5t-52 -25.5
q-26 1 -45.5 24.5t-39.5 53.5q-12 18 -20 28t-6 22t12 20t22 6.5t20 -11.5l10.5 -15l11.5 -17q13 -20 25 -36q5 -5 7.5 -8t4.5 -5q4 3 10 9t17 19t21 27.5l18 25.5l3 4q10 13 25 13z" />
    <glyph glyph-name="Tbar" unicode="&#x166;" horiz-adv-x="438" 
d="M432 661q0 -13 -8.5 -22t-20.5 -9q-48 -3 -89 -3q-17 0 -34 0.5t-35 1.5q0 -18 0.5 -36t0.5 -37t0.5 -38t0.5 -39q21 1 35.5 2t25.5 2.5t19.5 2.5t19.5 3q12 1 21.5 -6.5t11.5 -20.5q2 -12 -6 -21.5t-20 -11.5q-21 -3 -45.5 -5t-59.5 -3q1 -56 1.5 -111.5t0.5 -106
t-1 -95.5t-3 -80q-1 -12 -9.5 -20t-20.5 -8h-2q-12 1 -20.5 10t-7.5 22q2 35 3 79t1 94.5t-0.5 104.5t-1.5 110h-27t-23 0.5t-22.5 2l-26.5 3.5q-13 2 -20.5 11.5t-5.5 21.5q2 13 11.5 20.5t21.5 5.5l24 -3.5t19.5 -2t20 -1t27.5 -0.5q-1 20 -1.5 38.5t-0.5 37.5
q0 20 -0.5 39t-1.5 38q-32 0 -72 3q-17 1 -36 1.5t-40 1.5q-12 0 -20.5 9t-8.5 22q1 12 10 20.5t22 8.5l39.5 -2t36.5 -1q39 -3 72 -3q4 7 10.5 11.5t15.5 4.5q21 0 28 -18q43 -2 80 -2t79 2q13 1 22 -7.5t10 -20.5z" />
    <glyph glyph-name="X" unicode="X" horiz-adv-x="438" 
d="M416 665q-29 -60 -59.5 -113.5l-63.5 -109.5l-23 -41l-24 -41l34 -65l68 -131.5t62 -125.5q5 -11 0.5 -23t-15.5 -17q-4 -2 -13 -2q-19 0 -27 17q-28 61 -60.5 124l-67.5 130q-5 8 -8.5 15l-7.5 15q-35 -64 -68.5 -135t-64.5 -156q-3 -9 -11 -14t-17 -5q-7 0 -10 2
q-12 4 -17.5 15.5t-0.5 22.5q36 99 75.5 180t80.5 154l-75 146.5t-72 156.5q-5 12 -0.5 23.5t15.5 16.5q12 5 23.5 0.5t16.5 -16.5q31 -71 63 -136.5l64 -128.5q8 12 14.5 24.5t14.5 24.5l62 108.5t58 110.5q5 11 17 15t23 -1t15 -17t-1 -23z" />
    <glyph glyph-name="C" unicode="C" horiz-adv-x="397" 
d="M170 -1h-8.5t-8.5 1q-12 1 -26 5.5t-28 14t-27.5 25t-24.5 38.5q-19 38 -26 92.5t-3 123.5q6 88 25 161.5t50 128.5q31 51 66 79q39 30 79 30q55 2 92 -48q17 -23 27.5 -55t14.5 -72q2 -13 -6 -22.5t-20 -10.5q-13 -2 -22.5 6t-10.5 20q-5 41 -14 64t-18 34
q-19 25 -42 24q-23 0 -47.5 -21t-46.5 -58q-20 -34 -40 -98t-27 -166q-8 -123 23 -186q21 -46 60 -50q24 -3 50.5 8.5t49.5 33t40 49.5t23 58q2 12 12.5 19t22.5 5q13 -2 19.5 -12.5t4.5 -22.5q-8 -39 -29.5 -76.5t-54.5 -66.5q-31 -27 -64 -41t-65 -14z" />
    <glyph glyph-name="Ccedilla" unicode="&#xc7;" horiz-adv-x="397" 
d="M173 -191h-11t-12 1q-12 2 -20 11.5t-6 21.5q2 13 11.5 21t21.5 6q25 -3 36.5 1.5t14.5 7.5q5 5 4 11q0 4 -5 9q-15 11 -48 5q-13 -3 -25 7t-10 25l2 22q1 10 1.5 22.5t1.5 24.5q-21 7 -43 24.5t-39 53.5q-19 38 -26 92.5t-3 123.5q6 88 25 161.5t50 128.5q31 51 66 79
q39 30 79 30q55 2 92 -48q17 -23 27.5 -55t14.5 -72q2 -13 -6 -22.5t-20 -10.5q-13 -2 -22.5 6t-10.5 20q-5 41 -14 64t-18 34q-19 25 -42 24q-23 0 -47.5 -21t-46.5 -58q-20 -34 -40 -98t-27 -166q-8 -123 23 -186q21 -46 60 -50q24 -3 50.5 8.5t49.5 33t40 49.5t23 58
q2 12 12.5 19t22.5 5q13 -2 19.5 -12.5t4.5 -22.5q-8 -39 -29.5 -76.5t-54.5 -66.5q-26 -23 -54.5 -36.5t-55.5 -17.5q-1 -9 -1.5 -17.5t-1.5 -16.5q35 -2 58 -20q26 -20 28 -52q3 -33 -23 -59q-10 -9 -28.5 -17.5t-47.5 -8.5z" />
    <glyph glyph-name="Cacute" unicode="&#x106;" horiz-adv-x="397" 
d="M170 -1h-8.5t-8.5 1q-12 1 -26 5.5t-28 14t-27.5 25t-24.5 38.5q-19 38 -26 92.5t-3 123.5q6 88 25 161.5t50 128.5q31 51 66 79q39 30 79 30q55 2 92 -48q17 -23 27.5 -55t14.5 -72q2 -13 -6 -22.5t-20 -10.5q-13 -2 -22.5 6t-10.5 20q-5 41 -14 64t-18 34
q-19 25 -42 24q-23 0 -47.5 -21t-46.5 -58q-20 -34 -40 -98t-27 -166q-8 -123 23 -186q21 -46 60 -50q24 -3 50.5 8.5t49.5 33t40 49.5t23 58q2 12 12.5 19t22.5 5q13 -2 19.5 -12.5t4.5 -22.5q-8 -39 -29.5 -76.5t-54.5 -66.5q-31 -27 -64 -41t-65 -14zM157 740
q-14 0 -23 11q-8 10 -7 22.5t11 20.5q23 18 41.5 38t35.5 43q7 10 19 12t23 -5q10 -8 12 -20t-6 -22q-20 -27 -40.5 -49.5t-46.5 -43.5q-9 -7 -19 -7z" />
    <glyph glyph-name="Ccaron" unicode="&#x10c;" horiz-adv-x="397" 
d="M170 -1h-8.5t-8.5 1q-12 1 -26 5.5t-28 14t-27.5 25t-24.5 38.5q-19 38 -26 92.5t-3 123.5q6 88 25 161.5t50 128.5q31 51 66 79q39 30 79 30q55 2 92 -48q17 -23 27.5 -55t14.5 -72q2 -13 -6 -22.5t-20 -10.5q-13 -2 -22.5 6t-10.5 20q-5 41 -14 64t-18 34
q-19 25 -42 24q-23 0 -47.5 -21t-46.5 -58q-20 -34 -40 -98t-27 -166q-8 -123 23 -186q21 -46 60 -50q24 -3 50.5 8.5t49.5 33t40 49.5t23 58q2 12 12.5 19t22.5 5q13 -2 19.5 -12.5t4.5 -22.5q-8 -39 -29.5 -76.5t-54.5 -66.5q-31 -27 -64 -41t-65 -14zM287 891q9 0 17 -6
q11 -7 13 -19t-6 -23l-3 -4q-38 -55 -65 -82.5t-52 -25.5q-26 1 -45.5 24.5t-39.5 53.5q-12 18 -20 28t-6 22t12 20t22 6.5t20 -11.5l10.5 -15l11.5 -17q13 -20 25 -36q5 -5 7.5 -8t4.5 -5q4 3 10 9t17 19t21 27.5l18 25.5l3 4q10 13 25 13z" />
    <glyph glyph-name="Ccircumflex" unicode="&#x108;" horiz-adv-x="397" 
d="M170 -1h-8.5t-8.5 1q-12 1 -26 5.5t-28 14t-27.5 25t-24.5 38.5q-19 38 -26 92.5t-3 123.5q6 88 25 161.5t50 128.5q31 51 66 79q39 30 79 30q55 2 92 -48q17 -23 27.5 -55t14.5 -72q2 -13 -6 -22.5t-20 -10.5q-13 -2 -22.5 6t-10.5 20q-5 41 -14 64t-18 34
q-19 25 -42 24q-23 0 -47.5 -21t-46.5 -58q-20 -34 -40 -98t-27 -166q-8 -123 23 -186q21 -46 60 -50q24 -3 50.5 8.5t49.5 33t40 49.5t23 58q2 12 12.5 19t22.5 5q13 -2 19.5 -12.5t4.5 -22.5q-8 -39 -29.5 -76.5t-54.5 -66.5q-31 -27 -64 -41t-65 -14zM287 729
q-15 0 -25 13l-3 4l-18 25.5t-21 27.5t-17 19t-10 9q-2 -2 -4.5 -5t-7.5 -8l-25 -36l-11.5 -17l-10.5 -15q-8 -10 -20 -11.5t-22 6.5t-12 20t6 22t20 28q20 30 39.5 53.5t45.5 24.5q25 2 52 -25.5t65 -82.5l3 -4q8 -11 6 -23t-13 -19q-8 -6 -17 -6z" />
    <glyph glyph-name="Cdotaccent" unicode="&#x10a;" horiz-adv-x="397" 
d="M170 -1h-8.5t-8.5 1q-12 1 -26 5.5t-28 14t-27.5 25t-24.5 38.5q-19 38 -26 92.5t-3 123.5q6 88 25 161.5t50 128.5q31 51 66 79q39 30 79 30q55 2 92 -48q17 -23 27.5 -55t14.5 -72q2 -13 -6 -22.5t-20 -10.5q-13 -2 -22.5 6t-10.5 20q-5 41 -14 64t-18 34
q-19 25 -42 24q-23 0 -47.5 -21t-46.5 -58q-20 -34 -40 -98t-27 -166q-8 -123 23 -186q21 -46 60 -50q24 -3 50.5 8.5t49.5 33t40 49.5t23 58q2 12 12.5 19t22.5 5q13 -2 19.5 -12.5t4.5 -22.5q-8 -39 -29.5 -76.5t-54.5 -66.5q-31 -27 -64 -41t-65 -14zM174 815
q11 13 28 13q13 0 21.5 -8.5t8.5 -21.5q0 -11 -6 -18q0 -3 2 -7q3 -12 -3.5 -23t-18.5 -14q-2 0 -4 -0.5t-4 -0.5q-22 0 -29 23q0 1 -1 5.5t-2 11.5q-1 8 0 19t8 21z" />
    <glyph glyph-name="L" unicode="L" horiz-adv-x="369" 
d="M367 47q2 -13 -6 -22.5t-20 -11.5q-2 -1 -38 -5t-83 -7q-38 -3 -63 -3q-26 0 -44.5 2t-31 5t-20 6.5t-12.5 7.5q-10 8 -13.5 16t-4.5 14q-2 19 -3.5 50.5t-2 71.5t-0.5 86v94q-1 88 -1.5 172t-3.5 143q-1 12 7 21.5t21 10.5q12 0 21.5 -8t10.5 -21q1 -30 2 -67t1.5 -78
l1 -85t0.5 -88v-88t0.5 -80.5t1.5 -68t3 -49.5q4 -2 12 -3.5t23 -2.5t38 -0.5t55 2.5q22 1 42.5 3l36.5 3.5t26 3l10 1.5q12 2 22 -5.5t12 -19.5z" />
    <glyph glyph-name="Lacute" unicode="&#x139;" horiz-adv-x="369" 
d="M367 47q2 -13 -6 -22.5t-20 -11.5q-2 -1 -38 -5t-83 -7q-38 -3 -63 -3q-26 0 -44.5 2t-31 5t-20 6.5t-12.5 7.5q-10 8 -13.5 16t-4.5 14q-2 19 -3.5 50.5t-2 71.5t-0.5 86v94q-1 88 -1.5 172t-3.5 143q-1 12 7 21.5t21 10.5q12 0 21.5 -8t10.5 -21q1 -30 2 -67t1.5 -78
l1 -85t0.5 -88v-88t0.5 -80.5t1.5 -68t3 -49.5q4 -2 12 -3.5t23 -2.5t38 -0.5t55 2.5q22 1 42.5 3l36.5 3.5t26 3l10 1.5q12 2 22 -5.5t12 -19.5zM116 740q-14 0 -23 11q-8 10 -7 22.5t11 20.5q23 18 41.5 38t35.5 43q7 10 19 12t23 -5q10 -8 12 -20t-6 -22
q-20 -27 -40.5 -49.5t-46.5 -43.5q-9 -7 -19 -7z" />
    <glyph glyph-name="Lcaron" unicode="&#x13d;" horiz-adv-x="369" 
d="M367 47q2 -13 -6 -22.5t-20 -11.5q-2 -1 -38 -5t-83 -7q-38 -3 -63 -3q-26 0 -44.5 2t-31 5t-20 6.5t-12.5 7.5q-10 8 -13.5 16t-4.5 14q-2 19 -3.5 50.5t-2 71.5t-0.5 86v94q-1 88 -1.5 172t-3.5 143q-1 12 7 21.5t21 10.5q12 0 21.5 -8t10.5 -21q1 -30 2 -67t1.5 -78
l1 -85t0.5 -88v-88t0.5 -80.5t1.5 -68t3 -49.5q4 -2 12 -3.5t23 -2.5t38 -0.5t55 2.5q22 1 42.5 3l36.5 3.5t26 3l10 1.5q12 2 22 -5.5t12 -19.5zM238 742q2 -18 1 -35.5t-5 -34.5q-11 -41 -39 -69q-9 -9 -21 -9q-11 0 -21 8q-9 9 -9 21.5t8 21.5q18 18 23 38.5t4 37.5v4
q-38 13 -47 50q-4 17 0.5 32t16.5 23q10 8 22.5 8t23.5 -7q20 -12 30 -39t13 -50z" />
    <glyph glyph-name="Lslash" unicode="&#x141;" horiz-adv-x="444" 
d="M441 47q2 -13 -6 -22.5t-20 -11.5q-2 -1 -38 -5t-83 -7q-38 -3 -63 -3q-26 0 -44.5 2t-31 5t-20 6.5t-12.5 7.5q-10 8 -13.5 16t-4.5 14q-2 17 -3.5 44.5t-2 62t-0.5 74.5v82q-11 -5 -22.5 -9t-24.5 -9q-11 -5 -22 0.5t-16 16.5q-5 12 0.5 23t16.5 15l35.5 14.5
t31.5 14.5q-1 81 -1.5 157.5t-2.5 130.5q-1 12 7 21.5t21 10.5q12 0 21.5 -8t10.5 -21q2 -51 3 -119t1 -142l44 26.5t37 24.5q10 6 22 4.5t20 -12.5q7 -11 4.5 -23t-12.5 -19l-45 -29t-54 -32q-4 -2 -7.5 -4t-7.5 -4v-85t0.5 -77t1.5 -65t3 -48q4 -2 12 -3.5t23 -2.5
t38 -0.5t55 2.5q22 1 42.5 3l36.5 3.5t26 3l10 1.5q12 2 22 -5.5t12 -19.5z" />
    <glyph glyph-name="Lcommaaccent" unicode="&#x13b;" horiz-adv-x="369" 
d="M367 47q2 -13 -6 -22.5t-20 -11.5q-2 -1 -38 -5t-83 -7q-38 -3 -63 -3q-26 0 -44.5 2t-31 5t-20 6.5t-12.5 7.5q-10 8 -13.5 16t-4.5 14q-2 19 -3.5 50.5t-2 71.5t-0.5 86v94q-1 88 -1.5 172t-3.5 143q-1 12 7 21.5t21 10.5q12 0 21.5 -8t10.5 -21q1 -30 2 -67t1.5 -78
l1 -85t0.5 -88v-88t0.5 -80.5t1.5 -68t3 -49.5q4 -2 12 -3.5t23 -2.5t38 -0.5t55 2.5q22 1 42.5 3l36.5 3.5t26 3l10 1.5q12 2 22 -5.5t12 -19.5zM268 -137q2 -18 1 -35.5t-5 -34.5q-11 -41 -39 -69q-9 -9 -21 -9q-11 0 -21 8q-9 9 -9 21.5t8 21.5q18 18 23 38.5t4 37.5v4
q-38 13 -47 50q-4 17 0.5 32t16.5 23q10 8 22.5 8t23.5 -7q20 -12 30 -39t13 -50z" />
    <glyph glyph-name="Ldot" unicode="&#x13f;" horiz-adv-x="369" 
d="M367 47q2 -13 -6 -22.5t-20 -11.5q-2 -1 -38 -5t-83 -7q-38 -3 -63 -3q-26 0 -44.5 2t-31 5t-20 6.5t-12.5 7.5q-10 8 -13.5 16t-4.5 14q-2 19 -3.5 50.5t-2 71.5t-0.5 86v94q-1 88 -1.5 172t-3.5 143q-1 12 7 21.5t21 10.5q12 0 21.5 -8t10.5 -21q1 -30 2 -67t1.5 -78
l1 -85t0.5 -88v-88t0.5 -80.5t1.5 -68t3 -49.5q4 -2 12 -3.5t23 -2.5t38 -0.5t55 2.5q22 1 42.5 3l36.5 3.5t26 3l10 1.5q12 2 22 -5.5t12 -19.5zM152 330q11 13 28 13t24.5 -13.5t6.5 -30t-8 -31t-19 -17.5q-2 0 -4 -0.5t-4 -0.5q-22 0 -29 23q0 1 -1 5.5t-2 11.5
q-1 8 0 19t8 21z" />
    <glyph glyph-name="F" unicode="F" horiz-adv-x="406" 
d="M376 692q13 -2 21 -11t7 -21q-1 -13 -10 -21t-22 -7l-10.5 0.5t-27 1.5t-38 1.5t-44.5 0.5q-62 1 -90.5 -2t-39.5 -5q0 -18 0.5 -50.5t1.5 -74t1.5 -89t1.5 -95.5v-42h32q50 -1 99.5 -0.5t95.5 6.5q13 2 22.5 -6t11.5 -20t-6 -22t-20 -12q-33 -5 -67 -6t-69 -1h-34t-34 1
h-31q1 -29 1 -53.5v-44.5q0 -21 -0.5 -37.5t-0.5 -28.5q0 -14 -1 -19q0 -5 -1 -7q-2 -13 -9 -19t-15 -8q-2 0 -3 -0.5t-3 -0.5q-10 0 -17.5 6t-11.5 15q-3 11 0 20q2 15 2 63.5t-1 113.5h-24q-13 -1 -21.5 7.5t-9.5 21.5q0 12 8.5 21t20.5 10h26q0 59 -1 119t-1.5 111
t-1.5 87t-2 46q-1 16 12 29q9 10 26.5 15.5t47.5 7.5q39 5 98 3q25 0 48 -0.5t41 -1.5t29.5 -1.5t12.5 -0.5z" />
    <glyph glyph-name="U" unicode="U" horiz-adv-x="450" 
d="M407 54q10 -2 16.5 -10.5t6.5 -19.5q0 -12 -9 -21t-21 -9q-10 0 -22.5 6t-23.5 24q-5 10 -10 22t-10 28q-4 14 -7.5 30.5t-6.5 36.5q-9 -25 -20 -49q-21 -44 -48 -68q-32 -29 -71 -29q-49 0 -84 41q-41 50 -59 164q-12 85 -12 209q0 52 2.5 100.5t5.5 86t6 60.5t3 26
q2 12 12.5 19t22.5 5t19 -12t5 -23q-1 -5 -3.5 -28.5t-5 -60t-5 -82.5t-2.5 -96q-1 -127 14 -212t44 -119q16 -18 37 -18q24 0 48 33q23 33 41 93t31 140q-3 48 -4.5 97.5t-1.5 97.5q0 34 1 62.5t3 49.5q1 11 1.5 20t2.5 16q1 5 6.5 18t22.5 17q19 5 32 -12q5 -6 8 -15.5
t5 -24.5q3 -21 3 -53q1 -35 -0.5 -75t-4.5 -82q-2 -23 -5.5 -53.5t-8.5 -64.5q4 -49 8.5 -91.5t9.5 -76.5q9 -53 17 -73t11 -24z" />
    <glyph glyph-name="Ugrave" unicode="&#xd9;" horiz-adv-x="450" 
d="M407 54q-3 4 -11 24t-17 73q-5 34 -9.5 76.5t-8.5 91.5q5 34 8.5 64.5t5.5 53.5q3 42 4.5 82t0.5 75q0 32 -3 53q-2 15 -5 24.5t-8 15.5q-13 17 -32 12q-17 -4 -22.5 -17t-6.5 -18q-2 -7 -2.5 -16t-1.5 -20q-2 -21 -3 -49.5t-1 -62.5q0 -48 1.5 -97.5t4.5 -97.5
q-13 -80 -31 -140t-41 -93q-24 -33 -48 -33q-21 0 -37 18q-29 34 -44 119t-14 212q0 50 2.5 96t5 82.5t5 60t3.5 28.5q2 13 -5 23t-19 12t-22.5 -5t-12.5 -19q0 -3 -3 -26t-6 -60.5t-5.5 -86t-2.5 -100.5q0 -124 12 -209q18 -114 59 -164q35 -41 84 -41q39 0 71 29
q27 24 48 68q11 24 20 49q3 -20 6.5 -36.5t7.5 -30.5q5 -16 10 -28t10 -22q11 -18 23.5 -24t22.5 -6q12 0 21 9t9 21q0 11 -6.5 19.5t-16.5 10.5zM254 740q-10 0 -19 7q-26 21 -46.5 43.5t-40.5 49.5q-8 10 -6 22t12 20q11 7 23 5t19 -12q17 -23 35.5 -43t41.5 -38
q10 -8 11 -20.5t-7 -22.5q-9 -11 -23 -11z" />
    <glyph glyph-name="Uacute" unicode="&#xda;" horiz-adv-x="450" 
d="M407 54q10 -2 16.5 -10.5t6.5 -19.5q0 -12 -9 -21t-21 -9q-10 0 -22.5 6t-23.5 24q-5 10 -10 22t-10 28q-4 14 -7.5 30.5t-6.5 36.5q-9 -25 -20 -49q-21 -44 -48 -68q-32 -29 -71 -29q-49 0 -84 41q-41 50 -59 164q-12 85 -12 209q0 52 2.5 100.5t5.5 86t6 60.5t3 26
q2 12 12.5 19t22.5 5t19 -12t5 -23q-1 -5 -3.5 -28.5t-5 -60t-5 -82.5t-2.5 -96q-1 -127 14 -212t44 -119q16 -18 37 -18q24 0 48 33q23 33 41 93t31 140q-3 48 -4.5 97.5t-1.5 97.5q0 34 1 62.5t3 49.5q1 11 1.5 20t2.5 16q1 5 6.5 18t22.5 17q19 5 32 -12q5 -6 8 -15.5
t5 -24.5q3 -21 3 -53q1 -35 -0.5 -75t-4.5 -82q-2 -23 -5.5 -53.5t-8.5 -64.5q4 -49 8.5 -91.5t9.5 -76.5q9 -53 17 -73t11 -24zM183 740q-14 0 -23 11q-8 10 -7 22.5t11 20.5q23 18 41.5 38t35.5 43q7 10 19 12t23 -5q10 -8 12 -20t-6 -22q-20 -27 -40.5 -49.5t-46.5 -43.5
q-9 -7 -19 -7z" />
    <glyph glyph-name="Ucircumflex" unicode="&#xdb;" horiz-adv-x="450" 
d="M407 54q-3 4 -11 24t-17 73q-5 34 -9.5 76.5t-8.5 91.5q5 34 8.5 64.5t5.5 53.5q3 42 4.5 82t0.5 75q0 32 -3 53q-2 15 -5 24.5t-8 15.5q-13 17 -32 12q-17 -4 -22.5 -17t-6.5 -18q-2 -7 -2.5 -16t-1.5 -20q-2 -21 -3 -49.5t-1 -62.5q0 -48 1.5 -97.5t4.5 -97.5
q-13 -80 -31 -140t-41 -93q-24 -33 -48 -33q-21 0 -37 18q-29 34 -44 119t-14 212q0 50 2.5 96t5 82.5t5 60t3.5 28.5q2 13 -5 23t-19 12t-22.5 -5t-12.5 -19q0 -3 -3 -26t-6 -60.5t-5.5 -86t-2.5 -100.5q0 -124 12 -209q18 -114 59 -164q35 -41 84 -41q39 0 71 29
q27 24 48 68q11 24 20 49q3 -20 6.5 -36.5t7.5 -30.5q5 -16 10 -28t10 -22q11 -18 23.5 -24t22.5 -6q12 0 21 9t9 21q0 11 -6.5 19.5t-16.5 10.5zM299 729q-15 0 -25 13l-3 4l-18 25.5t-21 27.5t-17 19t-10 9q-2 -2 -4.5 -5t-7.5 -8l-25 -36l-11.5 -17l-10.5 -15
q-8 -10 -20 -11.5t-22 6.5t-12 20t6 22t20 28q20 30 39.5 53.5t45.5 24.5q25 2 52 -25.5t65 -82.5l3 -4q8 -11 6 -23t-13 -19q-8 -6 -17 -6z" />
    <glyph glyph-name="Udieresis" unicode="&#xdc;" horiz-adv-x="450" 
d="M407 54q-3 4 -11 24t-17 73q-5 34 -9.5 76.5t-8.5 91.5q5 34 8.5 64.5t5.5 53.5q3 42 4.5 82t0.5 75q0 32 -3 53q-2 15 -5 24.5t-8 15.5q-13 17 -32 12q-17 -4 -22.5 -17t-6.5 -18q-2 -7 -2.5 -16t-1.5 -20q-2 -21 -3 -49.5t-1 -62.5q0 -48 1.5 -97.5t4.5 -97.5
q-13 -80 -31 -140t-41 -93q-24 -33 -48 -33q-21 0 -37 18q-29 34 -44 119t-14 212q0 50 2.5 96t5 82.5t5 60t3.5 28.5q2 13 -5 23t-19 12t-22.5 -5t-12.5 -19q0 -3 -3 -26t-6 -60.5t-5.5 -86t-2.5 -100.5q0 -124 12 -209q18 -114 59 -164q35 -41 84 -41q39 0 71 29
q27 24 48 68q11 24 20 49q3 -20 6.5 -36.5t7.5 -30.5q5 -16 10 -28t10 -22q11 -18 23.5 -24t22.5 -6q12 0 21 9t9 21q0 11 -6.5 19.5t-16.5 10.5zM236 815q11 13 28 13q13 0 21.5 -8.5t8.5 -21.5q0 -11 -6 -18q0 -3 2 -7q3 -12 -3.5 -23t-18.5 -14q-2 0 -4 -0.5t-4 -0.5
q-22 0 -29 23q0 1 -1 5.5t-2 11.5q-1 8 0 19t8 21zM138 815q11 13 28 13q13 0 21.5 -8.5t8.5 -21.5q0 -11 -6 -18q0 -3 2 -7q3 -12 -3.5 -23t-18.5 -14q-2 0 -4 -0.5t-4 -0.5q-22 0 -29 23q0 1 -1 5.5t-2 11.5q-1 8 0 19t8 21z" />
    <glyph glyph-name="Uring" unicode="&#x16e;" horiz-adv-x="450" 
d="M407 54q-3 4 -11 24t-17 73q-5 34 -9.5 76.5t-8.5 91.5q5 34 8.5 64.5t5.5 53.5q3 42 4.5 82t0.5 75q0 32 -3 53q-2 15 -5 24.5t-8 15.5q-13 17 -32 12q-17 -4 -22.5 -17t-6.5 -18q-2 -7 -2.5 -16t-1.5 -20q-2 -21 -3 -49.5t-1 -62.5q0 -48 1.5 -97.5t4.5 -97.5
q-13 -80 -31 -140t-41 -93q-24 -33 -48 -33q-21 0 -37 18q-29 34 -44 119t-14 212q0 50 2.5 96t5 82.5t5 60t3.5 28.5q2 13 -5 23t-19 12t-22.5 -5t-12.5 -19q0 -3 -3 -26t-6 -60.5t-5.5 -86t-2.5 -100.5q0 -124 12 -209q18 -114 59 -164q35 -41 84 -41q39 0 71 29
q27 24 48 68q11 24 20 49q3 -20 6.5 -36.5t7.5 -30.5q5 -16 10 -28t10 -22q11 -18 23.5 -24t22.5 -6q12 0 21 9t9 21q0 11 -6.5 19.5t-16.5 10.5zM204 703q-27 0 -46 17t-24 46t10 56q15 29 49 39q5 2 10 3t10 1q27 0 47 -20.5t23 -51.5q3 -28 -12 -54q-17 -28 -50 -34
q-5 -1 -9 -1.5t-8 -0.5zM213 815q-2 0 -3 -0.5t-3 -0.5q-16 -5 -20.5 -18t-2.5 -23q1 -7 5 -13.5t15 -6.5q2 0 3.5 0.5t3.5 0.5q17 4 20 16.5t2 17.5q-1 10 -6.5 18.5t-13.5 8.5z" />
    <glyph glyph-name="Uhungarumlaut" unicode="&#x170;" horiz-adv-x="450" 
d="M407 54q10 -2 16.5 -10.5t6.5 -19.5q0 -12 -9 -21t-21 -9q-10 0 -22.5 6t-23.5 24q-5 10 -10 22t-10 28q-4 14 -7.5 30.5t-6.5 36.5q-9 -25 -20 -49q-21 -44 -48 -68q-32 -29 -71 -29q-49 0 -84 41q-41 50 -59 164q-12 85 -12 209q0 52 2.5 100.5t5.5 86t6 60.5t3 26
q2 12 12.5 19t22.5 5t19 -12t5 -23q-1 -5 -3.5 -28.5t-5 -60t-5 -82.5t-2.5 -96q-1 -127 14 -212t44 -119q16 -18 37 -18q24 0 48 33q23 33 41 93t31 140q-3 48 -4.5 97.5t-1.5 97.5q0 34 1 62.5t3 49.5q1 11 1.5 20t2.5 16q1 5 6.5 18t22.5 17q19 5 32 -12q5 -6 8 -15.5
t5 -24.5q3 -21 3 -53q1 -35 -0.5 -75t-4.5 -82q-2 -23 -5.5 -53.5t-8.5 -64.5q4 -49 8.5 -91.5t9.5 -76.5q9 -53 17 -73t11 -24zM103 740q-14 0 -23 11q-8 10 -7 22.5t11 20.5q23 18 41.5 38t35.5 43q7 10 19 12t23 -5q10 -8 12 -20t-6 -22q-20 -27 -40.5 -49.5t-46.5 -43.5
q-9 -7 -19 -7zM263 740q-14 0 -23 11q-8 10 -7 22.5t11 20.5q23 18 41.5 38t35.5 43q7 10 19 12t23 -5q10 -8 12 -20t-6 -22q-20 -27 -40.5 -49.5t-46.5 -43.5q-9 -7 -19 -7z" />
    <glyph glyph-name="Uogonek" unicode="&#x172;" horiz-adv-x="450" 
d="M407 54q10 -2 16.5 -10.5t6.5 -19.5q0 -12 -9 -21t-21 -9h-3q-1 -1 -1 -1.5t-1 -1.5q-5 -5 -13.5 -15t-16.5 -22.5t-13 -26.5t-4 -27q1 -5 4 -8q5 -3 13 -4.5t17 -1.5t17.5 0.5t14.5 2.5q12 2 22.5 -4.5t13.5 -18.5q2 -12 -4.5 -22.5t-18.5 -13.5q-2 0 -12.5 -2t-25.5 -2
h-5q-43 0 -67 18q-25 19 -28 50q-5 48 30 99q10 14 18 23.5t13 14.5q-8 16 -16 43q-4 14 -7.5 30.5t-6.5 36.5q-9 -25 -20 -49q-21 -44 -48 -68q-32 -29 -71 -29q-49 0 -84 41q-41 50 -59 164q-12 85 -12 209q0 52 2.5 100.5t5.5 86t6 60.5t3 26q2 12 12.5 19t22.5 5t19 -12
t5 -23q-1 -5 -3.5 -28.5t-5 -60t-5 -82.5t-2.5 -96q-1 -127 14 -212t44 -119q16 -18 37 -18q24 0 48 33q23 33 41 93t31 140q-3 48 -4.5 97.5t-1.5 97.5q0 34 1 62.5t3 49.5q1 11 1.5 20t2.5 16q1 5 6.5 18t22.5 17q19 5 32 -12q5 -6 8 -15.5t5 -24.5q3 -21 3 -53
q1 -35 -0.5 -75t-4.5 -82q-2 -23 -5.5 -53.5t-8.5 -64.5q4 -49 8.5 -91.5t9.5 -76.5q9 -53 17 -73t11 -24z" />
    <glyph glyph-name="Umacron" unicode="&#x16a;" horiz-adv-x="450" 
d="M407 54q-3 4 -11 24t-17 73q-5 34 -9.5 76.5t-8.5 91.5q5 34 8.5 64.5t5.5 53.5q3 42 4.5 82t0.5 75q0 32 -3 53q-2 15 -5 24.5t-8 15.5q-13 17 -32 12q-17 -4 -22.5 -17t-6.5 -18q-2 -7 -2.5 -16t-1.5 -20q-2 -21 -3 -49.5t-1 -62.5q0 -48 1.5 -97.5t4.5 -97.5
q-13 -80 -31 -140t-41 -93q-24 -33 -48 -33q-21 0 -37 18q-29 34 -44 119t-14 212q0 50 2.5 96t5 82.5t5 60t3.5 28.5q2 13 -5 23t-19 12t-22.5 -5t-12.5 -19q0 -3 -3 -26t-6 -60.5t-5.5 -86t-2.5 -100.5q0 -124 12 -209q18 -114 59 -164q35 -41 84 -41q39 0 71 29
q27 24 48 68q11 24 20 49q3 -20 6.5 -36.5t7.5 -30.5q5 -16 10 -28t10 -22q11 -18 23.5 -24t22.5 -6q12 0 21 9t9 21q0 11 -6.5 19.5t-16.5 10.5zM217 764q-29 0 -62 2t-71 7q-13 2 -20.5 11.5t-5.5 21.5q2 13 11.5 20.5t21.5 5.5q81 -10 136.5 -8t98.5 7q12 1 21.5 -6.5
t11.5 -20.5q2 -12 -6 -21.5t-20 -11.5q-26 -3 -54 -5t-62 -2z" />
    <glyph glyph-name="Ubreve" unicode="&#x16c;" horiz-adv-x="450" 
d="M407 54q-3 4 -11 24t-17 73q-5 34 -9.5 76.5t-8.5 91.5q5 34 8.5 64.5t5.5 53.5q3 42 4.5 82t0.5 75q0 32 -3 53q-2 15 -5 24.5t-8 15.5q-13 17 -32 12q-17 -4 -22.5 -17t-6.5 -18q-2 -7 -2.5 -16t-1.5 -20q-2 -21 -3 -49.5t-1 -62.5q0 -48 1.5 -97.5t4.5 -97.5
q-13 -80 -31 -140t-41 -93q-24 -33 -48 -33q-21 0 -37 18q-29 34 -44 119t-14 212q0 50 2.5 96t5 82.5t5 60t3.5 28.5q2 13 -5 23t-19 12t-22.5 -5t-12.5 -19q0 -3 -3 -26t-6 -60.5t-5.5 -86t-2.5 -100.5q0 -124 12 -209q18 -114 59 -164q35 -41 84 -41q39 0 71 29
q27 24 48 68q11 24 20 49q3 -20 6.5 -36.5t7.5 -30.5q5 -16 10 -28t10 -22q11 -18 23.5 -24t22.5 -6q12 0 21 9t9 21q0 11 -6.5 19.5t-16.5 10.5zM204 753q-8 0 -11 1q-39 5 -65 29q-30 27 -35 67q-2 12 5.5 22t19.5 12q13 2 22.5 -6t11.5 -20q3 -21 17.5 -32t29.5 -13
q18 -2 38 12.5t30 44.5q4 12 15 18t22 2q12 -4 18 -15t2 -23q-16 -49 -53 -76q-31 -23 -67 -23z" />
    <glyph glyph-name="Utilde" unicode="&#x168;" horiz-adv-x="450" 
d="M407 54q-3 4 -11 24t-17 73q-5 34 -9.5 76.5t-8.5 91.5q5 34 8.5 64.5t5.5 53.5q3 42 4.5 82t0.5 75q0 32 -3 53q-2 15 -5 24.5t-8 15.5q-13 17 -32 12q-17 -4 -22.5 -17t-6.5 -18q-2 -7 -2.5 -16t-1.5 -20q-2 -21 -3 -49.5t-1 -62.5q0 -48 1.5 -97.5t4.5 -97.5
q-13 -80 -31 -140t-41 -93q-24 -33 -48 -33q-21 0 -37 18q-29 34 -44 119t-14 212q0 50 2.5 96t5 82.5t5 60t3.5 28.5q2 13 -5 23t-19 12t-22.5 -5t-12.5 -19q0 -3 -3 -26t-6 -60.5t-5.5 -86t-2.5 -100.5q0 -124 12 -209q18 -114 59 -164q35 -41 84 -41q39 0 71 29
q27 24 48 68q11 24 20 49q3 -20 6.5 -36.5t7.5 -30.5q5 -16 10 -28t10 -22q11 -18 23.5 -24t22.5 -6q12 0 21 9t9 21q0 11 -6.5 19.5t-16.5 10.5zM284 742q-20 0 -40.5 10.5t-40.5 24.5q-9 6 -18.5 11.5t-18.5 9.5q-12 6 -16 6q-2 -2 -3 -9.5t-2 -22.5q0 -13 -8.5 -21.5
t-20.5 -8.5h-1q-12 0 -21 9t-8 21q0 22 6 47.5t29 38.5q19 10 37.5 5.5t26.5 -7.5q12 -5 25 -13l25 -16q9 -5 17 -10t16 -9q3 -2 5.5 -3t4.5 -2q1 4 1.5 10.5t-0.5 16.5q-1 13 7 22t21 10t22 -7.5t10 -20.5q1 -21 -3 -46.5t-26 -38.5q-11 -7 -26 -7z" />
    <glyph glyph-name="V" unicode="V" horiz-adv-x="372" 
d="M185 -5q-16 0 -36.5 7.5t-40.5 33.5q-38 49 -62 161q-8 43 -14.5 95.5t-10.5 113.5q-3 56 -4 104.5t-1 81.5v16t0.5 28t1 28.5t1.5 18.5q3 12 13.5 18.5t22.5 4.5q11 -3 18 -13t5 -21q-1 -5 -1.5 -29.5t-0.5 -62t1.5 -85.5t4.5 -99q6 -86 15.5 -144t20.5 -96t21.5 -58
t18.5 -29q9 -10 15.5 -12.5t11.5 -1.5q5 0 11.5 2t15.5 11t20 29.5t22 59t20.5 98.5t14.5 149q3 52 3.5 99.5t0.5 84.5t-1 59l-1 22q-1 13 7.5 22t21.5 10q12 0 21 -8.5t10 -20.5l1 -23t1 -60.5t-0.5 -86t-3.5 -101.5q-7 -125 -26 -213q-24 -115 -68 -161q-29 -32 -70 -32z
" />
    <glyph glyph-name="M" unicode="M" horiz-adv-x="550" 
d="M275 -5q-38 0 -63 52q-8 17 -16 41.5t-16 56.5q-14 57 -24.5 126.5l-21.5 140.5q-6 46 -12.5 87.5l-12.5 76.5q-2 5 -2.5 10.5t-2.5 10.5q-3 -24 -6 -56q-4 -42 -7.5 -96.5t-5.5 -121.5q-2 -57 -3.5 -110.5t-2 -95t-0.5 -67v-25.5q0 -13 -8.5 -21.5t-21.5 -8.5
q-12 0 -21 8.5t-9 21.5v28t1 71.5t2.5 101t3.5 116.5q2 70 5.5 126.5t8.5 98.5q4 37 8.5 62t10 40t11 23t12.5 12q18 11 36 2q16 -8 26 -31.5t21 -75.5q8 -36 14.5 -82t14.5 -97q9 -64 19 -127t22 -117q12 -58 24 -88q7 -16 12 -25q4 10 9.5 30t12.5 58q8 42 15 93.5
l14 104.5l16 118.5t17 106.5q11 57 26 91t44 38q18 2 34 -11q5 -5 11 -13.5t11.5 -24t11.5 -40.5t11 -63q6 -42 11 -97t8 -123q3 -57 5 -111.5t3 -96.5t1 -67.5v-26.5q0 -13 -8.5 -21.5t-21.5 -8.5q-12 0 -21 8.5t-9 21.5v25t-1 66t-2.5 93.5t-4.5 108.5q-8 132 -18 214
q-5 32 -9 53t-8 33q0 -2 -2 -6q-4 -14 -8 -31.5t-8 -40.5q-8 -44 -15 -96.5t-15 -106.5l-15.5 -118t-17.5 -104q-5 -26 -10 -45t-11 -33q-2 -4 -5.5 -12t-9.5 -15.5t-15 -13t-21 -5.5h-1z" />
    <glyph glyph-name="bullet" unicode="&#x2022;" horiz-adv-x="170" 
d="M33 387q11 13 26.5 20.5t32.5 7.5q27 0 45 -18.5t18 -44.5q0 -24 -13 -38q0 -8 5 -15q6 -26 -7.5 -48.5t-39.5 -29.5q-5 0 -8.5 -1t-8.5 -1q-20 0 -37 13t-24 35q0 2 -2 12t-4 24q-2 17 0.5 40.5t16.5 43.5z" />
    <glyph glyph-name="uni00AD" unicode="&#xad;" horiz-adv-x="299" 
d="M138 235q-14 0 -23.5 0.5t-18.5 1.5t-21 2.5t-31 4.5q-13 2 -20.5 11.5t-5.5 21.5q2 13 11.5 20.5t21.5 5.5q40 -5 68 -6.5t49 -1.5t39.5 2t39.5 5q12 1 21.5 -6.5t11.5 -20.5q2 -12 -6 -21.5t-20 -11.5q-26 -3 -54 -5t-62 -2z" />
    <glyph glyph-name="equal" unicode="=" horiz-adv-x="444" 
d="M249 415h-40.5t-56.5 1l-59 2t-48 4q-13 2 -20.5 11.5t-5.5 21.5q2 13 11.5 20.5t21.5 5.5q40 -5 89 -6.5t96 -0.5t86.5 3t60.5 5q12 1 21.5 -6.5t11.5 -20.5q2 -12 -6 -21.5t-20 -11.5q-26 -3 -67 -5t-75 -2zM249 254q-14 0 -39.5 -0.5t-54 -0.5t-56.5 0.5t-47 3.5
q-13 2 -20.5 11.5t-5.5 21.5q2 13 11.5 20.5t21.5 5.5q40 -5 89 -5.5t95.5 1t86 4.5t60.5 6q12 1 23 -6.5t13 -20.5q2 -12 -6 -21.5t-20 -11.5q-13 -2 -31.5 -3t-39.5 -2.5t-42 -2t-38 -0.5z" />
    <glyph glyph-name="quotedbl" unicode="&#x22;" horiz-adv-x="210" 
d="M18 504q0 14 0.5 24.5t1.5 21t2.5 23t4.5 31.5q2 13 11.5 20.5t21.5 5.5q13 -2 20.5 -11.5t5.5 -21.5q-5 -41 -6.5 -69.5t-1.5 -51t2 -41.5t5 -40q1 -12 -6.5 -21.5t-20.5 -11.5q-12 -2 -21.5 6t-11.5 20q-3 26 -5 54t-2 62zM124 478q0 -14 0.5 -22t1.5 -15.5t2.5 -17.5
l4.5 -29q2 -13 11.5 -20.5t21.5 -5.5q13 2 20.5 11.5t5.5 21.5q-5 40 -6.5 66.5t-1.5 46t2 36t5 37.5q1 12 -6.5 21.5t-20.5 11.5q-12 2 -21.5 -6t-11.5 -20q-3 -26 -5 -54t-2 -62z" />
    <glyph glyph-name="plus" unicode="+" horiz-adv-x="350" 
d="M319 338q12 -2 20 -11.5t6 -21.5q-2 -13 -11.5 -20.5t-21.5 -6.5q-20 2 -47 4t-59 3q0 -38 2 -70t5 -52q1 -12 -6.5 -21.5t-20.5 -11.5q-12 -2 -21.5 6t-11.5 20q-1 9 -2 23.5t-2 32l-2 36.5t-1 37q-26 -1 -53.5 -3t-55.5 -5q-12 -2 -21.5 5.5t-11.5 20.5q-2 12 5.5 21.5
t20.5 11.5q33 5 61.5 6.5t54.5 2.5q0 26 2 55t7 64q2 13 11.5 20.5t21.5 5.5q13 -2 20.5 -11.5t5.5 -21.5q-4 -28 -5.5 -56t-2.5 -57q31 -1 62.5 -2.5t50.5 -3.5z" />
    <glyph glyph-name="divide" unicode="&#xf7;" horiz-adv-x="425" 
d="M183 202q11 13 28 13t24.5 -13.5t6.5 -30t-8 -31t-19 -17.5q-2 0 -4 -0.5t-4 -0.5q-22 0 -29 23q0 1 -1 5.5t-2 11.5q-1 8 0 19t8 21zM183 486q11 13 28 13t24.5 -13.5t6.5 -30t-8 -31t-19 -17.5q-2 0 -4 -0.5t-4 -0.5q-22 0 -29 23q0 1 -1 5.5t-2 11.5q-1 8 0 19t8 21z
M187 285q-14 0 -33 0.5t-40 1t-42.5 2t-40.5 4.5q-13 2 -20.5 11.5t-5.5 21.5q2 13 11.5 20.5t21.5 5.5q40 -5 92 -6.5t102 -0.5t92.5 3t63.5 5q12 1 21.5 -6.5t11.5 -20.5q2 -12 -6 -21.5t-20 -11.5q-13 -2 -40.5 -3t-59 -2.5t-61.5 -2t-47 -0.5z" />
    <glyph glyph-name="bar" unicode="|" horiz-adv-x="102" 
d="M17 300v31.5t0.5 51.5t1.5 61.5l2 62.5t2 54.5t3 37.5t11.5 20.5t21.5 5.5q13 -2 20.5 -11.5t5.5 -21.5q-3 -27 -5 -86.5t-2.5 -135t-0.5 -157t1 -152t2.5 -122t3.5 -65.5q1 -12 -6.5 -21.5t-20.5 -11.5q-12 -2 -21.5 6t-11.5 20q-1 8 -2 40.5t-1.5 77t-1.5 95t-1.5 96
t-0.5 79.5v45z" />
    <glyph glyph-name="quotesingle" unicode="'" horiz-adv-x="98" 
d="M18 478q0 34 -0.5 64.5t2.5 56.5q2 12 11.5 20t21.5 6q13 -2 20.5 -11.5t6.5 -21.5q-3 -21 -4.5 -38.5t-1.5 -38t2 -47.5t7 -67q2 -12 -5.5 -21.5t-20.5 -11.5q-12 -2 -21.5 5.5t-11.5 20.5q-3 19 -4 29t-1.5 17.5t-0.5 15.5v22z" />
    <glyph glyph-name="asterisk" unicode="*" horiz-adv-x="302" 
d="M268 366q8 -10 6.5 -22t-10.5 -20q-11 -8 -23 -6.5t-20 10.5l-20.5 25t-25.5 29l2 -24.5t3 -25.5q2 -12 -5.5 -21.5t-20.5 -11.5q-12 -2 -21.5 5.5t-11.5 20.5q-3 18 -4 28t-2 18l-25.5 -29.5t-19.5 -24.5q-8 -9 -20 -10.5t-23 6.5q-9 7 -10.5 19.5t5.5 21.5l15.5 18.5
t21.5 24.5l25 27l25 26l-40.5 37t-42.5 35q-10 8 -11.5 19.5t6.5 22.5q8 9 19.5 11t22.5 -6l54 -45q1 24 2 44.5t3 31.5q2 12 11.5 20t21.5 6q13 -2 20.5 -11.5t6.5 -21.5q-2 -16 -3.5 -35t-3.5 -42q14 13 30.5 26.5l36.5 28.5q10 8 21.5 6t19.5 -11q8 -11 6.5 -22.5
t-11.5 -19.5q-22 -17 -43.5 -35.5t-41.5 -38.5l42.5 -46.5t32.5 -37.5z" />
    <glyph glyph-name="N" unicode="N" horiz-adv-x="418" 
d="M396 667q1 -98 1.5 -174.5t0 -136.5t-2 -105.5t-4.5 -80.5q-4 -41 -8.5 -69.5t-11.5 -48.5q-9 -23 -21 -37q-17 -18 -40 -18h-1q-15 0 -28.5 7t-24.5 18t-20 24t-16 25q-17 28 -34 67.5t-36 90.5q-17 49 -33 100.5t-30 102.5l2 -114t0.5 -113.5t-2.5 -101.5t-6 -79
q-2 -13 -11.5 -20.5t-22.5 -5.5q-12 2 -19.5 11.5t-5.5 21.5q4 35 5.5 89t1.5 117t-1.5 129t-2.5 124q-1 40 -1.5 73t-0.5 57v40q1 5 1 8t1 6q2 18 12 23t15 6q9 1 18.5 -4t14.5 -17q1 -2 1 -4t1 -5q28 -121 58 -228t59 -188q22 -63 40 -101t31 -59.5t21 -29.5t11 -9
q2 2 5.5 10t7.5 25q5 20 8 47.5t5 65.5q2 35 3.5 78.5t2 99t0 125t-1.5 157.5q-1 13 8 22t21 9q13 0 21.5 -8.5t8.5 -21.5z" />
    <glyph glyph-name="Ntilde" unicode="&#xd1;" horiz-adv-x="418" 
d="M396 667q0 13 -8.5 21.5t-21.5 8.5q-12 0 -21 -9t-8 -22q1 -88 1.5 -157.5t0 -125t-2 -99t-3.5 -78.5q-2 -38 -5 -65.5t-8 -47.5q-4 -17 -7.5 -25t-5.5 -10q-3 1 -11 9t-21 29.5t-31 59.5t-40 101q-29 81 -59 188t-58 228q-1 3 -1 5t-1 4q-5 12 -14.5 17t-18.5 4
q-5 -1 -15 -6t-12 -23q-1 -3 -1 -6t-1 -8v-40q0 -24 0.5 -57t1.5 -73q1 -58 2.5 -124t1.5 -129t-1.5 -117t-5.5 -89q-2 -12 5.5 -21.5t19.5 -11.5q13 -2 22.5 5.5t11.5 20.5q4 32 6 79t2.5 101.5t-0.5 113.5l-2 114q14 -51 30 -102.5t33 -100.5q19 -51 36 -90.5t34 -67.5
q7 -12 16 -25t20 -24t24.5 -18t28.5 -7h1q23 0 40 18q12 14 21 37q7 20 11.5 48.5t8.5 69.5q3 35 4.5 80.5t2 105.5t0 136.5t-1.5 174.5zM280 742q-20 0 -40.5 10.5t-40.5 24.5q-9 6 -18.5 11.5t-18.5 9.5q-12 6 -16 6q-2 -2 -3 -9.5t-2 -22.5q0 -13 -8.5 -21.5t-20.5 -8.5
h-1q-12 0 -21 9t-8 21q0 22 6 47.5t29 38.5q19 10 37.5 5.5t26.5 -7.5q12 -5 25 -13l25 -16q9 -5 17 -10t16 -9q3 -2 5.5 -3t4.5 -2q1 4 1.5 10.5t-0.5 16.5q-1 13 7 22t21 10t22 -7.5t10 -20.5q1 -21 -3 -46.5t-26 -38.5q-11 -7 -26 -7z" />
    <glyph glyph-name="Ncaron" unicode="&#x147;" horiz-adv-x="418" 
d="M396 667q1 -98 1.5 -174.5t0 -136.5t-2 -105.5t-4.5 -80.5q-4 -41 -8.5 -69.5t-11.5 -48.5q-9 -23 -21 -37q-17 -18 -40 -18h-1q-15 0 -28.5 7t-24.5 18t-20 24t-16 25q-17 28 -34 67.5t-36 90.5q-17 49 -33 100.5t-30 102.5l2 -114t0.5 -113.5t-2.5 -101.5t-6 -79
q-2 -13 -11.5 -20.5t-22.5 -5.5q-12 2 -19.5 11.5t-5.5 21.5q4 35 5.5 89t1.5 117t-1.5 129t-2.5 124q-1 40 -1.5 73t-0.5 57v40q1 5 1 8t1 6q2 18 12 23t15 6q9 1 18.5 -4t14.5 -17q1 -2 1 -4t1 -5q28 -121 58 -228t59 -188q22 -63 40 -101t31 -59.5t21 -29.5t11 -9
q2 2 5.5 10t7.5 25q5 20 8 47.5t5 65.5q2 35 3.5 78.5t2 99t0 125t-1.5 157.5q-1 13 8 22t21 9q13 0 21.5 -8.5t8.5 -21.5zM297 891q9 0 17 -6q11 -7 13 -19t-6 -23l-3 -4q-38 -55 -65 -82.5t-52 -25.5q-26 1 -45.5 24.5t-39.5 53.5q-12 18 -20 28t-6 22t12 20t22 6.5
t20 -11.5l10.5 -15l11.5 -17q13 -20 25 -36q5 -5 7.5 -8t4.5 -5q4 3 10 9t17 19t21 27.5l18 25.5l3 4q10 13 25 13z" />
    <glyph glyph-name="Nacute" unicode="&#x143;" horiz-adv-x="418" 
d="M396 667q1 -98 1.5 -174.5t0 -136.5t-2 -105.5t-4.5 -80.5q-4 -41 -8.5 -69.5t-11.5 -48.5q-9 -23 -21 -37q-17 -18 -40 -18h-1q-15 0 -28.5 7t-24.5 18t-20 24t-16 25q-17 28 -34 67.5t-36 90.5q-17 49 -33 100.5t-30 102.5l2 -114t0.5 -113.5t-2.5 -101.5t-6 -79
q-2 -13 -11.5 -20.5t-22.5 -5.5q-12 2 -19.5 11.5t-5.5 21.5q4 35 5.5 89t1.5 117t-1.5 129t-2.5 124q-1 40 -1.5 73t-0.5 57v40q1 5 1 8t1 6q2 18 12 23t15 6q9 1 18.5 -4t14.5 -17q1 -2 1 -4t1 -5q28 -121 58 -228t59 -188q22 -63 40 -101t31 -59.5t21 -29.5t11 -9
q2 2 5.5 10t7.5 25q5 20 8 47.5t5 65.5q2 35 3.5 78.5t2 99t0 125t-1.5 157.5q-1 13 8 22t21 9q13 0 21.5 -8.5t8.5 -21.5zM167 740q-14 0 -23 11q-8 10 -7 22.5t11 20.5q23 18 41.5 38t35.5 43q7 10 19 12t23 -5q10 -8 12 -20t-6 -22q-20 -27 -40.5 -49.5t-46.5 -43.5
q-9 -7 -19 -7z" />
    <glyph glyph-name="Ncommaaccent" unicode="&#x145;" horiz-adv-x="418" 
d="M396 667q1 -98 1.5 -174.5t0 -136.5t-2 -105.5t-4.5 -80.5q-4 -41 -8.5 -69.5t-11.5 -48.5q-9 -23 -21 -37q-17 -18 -40 -18h-1q-15 0 -28.5 7t-24.5 18t-20 24t-16 25q-17 28 -34 67.5t-36 90.5q-17 49 -33 100.5t-30 102.5l2 -114t0.5 -113.5t-2.5 -101.5t-6 -79
q-2 -13 -11.5 -20.5t-22.5 -5.5q-12 2 -19.5 11.5t-5.5 21.5q4 35 5.5 89t1.5 117t-1.5 129t-2.5 124q-1 40 -1.5 73t-0.5 57v40q1 5 1 8t1 6q2 18 12 23t15 6q9 1 18.5 -4t14.5 -17q1 -2 1 -4t1 -5q28 -121 58 -228t59 -188q22 -63 40 -101t31 -59.5t21 -29.5t11 -9
q2 2 5.5 10t7.5 25q5 20 8 47.5t5 65.5q2 35 3.5 78.5t2 99t0 125t-1.5 157.5q-1 13 8 22t21 9q13 0 21.5 -8.5t8.5 -21.5zM269 -137q2 -18 1 -35.5t-5 -34.5q-11 -41 -39 -69q-9 -9 -21 -9q-11 0 -21 8q-9 9 -9 21.5t8 21.5q18 18 23 38.5t4 37.5v4q-38 13 -47 50
q-4 17 0.5 32t16.5 23q10 8 22.5 8t23.5 -7q20 -12 30 -39t13 -50z" />
    <glyph glyph-name="K" unicode="K" horiz-adv-x="453" 
d="M443 32q1 -12 -7 -21.5t-21 -10.5q-3 -1 -11 -1q-46 0 -107 35q-26 15 -54.5 36t-57.5 49q-34 30 -59 57.5t-40 45.5q-1 -39 -2.5 -73t-2.5 -59.5t-2 -42t-1 -19.5q0 -12 -9 -20t-21 -8h-1q-13 0 -21 9.5t-8 21.5q0 1 2 40t4 99t4 132.5t3 142t-0.5 127t-5.5 87.5
q-2 12 5.5 22t20.5 12q12 2 22 -5.5t12 -20.5q3 -18 4 -45t2 -61t0.5 -72.5t-0.5 -79.5l31 37l50.5 58l51 62.5t45 60.5t31.5 53q5 11 17 15t23 -1t15 -17t-1 -23q-12 -26 -33 -57t-46.5 -63.5l-53.5 -65l-53 -62.5l-44.5 -51.5t-31.5 -40.5q10 -17 42.5 -57t81.5 -86
q60 -57 111 -85.5t83 -25.5q12 1 21.5 -7t11.5 -21z" />
    <glyph glyph-name="Kcommaaccent" unicode="&#x136;" horiz-adv-x="453" 
d="M443 32q1 -12 -7 -21.5t-21 -10.5q-3 -1 -11 -1q-46 0 -107 35q-26 15 -54.5 36t-57.5 49q-34 30 -59 57.5t-40 45.5q-1 -39 -2.5 -73t-2.5 -59.5t-2 -42t-1 -19.5q0 -12 -9 -20t-21 -8h-1q-13 0 -21 9.5t-8 21.5q0 1 2 40t4 99t4 132.5t3 142t-0.5 127t-5.5 87.5
q-2 12 5.5 22t20.5 12q12 2 22 -5.5t12 -20.5q3 -18 4 -45t2 -61t0.5 -72.5t-0.5 -79.5l31 37l50.5 58l51 62.5t45 60.5t31.5 53q5 11 17 15t23 -1t15 -17t-1 -23q-12 -26 -33 -57t-46.5 -63.5l-53.5 -65l-53 -62.5l-44.5 -51.5t-31.5 -40.5q10 -17 42.5 -57t81.5 -86
q60 -57 111 -85.5t83 -25.5q12 1 21.5 -7t11.5 -21zM262 -137q2 -18 1 -35.5t-5 -34.5q-11 -41 -39 -69q-9 -9 -21 -9q-11 0 -21 8q-9 9 -9 21.5t8 21.5q18 18 23 38.5t4 37.5v4q-38 13 -47 50q-4 17 0.5 32t16.5 23q10 8 22.5 8t23.5 -7q20 -12 30 -39t13 -50z" />
    <glyph glyph-name="J" unicode="J" horiz-adv-x="429" 
d="M420 675q3 -12 -3 -22.5t-18 -14.5q-23 -6 -57.5 -9t-67.5 -4q7 -60 14.5 -134.5t11 -149.5t0.5 -142t-17 -110q-15 -50 -53 -73q-27 -18 -59 -18q-12 0 -22 3q-31 6 -58 29q-26 21 -44 58q-19 38 -26 87.5t-2 106.5q2 13 11.5 21t21.5 6q13 -1 21 -10.5t6 -22.5
q-6 -62 2.5 -101t19.5 -61q24 -47 60 -55q21 -5 38.5 8.5t26.5 40.5q13 39 15 104.5t-2 139t-11.5 145.5l-13.5 126v1h-6q-23 0 -48 0.5t-48.5 1.5t-42 3t-28.5 5q-12 4 -18 15t-2 23q3 12 14 18t23 2q8 -2 47.5 -5t102.5 -3h7q7 11 21 13q18 2 28 -12q41 1 72 3.5t47 7.5
q12 3 23 -3t14 -18z" />
    <glyph glyph-name="IJ" unicode="&#x132;" horiz-adv-x="860" 
d="M851 675q3 -12 -3 -22.5t-18 -14.5q-23 -6 -57.5 -9t-67.5 -4q7 -60 14.5 -134.5t11 -149.5t0.5 -142t-17 -110q-15 -50 -53 -73q-27 -18 -59 -18q-12 0 -22 3q-31 6 -58 29q-26 21 -44 58q-19 38 -26 87.5t-2 106.5q2 13 11.5 21t21.5 6q13 -1 21 -10.5t6 -22.5
q-6 -62 2.5 -101t19.5 -61q24 -47 60 -55q21 -5 38.5 8.5t26.5 40.5q13 39 15 104.5t-2 139t-11.5 145.5l-13.5 126v1h-6q-23 0 -48 0.5t-48.5 1.5t-42 3t-28.5 5q-12 4 -18 15t-2 23q3 12 14 18t23 2q8 -2 47.5 -5t102.5 -3h7q7 11 21 13q18 2 28 -12q41 1 72 3.5t47 7.5
q12 3 23 -3t14 -18zM392 66q12 -1 20.5 -10t7.5 -21q-1 -13 -10 -21.5t-21 -7.5q-40 2 -74.5 2.5t-75.5 -1.5q-8 -15 -25 -15h-1q-17 0 -25 13q-16 -1 -32.5 -1.5t-35.5 -1.5q-33 -2 -72 -3h-2q-12 0 -20.5 8.5t-9.5 20.5q0 12 8.5 21t20.5 10q38 1 73 3q34 1 63 3
q-2 45 -3.5 111t-1.5 142t1 156t6 152q-26 1 -50 1.5t-43 2.5q-11 0 -20.5 0.5t-15.5 1.5q-5 1 -8 1t-5 1q-13 2 -19 8.5t-8 12.5q-3 12 2 22.5t17 15.5q13 5 24 -1q13 -2 48 -3t87 -3q10 15 27 13q14 -2 22 -13q61 -1 96.5 1t44.5 4q12 2 23 -4.5t13 -18.5
q3 -12 -3.5 -22.5t-18.5 -13.5q-17 -4 -54.5 -5t-77.5 -1h-21q-5 -72 -6 -151t-1 -155t1.5 -142t3.5 -111q41 2 75.5 1.5t75.5 -2.5z" />
    <glyph glyph-name="Jcircumflex" unicode="&#x134;" horiz-adv-x="429" 
d="M420 675q-3 12 -14 18t-23 3q-16 -5 -47 -7.5t-72 -3.5q-10 14 -28 12q-14 -2 -21 -13h-7q-63 0 -102.5 3t-47.5 5q-12 4 -23 -2t-14 -18q-4 -12 2 -23t18 -15q10 -3 28.5 -5t42 -3t48.5 -1.5t48 -0.5h6v-1l13.5 -126t11.5 -145.5t2 -139t-15 -104.5q-9 -27 -26.5 -40.5
t-38.5 -8.5q-36 8 -60 55q-11 22 -19.5 61t-2.5 101q2 13 -6 22.5t-21 10.5q-12 2 -21.5 -6t-11.5 -21q-5 -57 2 -106.5t26 -87.5q18 -37 44 -58q27 -23 58 -29q10 -3 22 -3q32 0 59 18q38 23 53 73q14 43 17 110t-0.5 142t-11 149.5t-14.5 134.5q33 1 67.5 4t57.5 9
q12 4 18 14.5t3 22.5zM303 729q-15 0 -25 13l-3 4l-18 25.5t-21 27.5t-17 19t-10 9q-2 -2 -4.5 -5t-7.5 -8l-25 -36l-11.5 -17l-10.5 -15q-8 -10 -20 -11.5t-22 6.5t-12 20t6 22t20 28q20 30 39.5 53.5t45.5 24.5q25 2 52 -25.5t65 -82.5l3 -4q8 -11 6 -23t-13 -19
q-8 -6 -17 -6z" />
    <glyph glyph-name="Eng" unicode="&#x14a;" horiz-adv-x="368" 
d="M348 253q2 -72 1.5 -133.5t-2.5 -112.5q-2 -62 -7 -103.5t-13 -65.5q-14 -42 -44 -66t-68 -24h-3q-47 2 -85 38q-39 39 -55 101q-3 12 3.5 22.5t18.5 13.5q12 4 22.5 -2.5t13.5 -18.5q7 -26 17 -43.5t21.5 -28.5t23.5 -16.5t22 -5.5h1q18 0 32.5 13t22.5 36q12 39 17 145
q-36 19 -73 85q-32 58 -69 155q-16 43 -31.5 92l-31.5 103l2 -115.5t1 -115t-2 -103t-6 -79.5q-2 -13 -12 -20.5t-22 -5.5t-20 11.5t-6 21.5q4 35 6 89t2 117t-1.5 129t-2.5 124q-1 40 -1.5 73t-0.5 57v40q0 5 0.5 8t0.5 6q3 18 13 23t14 6q9 1 18.5 -3.5t14.5 -17.5l3 -9
q26 -116 56.5 -221.5t61.5 -188.5q29 -78 51 -120t37 -62q1 38 1 80.5t-2 90.5q-1 63 -3.5 125.5t-5.5 117.5t-6 99t-6 70q-2 13 6 22t21 11q12 2 21.5 -6t11.5 -20q3 -27 6 -72t6 -100.5t5.5 -118.5t3.5 -127z" />
    <glyph glyph-name="AE" unicode="&#xc6;" horiz-adv-x="571" 
d="M561 42q1 -13 -7 -22t-21 -11q-2 0 -36 -2.5t-79 -4.5q-17 -1 -32 -1.5t-28 -0.5q-47 0 -67 4.5t-28 9.5q-11 7 -16 19.5t-8 31.5q-2 13 -3.5 30.5l-3.5 39.5q-2 23 -2.5 51.5t-1.5 60.5q-30 -2 -60.5 -3.5t-60.5 -2.5q-2 -42 -2 -80t0.5 -67.5t1.5 -48.5t1 -23
q2 -11 -5 -21t-19 -12q-2 -1 -6 -1q-11 0 -19 6.5t-10 17.5q-1 4 -1.5 15.5t-1 25.5l-1 27.5t-0.5 21.5v60.5t2 75.5h-2q-12 0 -21 8t-9 20q-1 13 7.5 22t20.5 10h6q4 58 9 107.5t13 91.5q19 110 56 161q27 37 66 42q13 1 28.5 -3t32.5 -19q11 7 24 9.5t21 4.5q33 4 89 6
q23 0 45 -0.5t39.5 -1.5t28.5 -1.5t12 -0.5q12 -1 20.5 -10t7.5 -22q-1 -12 -10.5 -20.5t-21.5 -7.5q-1 0 -32 1.5t-72 2.5q-54 0 -79 -3t-34 -5q-1 -14 -2 -41.5t-1.5 -64t-1 -80.5t-0.5 -90v-43q64 5 119.5 10.5t90.5 12.5q12 2 22.5 -4.5t12.5 -18.5q2 -13 -4.5 -23
t-18.5 -13q-37 -7 -95 -13t-126 -11q1 -49 3 -91q2 -45 4.5 -66.5t4.5 -29.5q9 -2 36 -3.5t84 1.5l40.5 2t34.5 2t24 2l9 1q12 2 21.5 -6.5t11.5 -20.5zM110 301q27 2 57 3t60 3v29q0 39 0.5 78.5t1 75t1 66t1.5 51.5q-6 12 -14 23t-18 10q-11 -2 -21 -15q-8 -9 -17.5 -29
t-19 -57.5t-18 -95.5t-13.5 -142z" />
    <glyph glyph-name="OE" unicode="&#x152;" horiz-adv-x="665" 
d="M653 42q2 -13 -6.5 -22t-20.5 -11q-2 0 -36 -2.5t-79 -4.5q-18 -1 -33 -1.5t-27 -0.5q-48 0 -67.5 4.5t-28.5 9.5q-10 6 -15 19q-13 -8 -27 -14.5t-29 -10.5q-29 -9 -55 -9q-51 0 -91 28q-54 36 -85 119q-24 65 -28 144t14 156q18 82 57 140q44 66 106 95q45 20 85 13
q26 -4 53 -20q12 10 27.5 13t23.5 5q33 4 90 6q23 0 45 -0.5t39 -1.5t28 -1.5t12 -0.5q13 -1 21 -10t7 -22q-1 -12 -10 -20.5t-22 -7.5q-15 1 -32 2q-14 1 -32.5 1t-38.5 1q-54 0 -79.5 -3t-34.5 -5q0 -14 -1 -41.5t-1.5 -64t-1 -80.5t-0.5 -90v-28q27 -1 57 -1t58.5 0.5
t53 2.5t38.5 5q13 3 23.5 -3.5t13.5 -18.5t-3.5 -22.5t-18.5 -13.5q-26 -6 -68.5 -8t-87.5 -2h-65q0 -60 3 -105q1 -21 2 -37t2 -27q1 -2 1 -7q1 -10 2 -16t2 -9q9 -2 35.5 -3.5t84.5 1.5l40.5 2t34.5 2t24 2l9 1q12 2 21.5 -6.5t10.5 -20.5zM267 65q35 11 61 35
q-1 8 -1.5 16.5t-1.5 18.5q-1 17 -2 54.5t-1.5 84.5t-1 99t-0.5 99t1 84t3 55q-1 1 -2 1.5t-2 1.5q-41 35 -93 13q-46 -21 -79.5 -71.5t-50.5 -122.5q-15 -68 -12 -139t24 -128q9 -23 22 -45t32 -38t44.5 -22t59.5 4z" />
    <glyph glyph-name="B" unicode="B" horiz-adv-x="402" 
d="M380 585q-5 -35 -26.5 -72.5t-56.5 -70.5q-34 -33 -79 -59q65 -14 97 -40.5t45 -48.5q23 -38 20 -83t-30 -87q-20 -31 -50.5 -56t-68.5 -42q-67 -29 -146 -29q-21 0 -43 3q-12 1 -20 10.5t-7 21.5q2 13 11.5 21t21.5 6h2q1 53 1 103.5v100.5q0 102 0.5 200t5.5 207
q1 12 10 20.5t22 7.5q12 -1 20.5 -10t7.5 -21v-14t-1 -14q63 37 114 51q71 19 111 -8q48 -30 39 -97zM309 263q-21 35 -72 52.5t-126 15.5v-68v-100.5t-1 -104.5q36 3 66.5 12.5t54 23t41 30t28.5 33.5q17 28 20 55.5t-11 50.5zM111 399q52 18 90.5 43.5t64 52.5t39 53
t16.5 45q2 10 0 21t-11 17t-25.5 6.5t-41.5 -6.5t-57.5 -22t-72.5 -42q-1 -43 -1.5 -84.5t-0.5 -83.5z" />
    <glyph glyph-name="slash" unicode="/" horiz-adv-x="297" 
d="M36 0q-5 0 -11 2q-12 5 -17 16.5t0 22.5q58 145 113 302.5t111 341.5q4 12 15 18t23 2t18 -15t2 -23q-57 -185 -112.5 -343t-113.5 -305q-8 -19 -28 -19z" />
    <glyph glyph-name="backslash" unicode="\" horiz-adv-x="297" 
d="M261 0q-20 0 -28 19q-59 147 -114 305t-112 343q-4 12 2 23t18 15t23 -2t15 -18q56 -184 110.5 -341.5t113.5 -302.5q5 -11 0 -22.5t-17 -16.5q-6 -2 -11 -2z" />
    <glyph glyph-name="scedilla" unicode="&#x15f;" horiz-adv-x="313" 
d="M164 -2q-5 0 -11 0.5t-11 1.5q-56 9 -92 56q-37 51 -34 130q0 12 9 20.5t22 8.5q12 -1 20.5 -10t8.5 -21q-2 -31 4.5 -53.5t17 -37.5t24.5 -23.5t29 -10.5q23 -4 48 7.5t34 42.5q9 33 -20.5 65.5t-79.5 73.5q-36 29 -66 57.5t-39 62.5q-15 64 26 104q22 22 58 28
q35 6 67 -4q39 -11 67 -40q31 -32 42 -78q3 -12 -3.5 -22.5t-18.5 -13.5t-22.5 3.5t-13.5 18.5q-5 20 -14 33.5t-19 22t-19.5 13t-15.5 6.5q-20 5 -38 2.5t-29 -12.5q-17 -17 -8 -46q4 -20 29.5 -43t54.5 -46l48 -40t42 -43q45 -60 29 -118q-12 -44 -46.5 -69.5t-79.5 -25.5
zM131 -177h-11t-12 1q-12 2 -20 11.5t-6 21.5q2 13 11.5 21t21.5 6q25 -3 36.5 1.5t14.5 7.5q5 5 4 11q0 4 -5 9q-15 11 -48 5q-13 -3 -25 7t-10 25l2 23q1 10 1.5 22t1.5 25q1 12 9.5 20.5t21.5 7.5q12 -1 21 -10t8 -21q0 -10 -1 -19.5t-2 -17.5q35 -2 58 -20
q26 -20 28 -52q3 -33 -23 -59q-10 -9 -28.5 -17.5t-47.5 -8.5z" />
    <glyph glyph-name="W" unicode="W" horiz-adv-x="600" 
d="M446 -4h-1q-13 0 -23 6.5t-17 15t-11.5 17t-6.5 13.5q-15 32 -28 93q-13 55 -23.5 121.5l-20.5 134.5l-13.5 88t-13.5 77q-2 7 -2.5 12.5t-1.5 10.5q-1 -5 -1.5 -10t-1.5 -11q-5 -34 -9 -75.5t-9 -86.5q-6 -69 -13 -136t-17 -123q-12 -62 -25 -95q-22 -52 -61 -52
q-34 2 -53 45q-13 27 -25 79q-9 41 -16.5 96t-14.5 125q-6 59 -9.5 116t-6 102t-3.5 72.5t-1 28.5q-1 12 7.5 21t21.5 10q13 0 21.5 -8.5t9.5 -20.5q0 -1 1 -26t3 -65.5t5.5 -92.5t8.5 -107q5 -65 11.5 -117.5t14.5 -93.5l9.5 -42t9.5 -33q2 -7 4 -12t4 -9q5 10 12.5 34.5
t15.5 75.5t14.5 111.5l12.5 121.5l9.5 99t10.5 84q6 42 13 63q1 4 4 11t7.5 13.5t11 12t16.5 7.5q15 3 28 -7q6 -4 11 -10.5t9.5 -18.5t9.5 -31t11 -47q8 -36 14.5 -81.5t14.5 -95.5l18.5 -121t20.5 -111q6 -27 11.5 -48t10.5 -37q3 -8 5.5 -13.5t4.5 -9.5q5 11 11.5 33
t14.5 64t15.5 96t14.5 120q6 57 10 110.5l7 95t4.5 67l1.5 25.5q0 13 9 21.5t22 7.5q12 -1 20.5 -10t7.5 -22l-1.5 -28.5t-4.5 -74.5t-8 -104.5t-11 -119.5q-8 -72 -16.5 -128.5t-17.5 -98.5q-12 -52 -25 -79q-21 -45 -53 -45z" />
    <glyph glyph-name="afii00208" unicode="&#x2015;" horiz-adv-x="501" 
d="M197 235q-29 0 -71 2t-80 7q-13 2 -20.5 11.5t-5.5 21.5q2 13 11.5 20.5t21.5 5.5q27 -3 63 -5t75 -2.5t78.5 -0.5t74.5 1t62.5 2.5t41.5 3.5q12 1 21.5 -6.5t11.5 -20.5q2 -12 -6 -21.5t-20 -11.5q-13 -2 -48.5 -3t-76.5 -2t-78.5 -1.5t-54.5 -0.5z" />
    <glyph glyph-name="a" unicode="a" horiz-adv-x="402" 
d="M386 46q2 -13 -5.5 -23t-19.5 -12t-22 5.5t-12 19.5q0 1 -4.5 28t-10.5 68q-17 -42 -37.5 -68t-42 -41t-43 -20.5t-40.5 -5.5h-1q-73 2 -109 73q-16 32 -20.5 74.5t2.5 90.5q8 48 26 92t44 79q43 56 101 78.5t124 9.5q12 -2 19 -12.5t4 -22.5q-2 -12 -12 -19t-23 -5
q-31 6 -56.5 2t-45.5 -14.5t-36 -24.5t-27 -29q-23 -29 -37.5 -65.5t-20.5 -77.5q-6 -38 -2.5 -72t14.5 -58q19 -39 55 -39q45 0 77 41q21 26 36.5 68.5t24.5 96.5q2 10 2.5 19.5t2.5 18.5q-2 9 -2.5 17t-1.5 15q-1 14 -1.5 25t-0.5 19q0 10 2 23t15 21q8 5 18 4t18 -7
q8 -7 11 -18.5t4 -28.5q1 -13 0.5 -28.5t-1.5 -32.5q-1 -3 -1 -9l4.5 -42t7.5 -56l8 -58t7.5 -50l5.5 -35.5z" />
    <glyph glyph-name="b" unicode="b" horiz-adv-x="417" 
d="M384 429q16 -29 22.5 -68t1.5 -83q-4 -45 -18 -86t-37 -76q-37 -56 -89 -84.5t-115 -28.5h-12t-12 1q-13 1 -21 10.5t-6 21.5q1 13 10.5 21t21.5 6q34 -3 61.5 4t48.5 19.5t36.5 29t26.5 33.5q18 29 30 63t15 72q4 34 -1 64.5t-16 52.5q-20 35 -52 35q-37 0 -73 -42
q-28 -31 -53 -83.5t-45 -121.5q-9 -32 -15 -60q-1 -23 -1.5 -41t-2.5 -32q-2 -18 -3 -26q-2 -5 -5.5 -16t-17.5 -16q-3 -1 -5.5 -1.5t-5.5 -0.5q-13 0 -23 10q-8 9 -9.5 21.5t0.5 32.5l4.5 31.5t6.5 37.5q1 2 1 4t1 4q1 40 1.5 103.5t-0.5 160.5q0 61 -1 119.5t-1.5 104
t-1 73t-0.5 28.5q0 13 8.5 21.5t20.5 9.5q13 0 22 -8.5t9 -21.5l0.5 -30.5t1.5 -79t1.5 -111t0.5 -126.5q1 -14 1 -27v-26q32 70 69 110q53 59 115 59q33 0 60.5 -17.5t44.5 -49.5z" />
    <glyph glyph-name="h" unicode="h" horiz-adv-x="396" 
d="M384 209q3 -35 3.5 -67t0.5 -56.5t-0.5 -39.5t-0.5 -16q-1 -13 -10 -21.5t-22 -7.5q-12 1 -20.5 10t-7.5 22q1 24 1 52q0 24 -1 55t-3 66q-4 57 -11 96.5t-15 65t-16.5 40t-14.5 20.5q-8 8 -14 10t-11 2q-2 0 -11.5 -4.5t-25.5 -25.5q-23 -31 -46.5 -85.5t-41.5 -121.5
q-2 -7 -3.5 -13.5t-3.5 -12.5v-29v-48t-2 -37q-2 -24 -5.5 -36.5t-11.5 -20.5q-10 -10 -23 -10q-3 0 -4 1q-5 0 -16.5 6t-16.5 28q-3 12 -1 35q1 23 6.5 53.5t13.5 64.5q-2 42 -4 95.5t-5 117.5l-8 116.5l-7 100.5l-5 71t-2 28q-1 12 7 21.5t20 10.5q13 1 22 -7t11 -21
l2 -29t5.5 -75.5t7.5 -106t7 -122.5q1 -9 1.5 -18.5t0.5 -18.5q12 28 24 51t25 41q43 61 90 61q39 0 68 -30q34 -36 54 -116q8 -30 12.5 -66.5t7.5 -78.5z" />
    <glyph glyph-name="R" unicode="R" horiz-adv-x="372" 
d="M346 52q9 -9 9.5 -21.5t-8.5 -21.5q-8 -9 -21 -9q-11 0 -21 8l-13 13l-61 58t-45 46t-44.5 51.5l-59.5 74.5v-44.5t1 -44.5q0 -33 0.5 -67t0.5 -69q0 -12 -8.5 -21t-21.5 -9q-12 0 -21 8.5t-9 21.5q0 35 -0.5 68.5t-0.5 66.5q-1 60 -1.5 119t0 120.5t2 128t4.5 141.5
q0 12 9 20.5t22 7.5q12 0 20.5 -9t7.5 -22v-14q43 24 77 35.5t60 14t44.5 -1.5t31.5 -11q50 -30 47 -101q-2 -38 -21.5 -81t-53.5 -84q-22 -27 -59 -61t-94 -63l44 -56.5l34.5 -41.5l29 -33t29 -30.5l34 -33l43.5 -41.5zM207 639q-54 -14 -123 -58q-3 -126 -3 -233
q54 26 89.5 57.5t55.5 56.5q27 33 43 67t18 63q1 12 -2 25t-15 21q-23 11 -63 1z" />
    <glyph glyph-name="Rcaron" unicode="&#x158;" horiz-adv-x="372" 
d="M346 52q9 -9 9.5 -21.5t-8.5 -21.5q-8 -9 -21 -9q-11 0 -21 8l-13 13l-61 58t-45 46t-44.5 51.5l-59.5 74.5v-44.5t1 -44.5q0 -33 0.5 -67t0.5 -69q0 -12 -8.5 -21t-21.5 -9q-12 0 -21 8.5t-9 21.5q0 35 -0.5 68.5t-0.5 66.5q-1 60 -1.5 119t0 120.5t2 128t4.5 141.5
q0 12 9 20.5t22 7.5q12 0 20.5 -9t7.5 -22v-14q43 24 77 35.5t60 14t44.5 -1.5t31.5 -11q50 -30 47 -101q-2 -38 -21.5 -81t-53.5 -84q-22 -27 -59 -61t-94 -63l44 -56.5l34.5 -41.5l29 -33t29 -30.5l34 -33l43.5 -41.5zM207 639q-54 -14 -123 -58q-3 -126 -3 -233
q54 26 89.5 57.5t55.5 56.5q27 33 43 67t18 63q1 12 -2 25t-15 21q-23 11 -63 1zM274 891q9 0 17 -6q11 -7 13 -19t-6 -23l-3 -4q-38 -55 -65 -82.5t-52 -25.5q-26 1 -45.5 24.5t-39.5 53.5q-12 18 -20 28t-6 22t12 20t22 6.5t20 -11.5l10.5 -15l11.5 -17q13 -20 25 -36
q5 -5 7.5 -8t4.5 -5q4 3 10 9t17 19t21 27.5l18 25.5l3 4q10 13 25 13z" />
    <glyph glyph-name="Racute" unicode="&#x154;" horiz-adv-x="372" 
d="M346 52q9 -9 9.5 -21.5t-8.5 -21.5q-8 -9 -21 -9q-11 0 -21 8l-13 13l-61 58t-45 46t-44.5 51.5l-59.5 74.5v-44.5t1 -44.5q0 -33 0.5 -67t0.5 -69q0 -12 -8.5 -21t-21.5 -9q-12 0 -21 8.5t-9 21.5q0 35 -0.5 68.5t-0.5 66.5q-1 60 -1.5 119t0 120.5t2 128t4.5 141.5
q0 12 9 20.5t22 7.5q12 0 20.5 -9t7.5 -22v-14q43 24 77 35.5t60 14t44.5 -1.5t31.5 -11q50 -30 47 -101q-2 -38 -21.5 -81t-53.5 -84q-22 -27 -59 -61t-94 -63l44 -56.5l34.5 -41.5l29 -33t29 -30.5l34 -33l43.5 -41.5zM207 639q-54 -14 -123 -58q-3 -126 -3 -233
q54 26 89.5 57.5t55.5 56.5q27 33 43 67t18 63q1 12 -2 25t-15 21q-23 11 -63 1zM144 740q-14 0 -23 11q-8 10 -7 22.5t11 20.5q23 18 41.5 38t35.5 43q7 10 19 12t23 -5q10 -8 12 -20t-6 -22q-20 -27 -40.5 -49.5t-46.5 -43.5q-9 -7 -19 -7z" />
    <glyph glyph-name="Wcircumflex" unicode="&#x174;" horiz-adv-x="600" 
d="M446 -4h-1q-13 0 -23 6.5t-17 15t-11.5 17t-6.5 13.5q-15 32 -28 93q-13 55 -23.5 121.5l-20.5 134.5l-13.5 88t-13.5 77q-2 7 -2.5 12.5t-1.5 10.5q-1 -5 -1.5 -10t-1.5 -11q-5 -34 -9 -75.5t-9 -86.5q-6 -69 -13 -136t-17 -123q-12 -62 -25 -95q-22 -52 -61 -52
q-34 2 -53 45q-13 27 -25 79q-9 41 -16.5 96t-14.5 125q-6 59 -9.5 116t-6 102t-3.5 72.5t-1 28.5q-1 12 7.5 21t21.5 10q13 0 21.5 -8.5t9.5 -20.5q0 -1 1 -26t3 -65.5t5.5 -92.5t8.5 -107q5 -65 11.5 -117.5t14.5 -93.5l9.5 -42t9.5 -33q2 -7 4 -12t4 -9q5 10 12.5 34.5
t15.5 75.5t14.5 111.5l12.5 121.5l9.5 99t10.5 84q6 42 13 63q1 4 4 11t7.5 13.5t11 12t16.5 7.5q15 3 28 -7q6 -4 11 -10.5t9.5 -18.5t9.5 -31t11 -47q8 -36 14.5 -81.5t14.5 -95.5l18.5 -121t20.5 -111q6 -27 11.5 -48t10.5 -37q3 -8 5.5 -13.5t4.5 -9.5q5 11 11.5 33
t14.5 64t15.5 96t14.5 120q6 57 10 110.5l7 95t4.5 67l1.5 25.5q0 13 9 21.5t22 7.5q12 -1 20.5 -10t7.5 -22l-1.5 -28.5t-4.5 -74.5t-8 -104.5t-11 -119.5q-8 -72 -16.5 -128.5t-17.5 -98.5q-12 -52 -25 -79q-21 -45 -53 -45zM388 729q-15 0 -25 13l-3 4l-18 25.5t-21 27.5
t-17 19t-10 9q-2 -2 -4.5 -5t-7.5 -8l-25 -36l-11.5 -17l-10.5 -15q-8 -10 -20 -11.5t-22 6.5t-12 20t6 22t20 28q20 30 39.5 53.5t45.5 24.5q25 2 52 -25.5t65 -82.5l3 -4q8 -11 6 -23t-13 -19q-8 -6 -17 -6z" />
    <glyph glyph-name="quotereversed" unicode="&#x201b;" horiz-adv-x="137" 
d="M14 542q3 23 13 50t30 39q11 7 23.5 7t22.5 -8q12 -8 16.5 -23t0.5 -32q-9 -37 -47 -50v-4q-1 -17 4 -37.5t23 -38.5q8 -9 8 -21.5t-9 -21.5q-10 -8 -21 -8q-12 0 -21 9q-29 28 -39 69q-4 17 -5 34.5t1 35.5z" />
    <glyph glyph-name="uni201F" unicode="&#x201f;" horiz-adv-x="276" 
d="M149 542q3 23 13 50t30 39q11 7 23.5 7t22.5 -8q12 -8 16.5 -23t0.5 -32q-9 -37 -47 -50v-4q-1 -17 4 -37.5t23 -38.5q8 -9 8 -21.5t-9 -21.5q-10 -8 -21 -8q-12 0 -21 9q-29 28 -39 69q-4 17 -5 34.5t1 35.5zM19 542q3 23 13 50t30 39q11 7 23.5 7t22.5 -8
q12 -8 16.5 -23t0.5 -32q-9 -37 -47 -50v-4q-1 -17 4 -37.5t23 -38.5q8 -9 8 -21.5t-9 -21.5q-10 -8 -21 -8q-12 0 -21 9q-29 28 -39 69q-4 17 -5 34.5t1 35.5z" />
    <glyph glyph-name="Euro" unicode="&#x20ac;" horiz-adv-x="454" 
d="M155 415h-26t-24 1t-26 2t-33 4q-13 2 -20.5 11.5t-5.5 21.5q2 13 11.5 20.5t21.5 5.5q81 -10 137.5 -7t99.5 8q12 1 21.5 -6.5t11.5 -20.5q2 -12 -6 -21.5t-20 -11.5q-26 -3 -67 -5t-75 -2zM155 254q-14 0 -26.5 -0.5t-25.5 -0.5t-28 0.5t-34 3.5q-13 2 -20.5 11.5
t-5.5 21.5q2 13 11.5 20.5t21.5 5.5q81 -10 143 -4.5t105 10.5q12 1 23 -6.5t13 -20.5q2 -12 -6 -21.5t-20 -11.5q-13 -2 -31.5 -3t-39.5 -2.5t-42 -2t-38 -0.5zM220 -1h-8.5t-8.5 1q-12 1 -26 5.5t-28 14t-27.5 25t-24.5 38.5q-19 38 -26 92.5t-3 123.5q6 88 25 161.5
t50 128.5q31 51 66 79q39 30 79 30q55 2 92 -48q17 -23 27.5 -55t14.5 -72q2 -13 -6 -22.5t-20 -10.5q-13 -2 -22.5 6t-10.5 20q-5 41 -14 64t-18 34q-19 25 -42 24q-23 0 -47.5 -21t-46.5 -58q-20 -34 -40 -98t-27 -166q-8 -123 23 -186q21 -46 60 -50q24 -3 50.5 8.5
t49.5 33t40 49.5t23 58q2 12 12.5 19t22.5 5q13 -2 19.5 -12.5t4.5 -22.5q-8 -39 -29.5 -76.5t-54.5 -66.5q-31 -27 -64 -41t-65 -14z" />
    <glyph glyph-name="Y" unicode="Y" horiz-adv-x="421" 
d="M386 695q12 -2 19 -12.5t4 -23.5q-9 -42 -29 -105t-44.5 -132.5l-51.5 -139.5l-49.5 -127.5l-37.5 -95l-17 -42.5q-3 -9 -11 -14t-16 -5q-4 0 -12 2q-11 5 -16 16.5t0 23.5l6 14t15.5 38.5l22.5 57.5l28 71q-18 30 -38.5 73.5t-39.5 91l-36.5 95l-31.5 85.5t-22.5 63.5
l-9.5 28.5q-4 11 2 22t17 15q12 5 23 -1t15 -18q0 -1 6.5 -20l17.5 -50.5l25.5 -71l31 -81.5l34 -83.5t34.5 -74.5l39 105l37 104t30 93.5t20 74.5q2 12 12.5 18.5t22.5 4.5z" />
    <glyph glyph-name="Ydieresis" unicode="&#x178;" horiz-adv-x="421" 
d="M386 695q-12 2 -22.5 -4.5t-12.5 -18.5q-7 -31 -20 -74.5t-30 -93.5l-37 -104l-39 -105q-17 33 -34.5 74.5l-34 83.5l-31 81.5l-25.5 71l-17.5 50.5t-6.5 20q-4 12 -15 18t-23 1q-11 -4 -17 -15t-2 -22l9.5 -28.5t22.5 -63.5l31.5 -85.5l36.5 -95t39.5 -91t38.5 -73.5
l-28 -71l-22.5 -57.5t-15.5 -38.5l-6 -14q-5 -12 0 -23.5t16 -16.5q8 -2 12 -2q8 0 16 5t11 14l17 42.5l37.5 95l49.5 127.5l51.5 139.5t44.5 132.5t29 105q3 13 -4 23.5t-19 12.5zM235 815q11 13 28 13q13 0 21.5 -8.5t8.5 -21.5q0 -11 -6 -18q0 -3 2 -7q3 -12 -3.5 -23
t-18.5 -14q-2 0 -4 -0.5t-4 -0.5q-22 0 -29 23q0 1 -1 5.5t-2 11.5q-1 8 0 19t8 21zM137 815q11 13 28 13q13 0 21.5 -8.5t8.5 -21.5q0 -11 -6 -18q0 -3 2 -7q3 -12 -3.5 -23t-18.5 -14q-2 0 -4 -0.5t-4 -0.5q-22 0 -29 23q0 1 -1 5.5t-2 11.5q-1 8 0 19t8 21z" />
    <glyph glyph-name="Ycircumflex" unicode="&#x176;" horiz-adv-x="421" 
d="M386 695q-12 2 -22.5 -4.5t-12.5 -18.5q-7 -31 -20 -74.5t-30 -93.5l-37 -104l-39 -105q-17 33 -34.5 74.5l-34 83.5l-31 81.5l-25.5 71l-17.5 50.5t-6.5 20q-4 12 -15 18t-23 1q-11 -4 -17 -15t-2 -22l9.5 -28.5t22.5 -63.5l31.5 -85.5l36.5 -95t39.5 -91t38.5 -73.5
l-28 -71l-22.5 -57.5t-15.5 -38.5l-6 -14q-5 -12 0 -23.5t16 -16.5q8 -2 12 -2q8 0 16 5t11 14l17 42.5l37.5 95l49.5 127.5l51.5 139.5t44.5 132.5t29 105q3 13 -4 23.5t-19 12.5zM299 729q-15 0 -25 13l-3 4l-18 25.5t-21 27.5t-17 19t-10 9q-2 -2 -4.5 -5t-7.5 -8
l-25 -36l-11.5 -17l-10.5 -15q-8 -10 -20 -11.5t-22 6.5t-12 20t6 22t20 28q20 30 39.5 53.5t45.5 24.5q25 2 52 -25.5t65 -82.5l3 -4q8 -11 6 -23t-13 -19q-8 -6 -17 -6z" />
    <glyph glyph-name="P" unicode="P" horiz-adv-x="349" 
d="M337 633q10 -27 9 -63q-3 -39 -22 -81t-52 -83q-36 -45 -83.5 -80t-104.5 -60q-2 0 -3 -1q-1 -58 0 -115.5t4 -118.5q1 -12 -7.5 -21t-21.5 -10h-1q-12 0 -20.5 8t-9.5 21q-5 112 -4 217t3 221q2 48 2.5 98t1.5 104q0 12 9 20.5t21 8.5q13 0 21.5 -8.5t8.5 -21.5v-11
q42 21 74.5 30.5t58 10.5t44.5 -4t32 -13q28 -17 40 -48zM286 575q1 14 -2.5 30t-18.5 25q-22 14 -63 5q-50 -9 -115 -47q-1 -32 -1.5 -62.5t-1.5 -59.5q-2 -69 -3 -135q54 26 89.5 57t55.5 56q26 33 42 67t18 64z" />
    <glyph glyph-name="Q" unicode="Q" horiz-adv-x="569" 
d="M544 52q9 -8 9.5 -20.5t-7.5 -21.5q-9 -10 -22 -10q-12 0 -20 8l-8.5 7l-22.5 19l-33 27.5l-41 32.5q-6 -10 -12.5 -18l-13.5 -16q-46 -47 -107 -53q-41 -5 -80 5t-72 34q-31 22 -50 51t-23 59q-6 44 22 75q27 31 83 39q51 9 128 -27q23 -11 48 -25.5t52 -32.5
q17 51 19 114.5t-10 128.5q-11 64 -33 113t-51 74q-37 32 -82 12q-19 -9 -34.5 -24t-28 -32t-21.5 -35.5t-16 -34.5q-17 -44 -26.5 -94.5t-9.5 -103.5q0 -12 -8.5 -21t-21.5 -9q-12 0 -21 9t-9 21q0 58 10.5 114.5t30.5 106.5q46 117 130 157q39 20 79 12q37 -6 68 -33
q37 -32 66 -94q25 -58 37 -127q13 -72 10.5 -143t-21.5 -129q-2 -9 -6 -18q51 -37 84 -66t35 -31zM260 66q32 4 54 21.5t36 41.5q-38 26 -68 42t-52.5 25t-38.5 12.5t-26 3.5q-7 0 -10 -1q-60 -9 -55 -48q2 -17 15 -35.5t34.5 -33.5t49.5 -23.5t61 -4.5z" />
    <glyph glyph-name="Yacute" unicode="&#xdd;" horiz-adv-x="421" 
d="M386 695q12 -2 19 -12.5t4 -23.5q-9 -42 -29 -105t-44.5 -132.5l-51.5 -139.5l-49.5 -127.5l-37.5 -95l-17 -42.5q-3 -9 -11 -14t-16 -5q-4 0 -12 2q-11 5 -16 16.5t0 23.5l6 14t15.5 38.5l22.5 57.5l28 71q-18 30 -38.5 73.5t-39.5 91l-36.5 95l-31.5 85.5t-22.5 63.5
l-9.5 28.5q-4 11 2 22t17 15q12 5 23 -1t15 -18q0 -1 6.5 -20l17.5 -50.5l25.5 -71l31 -81.5l34 -83.5t34.5 -74.5l39 105l37 104t30 93.5t20 74.5q2 12 12.5 18.5t22.5 4.5zM169 740q-14 0 -23 11q-8 10 -7 22.5t11 20.5q23 18 41.5 38t35.5 43q7 10 19 12t23 -5
q10 -8 12 -20t-6 -22q-20 -27 -40.5 -49.5t-46.5 -43.5q-9 -7 -19 -7z" />
    <glyph glyph-name="D" unicode="D" horiz-adv-x="376" 
d="M344 478q23 -81 17 -169q-5 -80 -34 -144.5t-79 -106.5q-73 -61 -172 -61q-8 0 -16.5 0.5t-16.5 1.5q-13 1 -21 10.5t-6 22.5q2 12 11 20t22 6h2q1 52 1 95.5v85.5q0 41 -0.5 80t0.5 80.5t2 87.5t4 100q1 12 10 20.5t22 7.5q12 -1 20.5 -10t7.5 -21q-3 -54 -4 -99
l-2 -86.5t-0.5 -80.5t0.5 -79v-85t-1 -94q55 7 98 44q41 34 64 87.5t28 121.5q2 32 -0.5 68.5t-12 72.5t-26.5 70t-43 60q-60 60 -153 54q-13 -1 -22 7.5t-10 20.5q-1 13 7.5 22t20.5 10q62 5 113 -15q24 -10 45.5 -23.5t40.5 -32.5q57 -57 83 -149z" />
    <glyph glyph-name="Eth" unicode="&#xd0;" horiz-adv-x="376" 
d="M344 478q23 -81 17 -169q-5 -80 -34 -144.5t-79 -106.5q-73 -61 -172 -61q-8 0 -16.5 0.5t-16.5 1.5q-13 1 -21 10.5t-6 22.5q2 12 11 20t22 6h2q1 52 1 95.5v85.5q0 41 -0.5 80t0.5 80.5t2 87.5t4 100q1 12 10 20.5t22 7.5q12 -1 20.5 -10t7.5 -21q-3 -54 -4 -99
l-2 -86.5t-0.5 -80.5t0.5 -79v-85t-1 -94q55 7 98 44q41 34 64 87.5t28 121.5q2 32 -0.5 68.5t-12 72.5t-26.5 70t-43 60q-60 60 -153 54q-13 -1 -22 7.5t-10 20.5q-1 13 7.5 22t20.5 10q62 5 113 -15q24 -10 45.5 -23.5t40.5 -32.5q57 -57 83 -149zM116 304
q-14 -1 -22.5 -1.5t-16.5 0t-19 2t-30 4.5q-13 2 -20.5 11.5t-5.5 21.5q2 13 11.5 20.5t21.5 5.5q40 -5 61 -6.5t34 -1.5t24.5 2t32.5 5q12 1 21.5 -6.5t11.5 -20.5q2 -12 -6 -21.5t-20 -11.5q-26 -3 -43 -2t-35 -1z" />
    </font>
</defs>
</svg>
